G04 #@! TF.GenerationSoftware,KiCad,Pcbnew,(5.1.0)-1*
G04 #@! TF.CreationDate,2019-03-23T21:37:36-07:00*
G04 #@! TF.ProjectId,yuv2dvi,79757632-6476-4692-9e6b-696361645f70,0.1*
G04 #@! TF.SameCoordinates,Original*
G04 #@! TF.FileFunction,Soldermask,Top*
G04 #@! TF.FilePolarity,Negative*
%FSLAX46Y46*%
G04 Gerber Fmt 4.6, Leading zero omitted, Abs format (unit mm)*
G04 Created by KiCad (PCBNEW (5.1.0)-1) date 2019-03-23 21:37:36*
%MOMM*%
%LPD*%
G04 APERTURE LIST*
%ADD10C,0.100000*%
G04 APERTURE END LIST*
D10*
G36*
X105227290Y-134025619D02*
G01*
X105291689Y-134038429D01*
X105473678Y-134113811D01*
X105637463Y-134223249D01*
X105776751Y-134362537D01*
X105886189Y-134526322D01*
X105961571Y-134708311D01*
X106000000Y-134901509D01*
X106000000Y-135098491D01*
X105961571Y-135291689D01*
X105886189Y-135473678D01*
X105776751Y-135637463D01*
X105637463Y-135776751D01*
X105473678Y-135886189D01*
X105291689Y-135961571D01*
X105227290Y-135974381D01*
X105098493Y-136000000D01*
X104901507Y-136000000D01*
X104772710Y-135974381D01*
X104708311Y-135961571D01*
X104526322Y-135886189D01*
X104362537Y-135776751D01*
X104223249Y-135637463D01*
X104113811Y-135473678D01*
X104038429Y-135291689D01*
X104000000Y-135098491D01*
X104000000Y-134901509D01*
X104038429Y-134708311D01*
X104113811Y-134526322D01*
X104223249Y-134362537D01*
X104362537Y-134223249D01*
X104526322Y-134113811D01*
X104708311Y-134038429D01*
X104772710Y-134025619D01*
X104901507Y-134000000D01*
X105098493Y-134000000D01*
X105227290Y-134025619D01*
X105227290Y-134025619D01*
G37*
G36*
X203079487Y-128113996D02*
G01*
X203316253Y-128212068D01*
X203316255Y-128212069D01*
X203529339Y-128354447D01*
X203710553Y-128535661D01*
X203852932Y-128748747D01*
X203951004Y-128985513D01*
X204001000Y-129236861D01*
X204001000Y-129493139D01*
X203951004Y-129744487D01*
X203852932Y-129981253D01*
X203852931Y-129981255D01*
X203710553Y-130194339D01*
X203529339Y-130375553D01*
X203316255Y-130517931D01*
X203316254Y-130517932D01*
X203316253Y-130517932D01*
X203079487Y-130616004D01*
X202828139Y-130666000D01*
X202571861Y-130666000D01*
X202320513Y-130616004D01*
X202083747Y-130517932D01*
X202083746Y-130517932D01*
X202083745Y-130517931D01*
X201870661Y-130375553D01*
X201689447Y-130194339D01*
X201547069Y-129981255D01*
X201547068Y-129981253D01*
X201448996Y-129744487D01*
X201399000Y-129493139D01*
X201399000Y-129236861D01*
X201448996Y-128985513D01*
X201547068Y-128748747D01*
X201689447Y-128535661D01*
X201870661Y-128354447D01*
X202083745Y-128212069D01*
X202083747Y-128212068D01*
X202320513Y-128113996D01*
X202571861Y-128064000D01*
X202828139Y-128064000D01*
X203079487Y-128113996D01*
X203079487Y-128113996D01*
G37*
G36*
X101152585Y-124728802D02*
G01*
X101302410Y-124758604D01*
X101584674Y-124875521D01*
X101838705Y-125045259D01*
X102054741Y-125261295D01*
X102224479Y-125515326D01*
X102341396Y-125797590D01*
X102401000Y-126097240D01*
X102401000Y-126402760D01*
X102341396Y-126702410D01*
X102224479Y-126984674D01*
X102054741Y-127238705D01*
X101838705Y-127454741D01*
X101584674Y-127624479D01*
X101302410Y-127741396D01*
X101152585Y-127771198D01*
X101002761Y-127801000D01*
X100697239Y-127801000D01*
X100547415Y-127771198D01*
X100397590Y-127741396D01*
X100115326Y-127624479D01*
X99861295Y-127454741D01*
X99645259Y-127238705D01*
X99475521Y-126984674D01*
X99358604Y-126702410D01*
X99299000Y-126402760D01*
X99299000Y-126097240D01*
X99358604Y-125797590D01*
X99475521Y-125515326D01*
X99645259Y-125261295D01*
X99861295Y-125045259D01*
X100115326Y-124875521D01*
X100397590Y-124758604D01*
X100547415Y-124728802D01*
X100697239Y-124699000D01*
X101002761Y-124699000D01*
X101152585Y-124728802D01*
X101152585Y-124728802D01*
G37*
G36*
X206379487Y-122273996D02*
G01*
X206616253Y-122372068D01*
X206616255Y-122372069D01*
X206829339Y-122514447D01*
X207010553Y-122695661D01*
X207132457Y-122878103D01*
X207152932Y-122908747D01*
X207251004Y-123145513D01*
X207301000Y-123396861D01*
X207301000Y-123653139D01*
X207251004Y-123904487D01*
X207155663Y-124134660D01*
X207152931Y-124141255D01*
X207010553Y-124354339D01*
X206829339Y-124535553D01*
X206616255Y-124677931D01*
X206616254Y-124677932D01*
X206616253Y-124677932D01*
X206379487Y-124776004D01*
X206128139Y-124826000D01*
X205871861Y-124826000D01*
X205620513Y-124776004D01*
X205383747Y-124677932D01*
X205383746Y-124677932D01*
X205383745Y-124677931D01*
X205170661Y-124535553D01*
X204989447Y-124354339D01*
X204847069Y-124141255D01*
X204844337Y-124134660D01*
X204748996Y-123904487D01*
X204699000Y-123653139D01*
X204699000Y-123396861D01*
X204748996Y-123145513D01*
X204847068Y-122908747D01*
X204867544Y-122878103D01*
X204989447Y-122695661D01*
X205170661Y-122514447D01*
X205383745Y-122372069D01*
X205383747Y-122372068D01*
X205620513Y-122273996D01*
X205871861Y-122224000D01*
X206128139Y-122224000D01*
X206379487Y-122273996D01*
X206379487Y-122273996D01*
G37*
G36*
X191321934Y-121702671D02*
G01*
X191351877Y-121711754D01*
X191379465Y-121726500D01*
X191403651Y-121746349D01*
X191423500Y-121770535D01*
X191438246Y-121798123D01*
X191447329Y-121828066D01*
X191451000Y-121865340D01*
X191451000Y-124134660D01*
X191447329Y-124171934D01*
X191438246Y-124201877D01*
X191423500Y-124229465D01*
X191403651Y-124253651D01*
X191379465Y-124273500D01*
X191351877Y-124288246D01*
X191321934Y-124297329D01*
X191284660Y-124301000D01*
X187115340Y-124301000D01*
X187078066Y-124297329D01*
X187048123Y-124288246D01*
X187020535Y-124273500D01*
X186996349Y-124253651D01*
X186976500Y-124229465D01*
X186961754Y-124201877D01*
X186952671Y-124171934D01*
X186949000Y-124134660D01*
X186949000Y-121865340D01*
X186952671Y-121828066D01*
X186961754Y-121798123D01*
X186976500Y-121770535D01*
X186996349Y-121746349D01*
X187020535Y-121726500D01*
X187048123Y-121711754D01*
X187078066Y-121702671D01*
X187115340Y-121699000D01*
X191284660Y-121699000D01*
X191321934Y-121702671D01*
X191321934Y-121702671D01*
G37*
G36*
X183921934Y-121702671D02*
G01*
X183951877Y-121711754D01*
X183979465Y-121726500D01*
X184003651Y-121746349D01*
X184023500Y-121770535D01*
X184038246Y-121798123D01*
X184047329Y-121828066D01*
X184051000Y-121865340D01*
X184051000Y-124134660D01*
X184047329Y-124171934D01*
X184038246Y-124201877D01*
X184023500Y-124229465D01*
X184003651Y-124253651D01*
X183979465Y-124273500D01*
X183951877Y-124288246D01*
X183921934Y-124297329D01*
X183884660Y-124301000D01*
X179715340Y-124301000D01*
X179678066Y-124297329D01*
X179648123Y-124288246D01*
X179620535Y-124273500D01*
X179596349Y-124253651D01*
X179576500Y-124229465D01*
X179561754Y-124201877D01*
X179552671Y-124171934D01*
X179549000Y-124134660D01*
X179549000Y-121865340D01*
X179552671Y-121828066D01*
X179561754Y-121798123D01*
X179576500Y-121770535D01*
X179596349Y-121746349D01*
X179620535Y-121726500D01*
X179648123Y-121711754D01*
X179678066Y-121702671D01*
X179715340Y-121699000D01*
X183884660Y-121699000D01*
X183921934Y-121702671D01*
X183921934Y-121702671D01*
G37*
G36*
X199088639Y-122870170D02*
G01*
X199212573Y-122921505D01*
X199212574Y-122921506D01*
X199324112Y-122996033D01*
X199418967Y-123090888D01*
X199418968Y-123090890D01*
X199493495Y-123202427D01*
X199544830Y-123326361D01*
X199571000Y-123457926D01*
X199571000Y-123592074D01*
X199544830Y-123723639D01*
X199493495Y-123847573D01*
X199493494Y-123847574D01*
X199418967Y-123959112D01*
X199324112Y-124053967D01*
X199267964Y-124091484D01*
X199212573Y-124128495D01*
X199088639Y-124179830D01*
X198957074Y-124206000D01*
X198822926Y-124206000D01*
X198691361Y-124179830D01*
X198567427Y-124128495D01*
X198512036Y-124091484D01*
X198455888Y-124053967D01*
X198361033Y-123959112D01*
X198286506Y-123847574D01*
X198286505Y-123847573D01*
X198235170Y-123723639D01*
X198209000Y-123592074D01*
X198209000Y-123457926D01*
X198235170Y-123326361D01*
X198286505Y-123202427D01*
X198361032Y-123090890D01*
X198361033Y-123090888D01*
X198455888Y-122996033D01*
X198567426Y-122921506D01*
X198567427Y-122921505D01*
X198691361Y-122870170D01*
X198822926Y-122844000D01*
X198957074Y-122844000D01*
X199088639Y-122870170D01*
X199088639Y-122870170D01*
G37*
G36*
X200993639Y-122870170D02*
G01*
X201117573Y-122921505D01*
X201117574Y-122921506D01*
X201229112Y-122996033D01*
X201323967Y-123090888D01*
X201323968Y-123090890D01*
X201398495Y-123202427D01*
X201449830Y-123326361D01*
X201476000Y-123457926D01*
X201476000Y-123592074D01*
X201449830Y-123723639D01*
X201398495Y-123847573D01*
X201398494Y-123847574D01*
X201323967Y-123959112D01*
X201229112Y-124053967D01*
X201172964Y-124091484D01*
X201117573Y-124128495D01*
X200993639Y-124179830D01*
X200862074Y-124206000D01*
X200727926Y-124206000D01*
X200596361Y-124179830D01*
X200472427Y-124128495D01*
X200417036Y-124091484D01*
X200360888Y-124053967D01*
X200266033Y-123959112D01*
X200191506Y-123847574D01*
X200191505Y-123847573D01*
X200140170Y-123723639D01*
X200114000Y-123592074D01*
X200114000Y-123457926D01*
X200140170Y-123326361D01*
X200191505Y-123202427D01*
X200266032Y-123090890D01*
X200266033Y-123090888D01*
X200360888Y-122996033D01*
X200472426Y-122921506D01*
X200472427Y-122921505D01*
X200596361Y-122870170D01*
X200727926Y-122844000D01*
X200862074Y-122844000D01*
X200993639Y-122870170D01*
X200993639Y-122870170D01*
G37*
G36*
X202898639Y-122870170D02*
G01*
X203022573Y-122921505D01*
X203022574Y-122921506D01*
X203134112Y-122996033D01*
X203228967Y-123090888D01*
X203228968Y-123090890D01*
X203303495Y-123202427D01*
X203354830Y-123326361D01*
X203381000Y-123457926D01*
X203381000Y-123592074D01*
X203354830Y-123723639D01*
X203303495Y-123847573D01*
X203303494Y-123847574D01*
X203228967Y-123959112D01*
X203134112Y-124053967D01*
X203077964Y-124091484D01*
X203022573Y-124128495D01*
X202898639Y-124179830D01*
X202767074Y-124206000D01*
X202632926Y-124206000D01*
X202501361Y-124179830D01*
X202377427Y-124128495D01*
X202322036Y-124091484D01*
X202265888Y-124053967D01*
X202171033Y-123959112D01*
X202096506Y-123847574D01*
X202096505Y-123847573D01*
X202045170Y-123723639D01*
X202019000Y-123592074D01*
X202019000Y-123457926D01*
X202045170Y-123326361D01*
X202096505Y-123202427D01*
X202171032Y-123090890D01*
X202171033Y-123090888D01*
X202265888Y-122996033D01*
X202377426Y-122921506D01*
X202377427Y-122921505D01*
X202501361Y-122870170D01*
X202632926Y-122844000D01*
X202767074Y-122844000D01*
X202898639Y-122870170D01*
X202898639Y-122870170D01*
G37*
G36*
X104255040Y-120217825D02*
G01*
X104500280Y-120292218D01*
X104726294Y-120413025D01*
X104777899Y-120455376D01*
X104924397Y-120575603D01*
X105044624Y-120722101D01*
X105086975Y-120773706D01*
X105207782Y-120999720D01*
X105282175Y-121244960D01*
X105301000Y-121436095D01*
X105301000Y-122563905D01*
X105282175Y-122755040D01*
X105209071Y-122996032D01*
X105207781Y-123000282D01*
X105099733Y-123202427D01*
X105086975Y-123226294D01*
X104924396Y-123424396D01*
X104726293Y-123586975D01*
X104500279Y-123707782D01*
X104255039Y-123782175D01*
X104000000Y-123807294D01*
X103744960Y-123782175D01*
X103499720Y-123707782D01*
X103397486Y-123653137D01*
X103273707Y-123586976D01*
X103075604Y-123424396D01*
X102913026Y-123226294D01*
X102913025Y-123226293D01*
X102792218Y-123000279D01*
X102717825Y-122755039D01*
X102699000Y-122563904D01*
X102699000Y-121436095D01*
X102717825Y-121244960D01*
X102792218Y-120999720D01*
X102827346Y-120934000D01*
X102913024Y-120773707D01*
X103075604Y-120575604D01*
X103186805Y-120484344D01*
X103273707Y-120413025D01*
X103499721Y-120292218D01*
X103744961Y-120217825D01*
X104000000Y-120192706D01*
X104255040Y-120217825D01*
X104255040Y-120217825D01*
G37*
G36*
X109603097Y-120954069D02*
G01*
X109706032Y-120964207D01*
X109904146Y-121024305D01*
X109904149Y-121024306D01*
X110000975Y-121076061D01*
X110086729Y-121121897D01*
X110246765Y-121253235D01*
X110378103Y-121413271D01*
X110423939Y-121499025D01*
X110475694Y-121595851D01*
X110475695Y-121595854D01*
X110535793Y-121793968D01*
X110556085Y-122000000D01*
X110535793Y-122206032D01*
X110475695Y-122404146D01*
X110475694Y-122404149D01*
X110423939Y-122500975D01*
X110378103Y-122586729D01*
X110246765Y-122746765D01*
X110086729Y-122878103D01*
X110005529Y-122921505D01*
X109904149Y-122975694D01*
X109904146Y-122975695D01*
X109706032Y-123035793D01*
X109603097Y-123045931D01*
X109551631Y-123051000D01*
X107448369Y-123051000D01*
X107396903Y-123045931D01*
X107293968Y-123035793D01*
X107095854Y-122975695D01*
X107095851Y-122975694D01*
X106994471Y-122921505D01*
X106913271Y-122878103D01*
X106753235Y-122746765D01*
X106621897Y-122586729D01*
X106576061Y-122500975D01*
X106524306Y-122404149D01*
X106524305Y-122404146D01*
X106464207Y-122206032D01*
X106443915Y-122000000D01*
X106464207Y-121793968D01*
X106524305Y-121595854D01*
X106524306Y-121595851D01*
X106576061Y-121499025D01*
X106621897Y-121413271D01*
X106753235Y-121253235D01*
X106913271Y-121121897D01*
X106999025Y-121076061D01*
X107095851Y-121024306D01*
X107095854Y-121024305D01*
X107293968Y-120964207D01*
X107396903Y-120954069D01*
X107448369Y-120949000D01*
X109551631Y-120949000D01*
X109603097Y-120954069D01*
X109603097Y-120954069D01*
G37*
G36*
X199088639Y-120960170D02*
G01*
X199212573Y-121011505D01*
X199212574Y-121011506D01*
X199324112Y-121086033D01*
X199418967Y-121180888D01*
X199418968Y-121180890D01*
X199493495Y-121292427D01*
X199544830Y-121416361D01*
X199571000Y-121547926D01*
X199571000Y-121682074D01*
X199544830Y-121813639D01*
X199493495Y-121937573D01*
X199493494Y-121937574D01*
X199418967Y-122049112D01*
X199324112Y-122143967D01*
X199267964Y-122181484D01*
X199212573Y-122218495D01*
X199088639Y-122269830D01*
X198957074Y-122296000D01*
X198822926Y-122296000D01*
X198691361Y-122269830D01*
X198567427Y-122218495D01*
X198512036Y-122181484D01*
X198455888Y-122143967D01*
X198361033Y-122049112D01*
X198286506Y-121937574D01*
X198286505Y-121937573D01*
X198235170Y-121813639D01*
X198209000Y-121682074D01*
X198209000Y-121547926D01*
X198235170Y-121416361D01*
X198286505Y-121292427D01*
X198361032Y-121180890D01*
X198361033Y-121180888D01*
X198455888Y-121086033D01*
X198567426Y-121011506D01*
X198567427Y-121011505D01*
X198691361Y-120960170D01*
X198822926Y-120934000D01*
X198957074Y-120934000D01*
X199088639Y-120960170D01*
X199088639Y-120960170D01*
G37*
G36*
X200993639Y-120960170D02*
G01*
X201117573Y-121011505D01*
X201117574Y-121011506D01*
X201229112Y-121086033D01*
X201323967Y-121180888D01*
X201323968Y-121180890D01*
X201398495Y-121292427D01*
X201449830Y-121416361D01*
X201476000Y-121547926D01*
X201476000Y-121682074D01*
X201449830Y-121813639D01*
X201398495Y-121937573D01*
X201398494Y-121937574D01*
X201323967Y-122049112D01*
X201229112Y-122143967D01*
X201172964Y-122181484D01*
X201117573Y-122218495D01*
X200993639Y-122269830D01*
X200862074Y-122296000D01*
X200727926Y-122296000D01*
X200596361Y-122269830D01*
X200472427Y-122218495D01*
X200417036Y-122181484D01*
X200360888Y-122143967D01*
X200266033Y-122049112D01*
X200191506Y-121937574D01*
X200191505Y-121937573D01*
X200140170Y-121813639D01*
X200114000Y-121682074D01*
X200114000Y-121547926D01*
X200140170Y-121416361D01*
X200191505Y-121292427D01*
X200266032Y-121180890D01*
X200266033Y-121180888D01*
X200360888Y-121086033D01*
X200472426Y-121011506D01*
X200472427Y-121011505D01*
X200596361Y-120960170D01*
X200727926Y-120934000D01*
X200862074Y-120934000D01*
X200993639Y-120960170D01*
X200993639Y-120960170D01*
G37*
G36*
X202898639Y-120960170D02*
G01*
X203022573Y-121011505D01*
X203022574Y-121011506D01*
X203134112Y-121086033D01*
X203228967Y-121180888D01*
X203228968Y-121180890D01*
X203303495Y-121292427D01*
X203354830Y-121416361D01*
X203381000Y-121547926D01*
X203381000Y-121682074D01*
X203354830Y-121813639D01*
X203303495Y-121937573D01*
X203303494Y-121937574D01*
X203228967Y-122049112D01*
X203134112Y-122143967D01*
X203077964Y-122181484D01*
X203022573Y-122218495D01*
X202898639Y-122269830D01*
X202767074Y-122296000D01*
X202632926Y-122296000D01*
X202501361Y-122269830D01*
X202377427Y-122218495D01*
X202322036Y-122181484D01*
X202265888Y-122143967D01*
X202171033Y-122049112D01*
X202096506Y-121937574D01*
X202096505Y-121937573D01*
X202045170Y-121813639D01*
X202019000Y-121682074D01*
X202019000Y-121547926D01*
X202045170Y-121416361D01*
X202096505Y-121292427D01*
X202171032Y-121180890D01*
X202171033Y-121180888D01*
X202265888Y-121086033D01*
X202377426Y-121011506D01*
X202377427Y-121011505D01*
X202501361Y-120960170D01*
X202632926Y-120934000D01*
X202767074Y-120934000D01*
X202898639Y-120960170D01*
X202898639Y-120960170D01*
G37*
G36*
X202898639Y-119050170D02*
G01*
X203022573Y-119101505D01*
X203022574Y-119101506D01*
X203134112Y-119176033D01*
X203228967Y-119270888D01*
X203228968Y-119270890D01*
X203303495Y-119382427D01*
X203354830Y-119506361D01*
X203381000Y-119637926D01*
X203381000Y-119772074D01*
X203354830Y-119903639D01*
X203303495Y-120027573D01*
X203303494Y-120027574D01*
X203228967Y-120139112D01*
X203134112Y-120233967D01*
X203077964Y-120271484D01*
X203022573Y-120308495D01*
X202898639Y-120359830D01*
X202767074Y-120386000D01*
X202632926Y-120386000D01*
X202501361Y-120359830D01*
X202377427Y-120308495D01*
X202322036Y-120271484D01*
X202265888Y-120233967D01*
X202171033Y-120139112D01*
X202096506Y-120027574D01*
X202096505Y-120027573D01*
X202045170Y-119903639D01*
X202019000Y-119772074D01*
X202019000Y-119637926D01*
X202045170Y-119506361D01*
X202096505Y-119382427D01*
X202171032Y-119270890D01*
X202171033Y-119270888D01*
X202265888Y-119176033D01*
X202377426Y-119101506D01*
X202377427Y-119101505D01*
X202501361Y-119050170D01*
X202632926Y-119024000D01*
X202767074Y-119024000D01*
X202898639Y-119050170D01*
X202898639Y-119050170D01*
G37*
G36*
X199088639Y-119050170D02*
G01*
X199212573Y-119101505D01*
X199212574Y-119101506D01*
X199324112Y-119176033D01*
X199418967Y-119270888D01*
X199418968Y-119270890D01*
X199493495Y-119382427D01*
X199544830Y-119506361D01*
X199571000Y-119637926D01*
X199571000Y-119772074D01*
X199544830Y-119903639D01*
X199493495Y-120027573D01*
X199493494Y-120027574D01*
X199418967Y-120139112D01*
X199324112Y-120233967D01*
X199267964Y-120271484D01*
X199212573Y-120308495D01*
X199088639Y-120359830D01*
X198957074Y-120386000D01*
X198822926Y-120386000D01*
X198691361Y-120359830D01*
X198567427Y-120308495D01*
X198512036Y-120271484D01*
X198455888Y-120233967D01*
X198361033Y-120139112D01*
X198286506Y-120027574D01*
X198286505Y-120027573D01*
X198235170Y-119903639D01*
X198209000Y-119772074D01*
X198209000Y-119637926D01*
X198235170Y-119506361D01*
X198286505Y-119382427D01*
X198361032Y-119270890D01*
X198361033Y-119270888D01*
X198455888Y-119176033D01*
X198567426Y-119101506D01*
X198567427Y-119101505D01*
X198691361Y-119050170D01*
X198822926Y-119024000D01*
X198957074Y-119024000D01*
X199088639Y-119050170D01*
X199088639Y-119050170D01*
G37*
G36*
X200993639Y-119050170D02*
G01*
X201117573Y-119101505D01*
X201117574Y-119101506D01*
X201229112Y-119176033D01*
X201323967Y-119270888D01*
X201323968Y-119270890D01*
X201398495Y-119382427D01*
X201449830Y-119506361D01*
X201476000Y-119637926D01*
X201476000Y-119772074D01*
X201449830Y-119903639D01*
X201398495Y-120027573D01*
X201398494Y-120027574D01*
X201323967Y-120139112D01*
X201229112Y-120233967D01*
X201172964Y-120271484D01*
X201117573Y-120308495D01*
X200993639Y-120359830D01*
X200862074Y-120386000D01*
X200727926Y-120386000D01*
X200596361Y-120359830D01*
X200472427Y-120308495D01*
X200417036Y-120271484D01*
X200360888Y-120233967D01*
X200266033Y-120139112D01*
X200191506Y-120027574D01*
X200191505Y-120027573D01*
X200140170Y-119903639D01*
X200114000Y-119772074D01*
X200114000Y-119637926D01*
X200140170Y-119506361D01*
X200191505Y-119382427D01*
X200266032Y-119270890D01*
X200266033Y-119270888D01*
X200360888Y-119176033D01*
X200472426Y-119101506D01*
X200472427Y-119101505D01*
X200596361Y-119050170D01*
X200727926Y-119024000D01*
X200862074Y-119024000D01*
X200993639Y-119050170D01*
X200993639Y-119050170D01*
G37*
G36*
X101152585Y-116228802D02*
G01*
X101302410Y-116258604D01*
X101584674Y-116375521D01*
X101838705Y-116545259D01*
X102054741Y-116761295D01*
X102224479Y-117015326D01*
X102341396Y-117297590D01*
X102401000Y-117597240D01*
X102401000Y-117902760D01*
X102341396Y-118202410D01*
X102224479Y-118484674D01*
X102054741Y-118738705D01*
X101838705Y-118954741D01*
X101584674Y-119124479D01*
X101302410Y-119241396D01*
X101154143Y-119270888D01*
X101002761Y-119301000D01*
X100697239Y-119301000D01*
X100545857Y-119270888D01*
X100397590Y-119241396D01*
X100115326Y-119124479D01*
X99861295Y-118954741D01*
X99645259Y-118738705D01*
X99475521Y-118484674D01*
X99358604Y-118202410D01*
X99299000Y-117902760D01*
X99299000Y-117597240D01*
X99358604Y-117297590D01*
X99475521Y-117015326D01*
X99645259Y-116761295D01*
X99861295Y-116545259D01*
X100115326Y-116375521D01*
X100397590Y-116258604D01*
X100547415Y-116228802D01*
X100697239Y-116199000D01*
X101002761Y-116199000D01*
X101152585Y-116228802D01*
X101152585Y-116228802D01*
G37*
G36*
X200993639Y-117140170D02*
G01*
X201117573Y-117191505D01*
X201117574Y-117191506D01*
X201229112Y-117266033D01*
X201323967Y-117360888D01*
X201323968Y-117360890D01*
X201398495Y-117472427D01*
X201449830Y-117596361D01*
X201476000Y-117727926D01*
X201476000Y-117862074D01*
X201449830Y-117993639D01*
X201398495Y-118117573D01*
X201398494Y-118117574D01*
X201323967Y-118229112D01*
X201229112Y-118323967D01*
X201172964Y-118361484D01*
X201117573Y-118398495D01*
X200993639Y-118449830D01*
X200862074Y-118476000D01*
X200727926Y-118476000D01*
X200596361Y-118449830D01*
X200472427Y-118398495D01*
X200417036Y-118361484D01*
X200360888Y-118323967D01*
X200266033Y-118229112D01*
X200191506Y-118117574D01*
X200191505Y-118117573D01*
X200140170Y-117993639D01*
X200114000Y-117862074D01*
X200114000Y-117727926D01*
X200140170Y-117596361D01*
X200191505Y-117472427D01*
X200266032Y-117360890D01*
X200266033Y-117360888D01*
X200360888Y-117266033D01*
X200472426Y-117191506D01*
X200472427Y-117191505D01*
X200596361Y-117140170D01*
X200727926Y-117114000D01*
X200862074Y-117114000D01*
X200993639Y-117140170D01*
X200993639Y-117140170D01*
G37*
G36*
X202898639Y-117140170D02*
G01*
X203022573Y-117191505D01*
X203022574Y-117191506D01*
X203134112Y-117266033D01*
X203228967Y-117360888D01*
X203228968Y-117360890D01*
X203303495Y-117472427D01*
X203354830Y-117596361D01*
X203381000Y-117727926D01*
X203381000Y-117862074D01*
X203354830Y-117993639D01*
X203303495Y-118117573D01*
X203303494Y-118117574D01*
X203228967Y-118229112D01*
X203134112Y-118323967D01*
X203077964Y-118361484D01*
X203022573Y-118398495D01*
X202898639Y-118449830D01*
X202767074Y-118476000D01*
X202632926Y-118476000D01*
X202501361Y-118449830D01*
X202377427Y-118398495D01*
X202322036Y-118361484D01*
X202265888Y-118323967D01*
X202171033Y-118229112D01*
X202096506Y-118117574D01*
X202096505Y-118117573D01*
X202045170Y-117993639D01*
X202019000Y-117862074D01*
X202019000Y-117727926D01*
X202045170Y-117596361D01*
X202096505Y-117472427D01*
X202171032Y-117360890D01*
X202171033Y-117360888D01*
X202265888Y-117266033D01*
X202377426Y-117191506D01*
X202377427Y-117191505D01*
X202501361Y-117140170D01*
X202632926Y-117114000D01*
X202767074Y-117114000D01*
X202898639Y-117140170D01*
X202898639Y-117140170D01*
G37*
G36*
X199088639Y-117140170D02*
G01*
X199212573Y-117191505D01*
X199212574Y-117191506D01*
X199324112Y-117266033D01*
X199418967Y-117360888D01*
X199418968Y-117360890D01*
X199493495Y-117472427D01*
X199544830Y-117596361D01*
X199571000Y-117727926D01*
X199571000Y-117862074D01*
X199544830Y-117993639D01*
X199493495Y-118117573D01*
X199493494Y-118117574D01*
X199418967Y-118229112D01*
X199324112Y-118323967D01*
X199267964Y-118361484D01*
X199212573Y-118398495D01*
X199088639Y-118449830D01*
X198957074Y-118476000D01*
X198822926Y-118476000D01*
X198691361Y-118449830D01*
X198567427Y-118398495D01*
X198512036Y-118361484D01*
X198455888Y-118323967D01*
X198361033Y-118229112D01*
X198286506Y-118117574D01*
X198286505Y-118117573D01*
X198235170Y-117993639D01*
X198209000Y-117862074D01*
X198209000Y-117727926D01*
X198235170Y-117596361D01*
X198286505Y-117472427D01*
X198361032Y-117360890D01*
X198361033Y-117360888D01*
X198455888Y-117266033D01*
X198567426Y-117191506D01*
X198567427Y-117191505D01*
X198691361Y-117140170D01*
X198822926Y-117114000D01*
X198957074Y-117114000D01*
X199088639Y-117140170D01*
X199088639Y-117140170D01*
G37*
G36*
X202898639Y-115230170D02*
G01*
X203022573Y-115281505D01*
X203077964Y-115318516D01*
X203134112Y-115356033D01*
X203228967Y-115450888D01*
X203228968Y-115450890D01*
X203303495Y-115562427D01*
X203354830Y-115686361D01*
X203381000Y-115817926D01*
X203381000Y-115952074D01*
X203354830Y-116083639D01*
X203303495Y-116207573D01*
X203303494Y-116207574D01*
X203228967Y-116319112D01*
X203134112Y-116413967D01*
X203077964Y-116451484D01*
X203022573Y-116488495D01*
X202898639Y-116539830D01*
X202767074Y-116566000D01*
X202632926Y-116566000D01*
X202501361Y-116539830D01*
X202377427Y-116488495D01*
X202322036Y-116451484D01*
X202265888Y-116413967D01*
X202171033Y-116319112D01*
X202096506Y-116207574D01*
X202096505Y-116207573D01*
X202045170Y-116083639D01*
X202019000Y-115952074D01*
X202019000Y-115817926D01*
X202045170Y-115686361D01*
X202096505Y-115562427D01*
X202171032Y-115450890D01*
X202171033Y-115450888D01*
X202265888Y-115356033D01*
X202322036Y-115318516D01*
X202377427Y-115281505D01*
X202501361Y-115230170D01*
X202632926Y-115204000D01*
X202767074Y-115204000D01*
X202898639Y-115230170D01*
X202898639Y-115230170D01*
G37*
G36*
X200993639Y-115230170D02*
G01*
X201117573Y-115281505D01*
X201172964Y-115318516D01*
X201229112Y-115356033D01*
X201323967Y-115450888D01*
X201323968Y-115450890D01*
X201398495Y-115562427D01*
X201449830Y-115686361D01*
X201476000Y-115817926D01*
X201476000Y-115952074D01*
X201449830Y-116083639D01*
X201398495Y-116207573D01*
X201398494Y-116207574D01*
X201323967Y-116319112D01*
X201229112Y-116413967D01*
X201172964Y-116451484D01*
X201117573Y-116488495D01*
X200993639Y-116539830D01*
X200862074Y-116566000D01*
X200727926Y-116566000D01*
X200596361Y-116539830D01*
X200472427Y-116488495D01*
X200417036Y-116451484D01*
X200360888Y-116413967D01*
X200266033Y-116319112D01*
X200191506Y-116207574D01*
X200191505Y-116207573D01*
X200140170Y-116083639D01*
X200114000Y-115952074D01*
X200114000Y-115817926D01*
X200140170Y-115686361D01*
X200191505Y-115562427D01*
X200266032Y-115450890D01*
X200266033Y-115450888D01*
X200360888Y-115356033D01*
X200417036Y-115318516D01*
X200472427Y-115281505D01*
X200596361Y-115230170D01*
X200727926Y-115204000D01*
X200862074Y-115204000D01*
X200993639Y-115230170D01*
X200993639Y-115230170D01*
G37*
G36*
X199088639Y-115230170D02*
G01*
X199212573Y-115281505D01*
X199267964Y-115318516D01*
X199324112Y-115356033D01*
X199418967Y-115450888D01*
X199418968Y-115450890D01*
X199493495Y-115562427D01*
X199544830Y-115686361D01*
X199571000Y-115817926D01*
X199571000Y-115952074D01*
X199544830Y-116083639D01*
X199493495Y-116207573D01*
X199493494Y-116207574D01*
X199418967Y-116319112D01*
X199324112Y-116413967D01*
X199267964Y-116451484D01*
X199212573Y-116488495D01*
X199088639Y-116539830D01*
X198957074Y-116566000D01*
X198822926Y-116566000D01*
X198691361Y-116539830D01*
X198567427Y-116488495D01*
X198512036Y-116451484D01*
X198455888Y-116413967D01*
X198361033Y-116319112D01*
X198286506Y-116207574D01*
X198286505Y-116207573D01*
X198235170Y-116083639D01*
X198209000Y-115952074D01*
X198209000Y-115817926D01*
X198235170Y-115686361D01*
X198286505Y-115562427D01*
X198361032Y-115450890D01*
X198361033Y-115450888D01*
X198455888Y-115356033D01*
X198512036Y-115318516D01*
X198567427Y-115281505D01*
X198691361Y-115230170D01*
X198822926Y-115204000D01*
X198957074Y-115204000D01*
X199088639Y-115230170D01*
X199088639Y-115230170D01*
G37*
G36*
X126364499Y-114303445D02*
G01*
X126401995Y-114314820D01*
X126436554Y-114333292D01*
X126466847Y-114358153D01*
X126491708Y-114388446D01*
X126510180Y-114423005D01*
X126521555Y-114460501D01*
X126526000Y-114505638D01*
X126526000Y-115244362D01*
X126521555Y-115289499D01*
X126510180Y-115326995D01*
X126491708Y-115361554D01*
X126466847Y-115391847D01*
X126436554Y-115416708D01*
X126401995Y-115435180D01*
X126364499Y-115446555D01*
X126319362Y-115451000D01*
X125680638Y-115451000D01*
X125635501Y-115446555D01*
X125598005Y-115435180D01*
X125563446Y-115416708D01*
X125533153Y-115391847D01*
X125508292Y-115361554D01*
X125489820Y-115326995D01*
X125478445Y-115289499D01*
X125474000Y-115244362D01*
X125474000Y-114505638D01*
X125478445Y-114460501D01*
X125489820Y-114423005D01*
X125508292Y-114388446D01*
X125533153Y-114358153D01*
X125563446Y-114333292D01*
X125598005Y-114314820D01*
X125635501Y-114303445D01*
X125680638Y-114299000D01*
X126319362Y-114299000D01*
X126364499Y-114303445D01*
X126364499Y-114303445D01*
G37*
G36*
X200993639Y-113320170D02*
G01*
X201117573Y-113371505D01*
X201117574Y-113371506D01*
X201229112Y-113446033D01*
X201323967Y-113540888D01*
X201323968Y-113540890D01*
X201398495Y-113652427D01*
X201449830Y-113776361D01*
X201476000Y-113907926D01*
X201476000Y-114042074D01*
X201449830Y-114173639D01*
X201398495Y-114297573D01*
X201374628Y-114333292D01*
X201323967Y-114409112D01*
X201229112Y-114503967D01*
X201172964Y-114541484D01*
X201117573Y-114578495D01*
X200993639Y-114629830D01*
X200862074Y-114656000D01*
X200727926Y-114656000D01*
X200596361Y-114629830D01*
X200472427Y-114578495D01*
X200417036Y-114541484D01*
X200360888Y-114503967D01*
X200266033Y-114409112D01*
X200215372Y-114333292D01*
X200191505Y-114297573D01*
X200140170Y-114173639D01*
X200114000Y-114042074D01*
X200114000Y-113907926D01*
X200140170Y-113776361D01*
X200191505Y-113652427D01*
X200266032Y-113540890D01*
X200266033Y-113540888D01*
X200360888Y-113446033D01*
X200472426Y-113371506D01*
X200472427Y-113371505D01*
X200596361Y-113320170D01*
X200727926Y-113294000D01*
X200862074Y-113294000D01*
X200993639Y-113320170D01*
X200993639Y-113320170D01*
G37*
G36*
X199088639Y-113320170D02*
G01*
X199212573Y-113371505D01*
X199212574Y-113371506D01*
X199324112Y-113446033D01*
X199418967Y-113540888D01*
X199418968Y-113540890D01*
X199493495Y-113652427D01*
X199544830Y-113776361D01*
X199571000Y-113907926D01*
X199571000Y-114042074D01*
X199544830Y-114173639D01*
X199493495Y-114297573D01*
X199469628Y-114333292D01*
X199418967Y-114409112D01*
X199324112Y-114503967D01*
X199267964Y-114541484D01*
X199212573Y-114578495D01*
X199088639Y-114629830D01*
X198957074Y-114656000D01*
X198822926Y-114656000D01*
X198691361Y-114629830D01*
X198567427Y-114578495D01*
X198512036Y-114541484D01*
X198455888Y-114503967D01*
X198361033Y-114409112D01*
X198310372Y-114333292D01*
X198286505Y-114297573D01*
X198235170Y-114173639D01*
X198209000Y-114042074D01*
X198209000Y-113907926D01*
X198235170Y-113776361D01*
X198286505Y-113652427D01*
X198361032Y-113540890D01*
X198361033Y-113540888D01*
X198455888Y-113446033D01*
X198567426Y-113371506D01*
X198567427Y-113371505D01*
X198691361Y-113320170D01*
X198822926Y-113294000D01*
X198957074Y-113294000D01*
X199088639Y-113320170D01*
X199088639Y-113320170D01*
G37*
G36*
X202898639Y-113320170D02*
G01*
X203022573Y-113371505D01*
X203022574Y-113371506D01*
X203134112Y-113446033D01*
X203228967Y-113540888D01*
X203228968Y-113540890D01*
X203303495Y-113652427D01*
X203354830Y-113776361D01*
X203381000Y-113907926D01*
X203381000Y-114042074D01*
X203354830Y-114173639D01*
X203303495Y-114297573D01*
X203279628Y-114333292D01*
X203228967Y-114409112D01*
X203134112Y-114503967D01*
X203077964Y-114541484D01*
X203022573Y-114578495D01*
X202898639Y-114629830D01*
X202767074Y-114656000D01*
X202632926Y-114656000D01*
X202501361Y-114629830D01*
X202377427Y-114578495D01*
X202322036Y-114541484D01*
X202265888Y-114503967D01*
X202171033Y-114409112D01*
X202120372Y-114333292D01*
X202096505Y-114297573D01*
X202045170Y-114173639D01*
X202019000Y-114042074D01*
X202019000Y-113907926D01*
X202045170Y-113776361D01*
X202096505Y-113652427D01*
X202171032Y-113540890D01*
X202171033Y-113540888D01*
X202265888Y-113446033D01*
X202377426Y-113371506D01*
X202377427Y-113371505D01*
X202501361Y-113320170D01*
X202632926Y-113294000D01*
X202767074Y-113294000D01*
X202898639Y-113320170D01*
X202898639Y-113320170D01*
G37*
G36*
X101152585Y-110728802D02*
G01*
X101302410Y-110758604D01*
X101584674Y-110875521D01*
X101838705Y-111045259D01*
X102054741Y-111261295D01*
X102224479Y-111515326D01*
X102341396Y-111797590D01*
X102341396Y-111797591D01*
X102391809Y-112051031D01*
X102401000Y-112097240D01*
X102401000Y-112402760D01*
X102341396Y-112702410D01*
X102224479Y-112984674D01*
X102054741Y-113238705D01*
X101838705Y-113454741D01*
X101584674Y-113624479D01*
X101302410Y-113741396D01*
X101152585Y-113771198D01*
X101002761Y-113801000D01*
X100697239Y-113801000D01*
X100547415Y-113771198D01*
X100397590Y-113741396D01*
X100115326Y-113624479D01*
X99861295Y-113454741D01*
X99645259Y-113238705D01*
X99475521Y-112984674D01*
X99358604Y-112702410D01*
X99299000Y-112402760D01*
X99299000Y-112097240D01*
X99308192Y-112051031D01*
X99358604Y-111797591D01*
X99358604Y-111797590D01*
X99475521Y-111515326D01*
X99645259Y-111261295D01*
X99861295Y-111045259D01*
X100115326Y-110875521D01*
X100397590Y-110758604D01*
X100547415Y-110728802D01*
X100697239Y-110699000D01*
X101002761Y-110699000D01*
X101152585Y-110728802D01*
X101152585Y-110728802D01*
G37*
G36*
X126364499Y-112553445D02*
G01*
X126401995Y-112564820D01*
X126436554Y-112583292D01*
X126466847Y-112608153D01*
X126491708Y-112638446D01*
X126510180Y-112673005D01*
X126521555Y-112710501D01*
X126526000Y-112755638D01*
X126526000Y-113494362D01*
X126521555Y-113539499D01*
X126510180Y-113576995D01*
X126491708Y-113611554D01*
X126466847Y-113641847D01*
X126436554Y-113666708D01*
X126401995Y-113685180D01*
X126364499Y-113696555D01*
X126319362Y-113701000D01*
X125680638Y-113701000D01*
X125635501Y-113696555D01*
X125598005Y-113685180D01*
X125563446Y-113666708D01*
X125533153Y-113641847D01*
X125508292Y-113611554D01*
X125489820Y-113576995D01*
X125478445Y-113539499D01*
X125474000Y-113494362D01*
X125474000Y-112755638D01*
X125478445Y-112710501D01*
X125489820Y-112673005D01*
X125508292Y-112638446D01*
X125533153Y-112608153D01*
X125563446Y-112583292D01*
X125598005Y-112564820D01*
X125635501Y-112553445D01*
X125680638Y-112549000D01*
X126319362Y-112549000D01*
X126364499Y-112553445D01*
X126364499Y-112553445D01*
G37*
G36*
X159789499Y-111978445D02*
G01*
X159826995Y-111989820D01*
X159861554Y-112008292D01*
X159891847Y-112033153D01*
X159916708Y-112063446D01*
X159935180Y-112098005D01*
X159946555Y-112135501D01*
X159951000Y-112180638D01*
X159951000Y-112819362D01*
X159946555Y-112864499D01*
X159935180Y-112901995D01*
X159916708Y-112936554D01*
X159891847Y-112966847D01*
X159861554Y-112991708D01*
X159826995Y-113010180D01*
X159789499Y-113021555D01*
X159744362Y-113026000D01*
X159005638Y-113026000D01*
X158960501Y-113021555D01*
X158923005Y-113010180D01*
X158888446Y-112991708D01*
X158858153Y-112966847D01*
X158833292Y-112936554D01*
X158814820Y-112901995D01*
X158803445Y-112864499D01*
X158799000Y-112819362D01*
X158799000Y-112180638D01*
X158803445Y-112135501D01*
X158814820Y-112098005D01*
X158833292Y-112063446D01*
X158858153Y-112033153D01*
X158888446Y-112008292D01*
X158923005Y-111989820D01*
X158960501Y-111978445D01*
X159005638Y-111974000D01*
X159744362Y-111974000D01*
X159789499Y-111978445D01*
X159789499Y-111978445D01*
G37*
G36*
X154039499Y-111978445D02*
G01*
X154076995Y-111989820D01*
X154111554Y-112008292D01*
X154141847Y-112033153D01*
X154166708Y-112063446D01*
X154185180Y-112098005D01*
X154196555Y-112135501D01*
X154201000Y-112180638D01*
X154201000Y-112819362D01*
X154196555Y-112864499D01*
X154185180Y-112901995D01*
X154166708Y-112936554D01*
X154141847Y-112966847D01*
X154111554Y-112991708D01*
X154076995Y-113010180D01*
X154039499Y-113021555D01*
X153994362Y-113026000D01*
X153255638Y-113026000D01*
X153210501Y-113021555D01*
X153173005Y-113010180D01*
X153138446Y-112991708D01*
X153108153Y-112966847D01*
X153083292Y-112936554D01*
X153064820Y-112901995D01*
X153053445Y-112864499D01*
X153049000Y-112819362D01*
X153049000Y-112180638D01*
X153053445Y-112135501D01*
X153064820Y-112098005D01*
X153083292Y-112063446D01*
X153108153Y-112033153D01*
X153138446Y-112008292D01*
X153173005Y-111989820D01*
X153210501Y-111978445D01*
X153255638Y-111974000D01*
X153994362Y-111974000D01*
X154039499Y-111978445D01*
X154039499Y-111978445D01*
G37*
G36*
X155789499Y-111978445D02*
G01*
X155826995Y-111989820D01*
X155861554Y-112008292D01*
X155891847Y-112033153D01*
X155916708Y-112063446D01*
X155935180Y-112098005D01*
X155946555Y-112135501D01*
X155951000Y-112180638D01*
X155951000Y-112819362D01*
X155946555Y-112864499D01*
X155935180Y-112901995D01*
X155916708Y-112936554D01*
X155891847Y-112966847D01*
X155861554Y-112991708D01*
X155826995Y-113010180D01*
X155789499Y-113021555D01*
X155744362Y-113026000D01*
X155005638Y-113026000D01*
X154960501Y-113021555D01*
X154923005Y-113010180D01*
X154888446Y-112991708D01*
X154858153Y-112966847D01*
X154833292Y-112936554D01*
X154814820Y-112901995D01*
X154803445Y-112864499D01*
X154799000Y-112819362D01*
X154799000Y-112180638D01*
X154803445Y-112135501D01*
X154814820Y-112098005D01*
X154833292Y-112063446D01*
X154858153Y-112033153D01*
X154888446Y-112008292D01*
X154923005Y-111989820D01*
X154960501Y-111978445D01*
X155005638Y-111974000D01*
X155744362Y-111974000D01*
X155789499Y-111978445D01*
X155789499Y-111978445D01*
G37*
G36*
X151789499Y-111978445D02*
G01*
X151826995Y-111989820D01*
X151861554Y-112008292D01*
X151891847Y-112033153D01*
X151916708Y-112063446D01*
X151935180Y-112098005D01*
X151946555Y-112135501D01*
X151951000Y-112180638D01*
X151951000Y-112819362D01*
X151946555Y-112864499D01*
X151935180Y-112901995D01*
X151916708Y-112936554D01*
X151891847Y-112966847D01*
X151861554Y-112991708D01*
X151826995Y-113010180D01*
X151789499Y-113021555D01*
X151744362Y-113026000D01*
X151005638Y-113026000D01*
X150960501Y-113021555D01*
X150923005Y-113010180D01*
X150888446Y-112991708D01*
X150858153Y-112966847D01*
X150833292Y-112936554D01*
X150814820Y-112901995D01*
X150803445Y-112864499D01*
X150799000Y-112819362D01*
X150799000Y-112180638D01*
X150803445Y-112135501D01*
X150814820Y-112098005D01*
X150833292Y-112063446D01*
X150858153Y-112033153D01*
X150888446Y-112008292D01*
X150923005Y-111989820D01*
X150960501Y-111978445D01*
X151005638Y-111974000D01*
X151744362Y-111974000D01*
X151789499Y-111978445D01*
X151789499Y-111978445D01*
G37*
G36*
X150039499Y-111978445D02*
G01*
X150076995Y-111989820D01*
X150111554Y-112008292D01*
X150141847Y-112033153D01*
X150166708Y-112063446D01*
X150185180Y-112098005D01*
X150196555Y-112135501D01*
X150201000Y-112180638D01*
X150201000Y-112819362D01*
X150196555Y-112864499D01*
X150185180Y-112901995D01*
X150166708Y-112936554D01*
X150141847Y-112966847D01*
X150111554Y-112991708D01*
X150076995Y-113010180D01*
X150039499Y-113021555D01*
X149994362Y-113026000D01*
X149255638Y-113026000D01*
X149210501Y-113021555D01*
X149173005Y-113010180D01*
X149138446Y-112991708D01*
X149108153Y-112966847D01*
X149083292Y-112936554D01*
X149064820Y-112901995D01*
X149053445Y-112864499D01*
X149049000Y-112819362D01*
X149049000Y-112180638D01*
X149053445Y-112135501D01*
X149064820Y-112098005D01*
X149083292Y-112063446D01*
X149108153Y-112033153D01*
X149138446Y-112008292D01*
X149173005Y-111989820D01*
X149210501Y-111978445D01*
X149255638Y-111974000D01*
X149994362Y-111974000D01*
X150039499Y-111978445D01*
X150039499Y-111978445D01*
G37*
G36*
X158039499Y-111978445D02*
G01*
X158076995Y-111989820D01*
X158111554Y-112008292D01*
X158141847Y-112033153D01*
X158166708Y-112063446D01*
X158185180Y-112098005D01*
X158196555Y-112135501D01*
X158201000Y-112180638D01*
X158201000Y-112819362D01*
X158196555Y-112864499D01*
X158185180Y-112901995D01*
X158166708Y-112936554D01*
X158141847Y-112966847D01*
X158111554Y-112991708D01*
X158076995Y-113010180D01*
X158039499Y-113021555D01*
X157994362Y-113026000D01*
X157255638Y-113026000D01*
X157210501Y-113021555D01*
X157173005Y-113010180D01*
X157138446Y-112991708D01*
X157108153Y-112966847D01*
X157083292Y-112936554D01*
X157064820Y-112901995D01*
X157053445Y-112864499D01*
X157049000Y-112819362D01*
X157049000Y-112180638D01*
X157053445Y-112135501D01*
X157064820Y-112098005D01*
X157083292Y-112063446D01*
X157108153Y-112033153D01*
X157138446Y-112008292D01*
X157173005Y-111989820D01*
X157210501Y-111978445D01*
X157255638Y-111974000D01*
X157994362Y-111974000D01*
X158039499Y-111978445D01*
X158039499Y-111978445D01*
G37*
G36*
X183921934Y-110202671D02*
G01*
X183951877Y-110211754D01*
X183979465Y-110226500D01*
X184003651Y-110246349D01*
X184023500Y-110270535D01*
X184038246Y-110298123D01*
X184047329Y-110328066D01*
X184051000Y-110365340D01*
X184051000Y-112634660D01*
X184047329Y-112671934D01*
X184038246Y-112701877D01*
X184023500Y-112729465D01*
X184003651Y-112753651D01*
X183979465Y-112773500D01*
X183951877Y-112788246D01*
X183921934Y-112797329D01*
X183884660Y-112801000D01*
X179715340Y-112801000D01*
X179678066Y-112797329D01*
X179648123Y-112788246D01*
X179620535Y-112773500D01*
X179596349Y-112753651D01*
X179576500Y-112729465D01*
X179561754Y-112701877D01*
X179552671Y-112671934D01*
X179549000Y-112634660D01*
X179549000Y-110365340D01*
X179552671Y-110328066D01*
X179561754Y-110298123D01*
X179576500Y-110270535D01*
X179596349Y-110246349D01*
X179620535Y-110226500D01*
X179648123Y-110211754D01*
X179678066Y-110202671D01*
X179715340Y-110199000D01*
X183884660Y-110199000D01*
X183921934Y-110202671D01*
X183921934Y-110202671D01*
G37*
G36*
X191321934Y-110202671D02*
G01*
X191351877Y-110211754D01*
X191379465Y-110226500D01*
X191403651Y-110246349D01*
X191423500Y-110270535D01*
X191438246Y-110298123D01*
X191447329Y-110328066D01*
X191451000Y-110365340D01*
X191451000Y-112634660D01*
X191447329Y-112671934D01*
X191438246Y-112701877D01*
X191423500Y-112729465D01*
X191403651Y-112753651D01*
X191379465Y-112773500D01*
X191351877Y-112788246D01*
X191321934Y-112797329D01*
X191284660Y-112801000D01*
X187115340Y-112801000D01*
X187078066Y-112797329D01*
X187048123Y-112788246D01*
X187020535Y-112773500D01*
X186996349Y-112753651D01*
X186976500Y-112729465D01*
X186961754Y-112701877D01*
X186952671Y-112671934D01*
X186949000Y-112634660D01*
X186949000Y-110365340D01*
X186952671Y-110328066D01*
X186961754Y-110298123D01*
X186976500Y-110270535D01*
X186996349Y-110246349D01*
X187020535Y-110226500D01*
X187048123Y-110211754D01*
X187078066Y-110202671D01*
X187115340Y-110199000D01*
X191284660Y-110199000D01*
X191321934Y-110202671D01*
X191321934Y-110202671D01*
G37*
G36*
X202898639Y-111410170D02*
G01*
X203022573Y-111461505D01*
X203052762Y-111481677D01*
X203134112Y-111536033D01*
X203228967Y-111630888D01*
X203228968Y-111630890D01*
X203303495Y-111742427D01*
X203354830Y-111866361D01*
X203381000Y-111997926D01*
X203381000Y-112132074D01*
X203354830Y-112263639D01*
X203303495Y-112387573D01*
X203266484Y-112442964D01*
X203228967Y-112499112D01*
X203134112Y-112593967D01*
X203112881Y-112608153D01*
X203022573Y-112668495D01*
X202898639Y-112719830D01*
X202767074Y-112746000D01*
X202632926Y-112746000D01*
X202501361Y-112719830D01*
X202377427Y-112668495D01*
X202287119Y-112608153D01*
X202265888Y-112593967D01*
X202171033Y-112499112D01*
X202133516Y-112442964D01*
X202096505Y-112387573D01*
X202045170Y-112263639D01*
X202019000Y-112132074D01*
X202019000Y-111997926D01*
X202045170Y-111866361D01*
X202096505Y-111742427D01*
X202171032Y-111630890D01*
X202171033Y-111630888D01*
X202265888Y-111536033D01*
X202347238Y-111481677D01*
X202377427Y-111461505D01*
X202501361Y-111410170D01*
X202632926Y-111384000D01*
X202767074Y-111384000D01*
X202898639Y-111410170D01*
X202898639Y-111410170D01*
G37*
G36*
X199088639Y-111410170D02*
G01*
X199212573Y-111461505D01*
X199242762Y-111481677D01*
X199324112Y-111536033D01*
X199418967Y-111630888D01*
X199418968Y-111630890D01*
X199493495Y-111742427D01*
X199544830Y-111866361D01*
X199571000Y-111997926D01*
X199571000Y-112132074D01*
X199544830Y-112263639D01*
X199493495Y-112387573D01*
X199456484Y-112442964D01*
X199418967Y-112499112D01*
X199324112Y-112593967D01*
X199302881Y-112608153D01*
X199212573Y-112668495D01*
X199088639Y-112719830D01*
X198957074Y-112746000D01*
X198822926Y-112746000D01*
X198691361Y-112719830D01*
X198567427Y-112668495D01*
X198477119Y-112608153D01*
X198455888Y-112593967D01*
X198361033Y-112499112D01*
X198323516Y-112442964D01*
X198286505Y-112387573D01*
X198235170Y-112263639D01*
X198209000Y-112132074D01*
X198209000Y-111997926D01*
X198235170Y-111866361D01*
X198286505Y-111742427D01*
X198361032Y-111630890D01*
X198361033Y-111630888D01*
X198455888Y-111536033D01*
X198537238Y-111481677D01*
X198567427Y-111461505D01*
X198691361Y-111410170D01*
X198822926Y-111384000D01*
X198957074Y-111384000D01*
X199088639Y-111410170D01*
X199088639Y-111410170D01*
G37*
G36*
X200993639Y-111410170D02*
G01*
X201117573Y-111461505D01*
X201147762Y-111481677D01*
X201229112Y-111536033D01*
X201323967Y-111630888D01*
X201323968Y-111630890D01*
X201398495Y-111742427D01*
X201449830Y-111866361D01*
X201476000Y-111997926D01*
X201476000Y-112132074D01*
X201449830Y-112263639D01*
X201398495Y-112387573D01*
X201361484Y-112442964D01*
X201323967Y-112499112D01*
X201229112Y-112593967D01*
X201207881Y-112608153D01*
X201117573Y-112668495D01*
X200993639Y-112719830D01*
X200862074Y-112746000D01*
X200727926Y-112746000D01*
X200596361Y-112719830D01*
X200472427Y-112668495D01*
X200382119Y-112608153D01*
X200360888Y-112593967D01*
X200266033Y-112499112D01*
X200228516Y-112442964D01*
X200191505Y-112387573D01*
X200140170Y-112263639D01*
X200114000Y-112132074D01*
X200114000Y-111997926D01*
X200140170Y-111866361D01*
X200191505Y-111742427D01*
X200266032Y-111630890D01*
X200266033Y-111630888D01*
X200360888Y-111536033D01*
X200442238Y-111481677D01*
X200472427Y-111461505D01*
X200596361Y-111410170D01*
X200727926Y-111384000D01*
X200862074Y-111384000D01*
X200993639Y-111410170D01*
X200993639Y-111410170D01*
G37*
G36*
X165789499Y-110478445D02*
G01*
X165826995Y-110489820D01*
X165861554Y-110508292D01*
X165891847Y-110533153D01*
X165916708Y-110563446D01*
X165935180Y-110598005D01*
X165946555Y-110635501D01*
X165951000Y-110680638D01*
X165951000Y-111319362D01*
X165946555Y-111364499D01*
X165935180Y-111401995D01*
X165916708Y-111436554D01*
X165891847Y-111466847D01*
X165861554Y-111491708D01*
X165826995Y-111510180D01*
X165789499Y-111521555D01*
X165744362Y-111526000D01*
X165005638Y-111526000D01*
X164960501Y-111521555D01*
X164923005Y-111510180D01*
X164888446Y-111491708D01*
X164858153Y-111466847D01*
X164833292Y-111436554D01*
X164814820Y-111401995D01*
X164803445Y-111364499D01*
X164799000Y-111319362D01*
X164799000Y-110680638D01*
X164803445Y-110635501D01*
X164814820Y-110598005D01*
X164833292Y-110563446D01*
X164858153Y-110533153D01*
X164888446Y-110508292D01*
X164923005Y-110489820D01*
X164960501Y-110478445D01*
X165005638Y-110474000D01*
X165744362Y-110474000D01*
X165789499Y-110478445D01*
X165789499Y-110478445D01*
G37*
G36*
X164039499Y-110478445D02*
G01*
X164076995Y-110489820D01*
X164111554Y-110508292D01*
X164141847Y-110533153D01*
X164166708Y-110563446D01*
X164185180Y-110598005D01*
X164196555Y-110635501D01*
X164201000Y-110680638D01*
X164201000Y-111319362D01*
X164196555Y-111364499D01*
X164185180Y-111401995D01*
X164166708Y-111436554D01*
X164141847Y-111466847D01*
X164111554Y-111491708D01*
X164076995Y-111510180D01*
X164039499Y-111521555D01*
X163994362Y-111526000D01*
X163255638Y-111526000D01*
X163210501Y-111521555D01*
X163173005Y-111510180D01*
X163138446Y-111491708D01*
X163108153Y-111466847D01*
X163083292Y-111436554D01*
X163064820Y-111401995D01*
X163053445Y-111364499D01*
X163049000Y-111319362D01*
X163049000Y-110680638D01*
X163053445Y-110635501D01*
X163064820Y-110598005D01*
X163083292Y-110563446D01*
X163108153Y-110533153D01*
X163138446Y-110508292D01*
X163173005Y-110489820D01*
X163210501Y-110478445D01*
X163255638Y-110474000D01*
X163994362Y-110474000D01*
X164039499Y-110478445D01*
X164039499Y-110478445D01*
G37*
G36*
X150039499Y-109978445D02*
G01*
X150076995Y-109989820D01*
X150111554Y-110008292D01*
X150141847Y-110033153D01*
X150166708Y-110063446D01*
X150185180Y-110098005D01*
X150196555Y-110135501D01*
X150201000Y-110180638D01*
X150201000Y-110819362D01*
X150196555Y-110864499D01*
X150185180Y-110901995D01*
X150166708Y-110936554D01*
X150141847Y-110966847D01*
X150111554Y-110991708D01*
X150076995Y-111010180D01*
X150039499Y-111021555D01*
X149994362Y-111026000D01*
X149255638Y-111026000D01*
X149210501Y-111021555D01*
X149173005Y-111010180D01*
X149138446Y-110991708D01*
X149108153Y-110966847D01*
X149083292Y-110936554D01*
X149064820Y-110901995D01*
X149053445Y-110864499D01*
X149049000Y-110819362D01*
X149049000Y-110180638D01*
X149053445Y-110135501D01*
X149064820Y-110098005D01*
X149083292Y-110063446D01*
X149108153Y-110033153D01*
X149138446Y-110008292D01*
X149173005Y-109989820D01*
X149210501Y-109978445D01*
X149255638Y-109974000D01*
X149994362Y-109974000D01*
X150039499Y-109978445D01*
X150039499Y-109978445D01*
G37*
G36*
X151789499Y-109978445D02*
G01*
X151826995Y-109989820D01*
X151861554Y-110008292D01*
X151891847Y-110033153D01*
X151916708Y-110063446D01*
X151935180Y-110098005D01*
X151946555Y-110135501D01*
X151951000Y-110180638D01*
X151951000Y-110819362D01*
X151946555Y-110864499D01*
X151935180Y-110901995D01*
X151916708Y-110936554D01*
X151891847Y-110966847D01*
X151861554Y-110991708D01*
X151826995Y-111010180D01*
X151789499Y-111021555D01*
X151744362Y-111026000D01*
X151005638Y-111026000D01*
X150960501Y-111021555D01*
X150923005Y-111010180D01*
X150888446Y-110991708D01*
X150858153Y-110966847D01*
X150833292Y-110936554D01*
X150814820Y-110901995D01*
X150803445Y-110864499D01*
X150799000Y-110819362D01*
X150799000Y-110180638D01*
X150803445Y-110135501D01*
X150814820Y-110098005D01*
X150833292Y-110063446D01*
X150858153Y-110033153D01*
X150888446Y-110008292D01*
X150923005Y-109989820D01*
X150960501Y-109978445D01*
X151005638Y-109974000D01*
X151744362Y-109974000D01*
X151789499Y-109978445D01*
X151789499Y-109978445D01*
G37*
G36*
X199088639Y-109500170D02*
G01*
X199212573Y-109551505D01*
X199212574Y-109551506D01*
X199324112Y-109626033D01*
X199418967Y-109720888D01*
X199418968Y-109720890D01*
X199493495Y-109832427D01*
X199544830Y-109956361D01*
X199571000Y-110087926D01*
X199571000Y-110222074D01*
X199544830Y-110353639D01*
X199493495Y-110477573D01*
X199493494Y-110477574D01*
X199418967Y-110589112D01*
X199324112Y-110683967D01*
X199301613Y-110699000D01*
X199212573Y-110758495D01*
X199088639Y-110809830D01*
X198957074Y-110836000D01*
X198822926Y-110836000D01*
X198691361Y-110809830D01*
X198567427Y-110758495D01*
X198478387Y-110699000D01*
X198455888Y-110683967D01*
X198361033Y-110589112D01*
X198286506Y-110477574D01*
X198286505Y-110477573D01*
X198235170Y-110353639D01*
X198209000Y-110222074D01*
X198209000Y-110087926D01*
X198235170Y-109956361D01*
X198286505Y-109832427D01*
X198361032Y-109720890D01*
X198361033Y-109720888D01*
X198455888Y-109626033D01*
X198567426Y-109551506D01*
X198567427Y-109551505D01*
X198691361Y-109500170D01*
X198822926Y-109474000D01*
X198957074Y-109474000D01*
X199088639Y-109500170D01*
X199088639Y-109500170D01*
G37*
G36*
X200993639Y-109500170D02*
G01*
X201117573Y-109551505D01*
X201117574Y-109551506D01*
X201229112Y-109626033D01*
X201323967Y-109720888D01*
X201323968Y-109720890D01*
X201398495Y-109832427D01*
X201449830Y-109956361D01*
X201476000Y-110087926D01*
X201476000Y-110222074D01*
X201449830Y-110353639D01*
X201398495Y-110477573D01*
X201398494Y-110477574D01*
X201323967Y-110589112D01*
X201229112Y-110683967D01*
X201206613Y-110699000D01*
X201117573Y-110758495D01*
X200993639Y-110809830D01*
X200862074Y-110836000D01*
X200727926Y-110836000D01*
X200596361Y-110809830D01*
X200472427Y-110758495D01*
X200383387Y-110699000D01*
X200360888Y-110683967D01*
X200266033Y-110589112D01*
X200191506Y-110477574D01*
X200191505Y-110477573D01*
X200140170Y-110353639D01*
X200114000Y-110222074D01*
X200114000Y-110087926D01*
X200140170Y-109956361D01*
X200191505Y-109832427D01*
X200266032Y-109720890D01*
X200266033Y-109720888D01*
X200360888Y-109626033D01*
X200472426Y-109551506D01*
X200472427Y-109551505D01*
X200596361Y-109500170D01*
X200727926Y-109474000D01*
X200862074Y-109474000D01*
X200993639Y-109500170D01*
X200993639Y-109500170D01*
G37*
G36*
X202898639Y-109500170D02*
G01*
X203022573Y-109551505D01*
X203022574Y-109551506D01*
X203134112Y-109626033D01*
X203228967Y-109720888D01*
X203228968Y-109720890D01*
X203303495Y-109832427D01*
X203354830Y-109956361D01*
X203381000Y-110087926D01*
X203381000Y-110222074D01*
X203354830Y-110353639D01*
X203303495Y-110477573D01*
X203303494Y-110477574D01*
X203228967Y-110589112D01*
X203134112Y-110683967D01*
X203111613Y-110699000D01*
X203022573Y-110758495D01*
X202898639Y-110809830D01*
X202767074Y-110836000D01*
X202632926Y-110836000D01*
X202501361Y-110809830D01*
X202377427Y-110758495D01*
X202288387Y-110699000D01*
X202265888Y-110683967D01*
X202171033Y-110589112D01*
X202096506Y-110477574D01*
X202096505Y-110477573D01*
X202045170Y-110353639D01*
X202019000Y-110222074D01*
X202019000Y-110087926D01*
X202045170Y-109956361D01*
X202096505Y-109832427D01*
X202171032Y-109720890D01*
X202171033Y-109720888D01*
X202265888Y-109626033D01*
X202377426Y-109551506D01*
X202377427Y-109551505D01*
X202501361Y-109500170D01*
X202632926Y-109474000D01*
X202767074Y-109474000D01*
X202898639Y-109500170D01*
X202898639Y-109500170D01*
G37*
G36*
X104255040Y-106217825D02*
G01*
X104500280Y-106292218D01*
X104726294Y-106413025D01*
X104756726Y-106438000D01*
X104924397Y-106575603D01*
X105044624Y-106722101D01*
X105086975Y-106773706D01*
X105106144Y-106809569D01*
X105204429Y-106993446D01*
X105207782Y-106999720D01*
X105232764Y-107082074D01*
X105282175Y-107244961D01*
X105301000Y-107436094D01*
X105301000Y-108563906D01*
X105293948Y-108635501D01*
X105282175Y-108755040D01*
X105215240Y-108975695D01*
X105207781Y-109000282D01*
X105086976Y-109226293D01*
X104942780Y-109401995D01*
X104924396Y-109424396D01*
X104726293Y-109586975D01*
X104500279Y-109707782D01*
X104255039Y-109782175D01*
X104000000Y-109807294D01*
X103744960Y-109782175D01*
X103499720Y-109707782D01*
X103346778Y-109626033D01*
X103273707Y-109586976D01*
X103075604Y-109424396D01*
X102913026Y-109226294D01*
X102913025Y-109226293D01*
X102792218Y-109000279D01*
X102717825Y-108755039D01*
X102699000Y-108563904D01*
X102699000Y-107436095D01*
X102702359Y-107401995D01*
X102717825Y-107244961D01*
X102767236Y-107082074D01*
X102792218Y-106999720D01*
X102792219Y-106999718D01*
X102913024Y-106773707D01*
X103075604Y-106575604D01*
X103199409Y-106474000D01*
X103273707Y-106413025D01*
X103499721Y-106292218D01*
X103744961Y-106217825D01*
X104000000Y-106192706D01*
X104255040Y-106217825D01*
X104255040Y-106217825D01*
G37*
G36*
X161226000Y-109676000D02*
G01*
X159674000Y-109676000D01*
X159674000Y-103274000D01*
X161226000Y-103274000D01*
X161226000Y-109676000D01*
X161226000Y-109676000D01*
G37*
G36*
X155326000Y-109676000D02*
G01*
X153774000Y-109676000D01*
X153774000Y-103274000D01*
X155326000Y-103274000D01*
X155326000Y-109676000D01*
X155326000Y-109676000D01*
G37*
G36*
X165789499Y-108478445D02*
G01*
X165826995Y-108489820D01*
X165861554Y-108508292D01*
X165891847Y-108533153D01*
X165916708Y-108563446D01*
X165935180Y-108598005D01*
X165946555Y-108635501D01*
X165951000Y-108680638D01*
X165951000Y-109319362D01*
X165946555Y-109364499D01*
X165935180Y-109401995D01*
X165916708Y-109436554D01*
X165891847Y-109466847D01*
X165861554Y-109491708D01*
X165826995Y-109510180D01*
X165789499Y-109521555D01*
X165744362Y-109526000D01*
X165005638Y-109526000D01*
X164960501Y-109521555D01*
X164923005Y-109510180D01*
X164888446Y-109491708D01*
X164858153Y-109466847D01*
X164833292Y-109436554D01*
X164814820Y-109401995D01*
X164803445Y-109364499D01*
X164799000Y-109319362D01*
X164799000Y-108680638D01*
X164803445Y-108635501D01*
X164814820Y-108598005D01*
X164833292Y-108563446D01*
X164858153Y-108533153D01*
X164888446Y-108508292D01*
X164923005Y-108489820D01*
X164960501Y-108478445D01*
X165005638Y-108474000D01*
X165744362Y-108474000D01*
X165789499Y-108478445D01*
X165789499Y-108478445D01*
G37*
G36*
X164039499Y-108478445D02*
G01*
X164076995Y-108489820D01*
X164111554Y-108508292D01*
X164141847Y-108533153D01*
X164166708Y-108563446D01*
X164185180Y-108598005D01*
X164196555Y-108635501D01*
X164201000Y-108680638D01*
X164201000Y-109319362D01*
X164196555Y-109364499D01*
X164185180Y-109401995D01*
X164166708Y-109436554D01*
X164141847Y-109466847D01*
X164111554Y-109491708D01*
X164076995Y-109510180D01*
X164039499Y-109521555D01*
X163994362Y-109526000D01*
X163255638Y-109526000D01*
X163210501Y-109521555D01*
X163173005Y-109510180D01*
X163138446Y-109491708D01*
X163108153Y-109466847D01*
X163083292Y-109436554D01*
X163064820Y-109401995D01*
X163053445Y-109364499D01*
X163049000Y-109319362D01*
X163049000Y-108680638D01*
X163053445Y-108635501D01*
X163064820Y-108598005D01*
X163083292Y-108563446D01*
X163108153Y-108533153D01*
X163138446Y-108508292D01*
X163173005Y-108489820D01*
X163210501Y-108478445D01*
X163255638Y-108474000D01*
X163994362Y-108474000D01*
X164039499Y-108478445D01*
X164039499Y-108478445D01*
G37*
G36*
X109571937Y-106951000D02*
G01*
X109706032Y-106964207D01*
X109892700Y-107020833D01*
X109904149Y-107024306D01*
X110000861Y-107076000D01*
X110086729Y-107121897D01*
X110246765Y-107253235D01*
X110378103Y-107413271D01*
X110420028Y-107491708D01*
X110475694Y-107595851D01*
X110475695Y-107595854D01*
X110535793Y-107793968D01*
X110556085Y-108000000D01*
X110535793Y-108206032D01*
X110510732Y-108288646D01*
X110475694Y-108404149D01*
X110453352Y-108445947D01*
X110378103Y-108586729D01*
X110246765Y-108746765D01*
X110086729Y-108878103D01*
X110028709Y-108909115D01*
X109904149Y-108975694D01*
X109904146Y-108975695D01*
X109706032Y-109035793D01*
X109603097Y-109045931D01*
X109551631Y-109051000D01*
X107448369Y-109051000D01*
X107396903Y-109045931D01*
X107293968Y-109035793D01*
X107095854Y-108975695D01*
X107095851Y-108975694D01*
X106971291Y-108909115D01*
X106913271Y-108878103D01*
X106753235Y-108746765D01*
X106621897Y-108586729D01*
X106546648Y-108445947D01*
X106524306Y-108404149D01*
X106489268Y-108288646D01*
X106464207Y-108206032D01*
X106443915Y-108000000D01*
X106464207Y-107793968D01*
X106524305Y-107595854D01*
X106524306Y-107595851D01*
X106579972Y-107491708D01*
X106621897Y-107413271D01*
X106753235Y-107253235D01*
X106913271Y-107121897D01*
X106999139Y-107076000D01*
X107095851Y-107024306D01*
X107107300Y-107020833D01*
X107293968Y-106964207D01*
X107428063Y-106951000D01*
X107448369Y-106949000D01*
X109551631Y-106949000D01*
X109571937Y-106951000D01*
X109571937Y-106951000D01*
G37*
G36*
X150039499Y-107978445D02*
G01*
X150076995Y-107989820D01*
X150111554Y-108008292D01*
X150141847Y-108033153D01*
X150166708Y-108063446D01*
X150185180Y-108098005D01*
X150196555Y-108135501D01*
X150201000Y-108180638D01*
X150201000Y-108819362D01*
X150196555Y-108864499D01*
X150185180Y-108901995D01*
X150166708Y-108936554D01*
X150141847Y-108966847D01*
X150111554Y-108991708D01*
X150076995Y-109010180D01*
X150039499Y-109021555D01*
X149994362Y-109026000D01*
X149255638Y-109026000D01*
X149210501Y-109021555D01*
X149173005Y-109010180D01*
X149138446Y-108991708D01*
X149108153Y-108966847D01*
X149083292Y-108936554D01*
X149064820Y-108901995D01*
X149053445Y-108864499D01*
X149049000Y-108819362D01*
X149049000Y-108180638D01*
X149053445Y-108135501D01*
X149064820Y-108098005D01*
X149083292Y-108063446D01*
X149108153Y-108033153D01*
X149138446Y-108008292D01*
X149173005Y-107989820D01*
X149210501Y-107978445D01*
X149255638Y-107974000D01*
X149994362Y-107974000D01*
X150039499Y-107978445D01*
X150039499Y-107978445D01*
G37*
G36*
X151789499Y-107978445D02*
G01*
X151826995Y-107989820D01*
X151861554Y-108008292D01*
X151891847Y-108033153D01*
X151916708Y-108063446D01*
X151935180Y-108098005D01*
X151946555Y-108135501D01*
X151951000Y-108180638D01*
X151951000Y-108819362D01*
X151946555Y-108864499D01*
X151935180Y-108901995D01*
X151916708Y-108936554D01*
X151891847Y-108966847D01*
X151861554Y-108991708D01*
X151826995Y-109010180D01*
X151789499Y-109021555D01*
X151744362Y-109026000D01*
X151005638Y-109026000D01*
X150960501Y-109021555D01*
X150923005Y-109010180D01*
X150888446Y-108991708D01*
X150858153Y-108966847D01*
X150833292Y-108936554D01*
X150814820Y-108901995D01*
X150803445Y-108864499D01*
X150799000Y-108819362D01*
X150799000Y-108180638D01*
X150803445Y-108135501D01*
X150814820Y-108098005D01*
X150833292Y-108063446D01*
X150858153Y-108033153D01*
X150888446Y-108008292D01*
X150923005Y-107989820D01*
X150960501Y-107978445D01*
X151005638Y-107974000D01*
X151744362Y-107974000D01*
X151789499Y-107978445D01*
X151789499Y-107978445D01*
G37*
G36*
X126364499Y-107303445D02*
G01*
X126401995Y-107314820D01*
X126436554Y-107333292D01*
X126466847Y-107358153D01*
X126491708Y-107388446D01*
X126510180Y-107423005D01*
X126521555Y-107460501D01*
X126526000Y-107505638D01*
X126526000Y-108244362D01*
X126521555Y-108289499D01*
X126510180Y-108326995D01*
X126491708Y-108361554D01*
X126466847Y-108391847D01*
X126436554Y-108416708D01*
X126401995Y-108435180D01*
X126364499Y-108446555D01*
X126319362Y-108451000D01*
X125680638Y-108451000D01*
X125635501Y-108446555D01*
X125598005Y-108435180D01*
X125563446Y-108416708D01*
X125533153Y-108391847D01*
X125508292Y-108361554D01*
X125489820Y-108326995D01*
X125478445Y-108289499D01*
X125474000Y-108244362D01*
X125474000Y-107505638D01*
X125478445Y-107460501D01*
X125489820Y-107423005D01*
X125508292Y-107388446D01*
X125533153Y-107358153D01*
X125563446Y-107333292D01*
X125598005Y-107314820D01*
X125635501Y-107303445D01*
X125680638Y-107299000D01*
X126319362Y-107299000D01*
X126364499Y-107303445D01*
X126364499Y-107303445D01*
G37*
G36*
X202258639Y-106360170D02*
G01*
X202382573Y-106411505D01*
X202404266Y-106426000D01*
X202494112Y-106486033D01*
X202588967Y-106580888D01*
X202600404Y-106598005D01*
X202663495Y-106692427D01*
X202714830Y-106816361D01*
X202741000Y-106947926D01*
X202741000Y-107082074D01*
X202714830Y-107213639D01*
X202663495Y-107337573D01*
X202637798Y-107376031D01*
X202588967Y-107449112D01*
X202494112Y-107543967D01*
X202437964Y-107581484D01*
X202382573Y-107618495D01*
X202258639Y-107669830D01*
X202127074Y-107696000D01*
X201992926Y-107696000D01*
X201861361Y-107669830D01*
X201737427Y-107618495D01*
X201682036Y-107581484D01*
X201625888Y-107543967D01*
X201531033Y-107449112D01*
X201482202Y-107376031D01*
X201456505Y-107337573D01*
X201405170Y-107213639D01*
X201379000Y-107082074D01*
X201379000Y-106947926D01*
X201405170Y-106816361D01*
X201456505Y-106692427D01*
X201519596Y-106598005D01*
X201531033Y-106580888D01*
X201625888Y-106486033D01*
X201715734Y-106426000D01*
X201737427Y-106411505D01*
X201861361Y-106360170D01*
X201992926Y-106334000D01*
X202127074Y-106334000D01*
X202258639Y-106360170D01*
X202258639Y-106360170D01*
G37*
G36*
X199718639Y-106360170D02*
G01*
X199842573Y-106411505D01*
X199864266Y-106426000D01*
X199954112Y-106486033D01*
X200048967Y-106580888D01*
X200060404Y-106598005D01*
X200123495Y-106692427D01*
X200174830Y-106816361D01*
X200201000Y-106947926D01*
X200201000Y-107082074D01*
X200174830Y-107213639D01*
X200123495Y-107337573D01*
X200097798Y-107376031D01*
X200048967Y-107449112D01*
X199954112Y-107543967D01*
X199897964Y-107581484D01*
X199842573Y-107618495D01*
X199718639Y-107669830D01*
X199587074Y-107696000D01*
X199452926Y-107696000D01*
X199321361Y-107669830D01*
X199197427Y-107618495D01*
X199142036Y-107581484D01*
X199085888Y-107543967D01*
X198991033Y-107449112D01*
X198942202Y-107376031D01*
X198916505Y-107337573D01*
X198865170Y-107213639D01*
X198839000Y-107082074D01*
X198839000Y-106947926D01*
X198865170Y-106816361D01*
X198916505Y-106692427D01*
X198979596Y-106598005D01*
X198991033Y-106580888D01*
X199085888Y-106486033D01*
X199175734Y-106426000D01*
X199197427Y-106411505D01*
X199321361Y-106360170D01*
X199452926Y-106334000D01*
X199587074Y-106334000D01*
X199718639Y-106360170D01*
X199718639Y-106360170D01*
G37*
G36*
X164039499Y-106478445D02*
G01*
X164076995Y-106489820D01*
X164111554Y-106508292D01*
X164141847Y-106533153D01*
X164166708Y-106563446D01*
X164185180Y-106598005D01*
X164196555Y-106635501D01*
X164201000Y-106680638D01*
X164201000Y-107319362D01*
X164196555Y-107364499D01*
X164185180Y-107401995D01*
X164166708Y-107436554D01*
X164141847Y-107466847D01*
X164111554Y-107491708D01*
X164076995Y-107510180D01*
X164039499Y-107521555D01*
X163994362Y-107526000D01*
X163255638Y-107526000D01*
X163210501Y-107521555D01*
X163173005Y-107510180D01*
X163138446Y-107491708D01*
X163108153Y-107466847D01*
X163083292Y-107436554D01*
X163064820Y-107401995D01*
X163053445Y-107364499D01*
X163049000Y-107319362D01*
X163049000Y-106680638D01*
X163053445Y-106635501D01*
X163064820Y-106598005D01*
X163083292Y-106563446D01*
X163108153Y-106533153D01*
X163138446Y-106508292D01*
X163173005Y-106489820D01*
X163210501Y-106478445D01*
X163255638Y-106474000D01*
X163994362Y-106474000D01*
X164039499Y-106478445D01*
X164039499Y-106478445D01*
G37*
G36*
X165789499Y-106478445D02*
G01*
X165826995Y-106489820D01*
X165861554Y-106508292D01*
X165891847Y-106533153D01*
X165916708Y-106563446D01*
X165935180Y-106598005D01*
X165946555Y-106635501D01*
X165951000Y-106680638D01*
X165951000Y-107319362D01*
X165946555Y-107364499D01*
X165935180Y-107401995D01*
X165916708Y-107436554D01*
X165891847Y-107466847D01*
X165861554Y-107491708D01*
X165826995Y-107510180D01*
X165789499Y-107521555D01*
X165744362Y-107526000D01*
X165005638Y-107526000D01*
X164960501Y-107521555D01*
X164923005Y-107510180D01*
X164888446Y-107491708D01*
X164858153Y-107466847D01*
X164833292Y-107436554D01*
X164814820Y-107401995D01*
X164803445Y-107364499D01*
X164799000Y-107319362D01*
X164799000Y-106680638D01*
X164803445Y-106635501D01*
X164814820Y-106598005D01*
X164833292Y-106563446D01*
X164858153Y-106533153D01*
X164888446Y-106508292D01*
X164923005Y-106489820D01*
X164960501Y-106478445D01*
X165005638Y-106474000D01*
X165744362Y-106474000D01*
X165789499Y-106478445D01*
X165789499Y-106478445D01*
G37*
G36*
X148822798Y-105353247D02*
G01*
X148858367Y-105364037D01*
X148891139Y-105381554D01*
X148919869Y-105405131D01*
X148943446Y-105433861D01*
X148960963Y-105466633D01*
X148971753Y-105502202D01*
X148976000Y-105545325D01*
X148976000Y-106829675D01*
X148971753Y-106872798D01*
X148960963Y-106908367D01*
X148943446Y-106941139D01*
X148919869Y-106969869D01*
X148891139Y-106993446D01*
X148858367Y-107010963D01*
X148822798Y-107021753D01*
X148779675Y-107026000D01*
X147720325Y-107026000D01*
X147677202Y-107021753D01*
X147641633Y-107010963D01*
X147608861Y-106993446D01*
X147580131Y-106969869D01*
X147556554Y-106941139D01*
X147539037Y-106908367D01*
X147528247Y-106872798D01*
X147524000Y-106829675D01*
X147524000Y-105545325D01*
X147528247Y-105502202D01*
X147539037Y-105466633D01*
X147556554Y-105433861D01*
X147580131Y-105405131D01*
X147608861Y-105381554D01*
X147641633Y-105364037D01*
X147677202Y-105353247D01*
X147720325Y-105349000D01*
X148779675Y-105349000D01*
X148822798Y-105353247D01*
X148822798Y-105353247D01*
G37*
G36*
X150864499Y-105803445D02*
G01*
X150901995Y-105814820D01*
X150936554Y-105833292D01*
X150966847Y-105858153D01*
X150991708Y-105888446D01*
X151010180Y-105923005D01*
X151021555Y-105960501D01*
X151026000Y-106005638D01*
X151026000Y-106744362D01*
X151021555Y-106789499D01*
X151010180Y-106826995D01*
X150991708Y-106861554D01*
X150966847Y-106891847D01*
X150936554Y-106916708D01*
X150901995Y-106935180D01*
X150864499Y-106946555D01*
X150819362Y-106951000D01*
X150180638Y-106951000D01*
X150135501Y-106946555D01*
X150098005Y-106935180D01*
X150063446Y-106916708D01*
X150033153Y-106891847D01*
X150008292Y-106861554D01*
X149989820Y-106826995D01*
X149978445Y-106789499D01*
X149974000Y-106744362D01*
X149974000Y-106005638D01*
X149978445Y-105960501D01*
X149989820Y-105923005D01*
X150008292Y-105888446D01*
X150033153Y-105858153D01*
X150063446Y-105833292D01*
X150098005Y-105814820D01*
X150135501Y-105803445D01*
X150180638Y-105799000D01*
X150819362Y-105799000D01*
X150864499Y-105803445D01*
X150864499Y-105803445D01*
G37*
G36*
X152864499Y-105803445D02*
G01*
X152901995Y-105814820D01*
X152936554Y-105833292D01*
X152966847Y-105858153D01*
X152991708Y-105888446D01*
X153010180Y-105923005D01*
X153021555Y-105960501D01*
X153026000Y-106005638D01*
X153026000Y-106744362D01*
X153021555Y-106789499D01*
X153010180Y-106826995D01*
X152991708Y-106861554D01*
X152966847Y-106891847D01*
X152936554Y-106916708D01*
X152901995Y-106935180D01*
X152864499Y-106946555D01*
X152819362Y-106951000D01*
X152180638Y-106951000D01*
X152135501Y-106946555D01*
X152098005Y-106935180D01*
X152063446Y-106916708D01*
X152033153Y-106891847D01*
X152008292Y-106861554D01*
X151989820Y-106826995D01*
X151978445Y-106789499D01*
X151974000Y-106744362D01*
X151974000Y-106005638D01*
X151978445Y-105960501D01*
X151989820Y-105923005D01*
X152008292Y-105888446D01*
X152033153Y-105858153D01*
X152063446Y-105833292D01*
X152098005Y-105814820D01*
X152135501Y-105803445D01*
X152180638Y-105799000D01*
X152819362Y-105799000D01*
X152864499Y-105803445D01*
X152864499Y-105803445D01*
G37*
G36*
X126364499Y-105553445D02*
G01*
X126401995Y-105564820D01*
X126436554Y-105583292D01*
X126466847Y-105608153D01*
X126491708Y-105638446D01*
X126510180Y-105673005D01*
X126521555Y-105710501D01*
X126526000Y-105755638D01*
X126526000Y-106494362D01*
X126521555Y-106539499D01*
X126510180Y-106576995D01*
X126491708Y-106611554D01*
X126466847Y-106641847D01*
X126436554Y-106666708D01*
X126401995Y-106685180D01*
X126364499Y-106696555D01*
X126319362Y-106701000D01*
X125680638Y-106701000D01*
X125635501Y-106696555D01*
X125598005Y-106685180D01*
X125563446Y-106666708D01*
X125533153Y-106641847D01*
X125508292Y-106611554D01*
X125489820Y-106576995D01*
X125478445Y-106539499D01*
X125474000Y-106494362D01*
X125474000Y-105755638D01*
X125478445Y-105710501D01*
X125489820Y-105673005D01*
X125508292Y-105638446D01*
X125533153Y-105608153D01*
X125563446Y-105583292D01*
X125598005Y-105564820D01*
X125635501Y-105553445D01*
X125680638Y-105549000D01*
X126319362Y-105549000D01*
X126364499Y-105553445D01*
X126364499Y-105553445D01*
G37*
G36*
X198448639Y-105090170D02*
G01*
X198572573Y-105141505D01*
X198594266Y-105156000D01*
X198684112Y-105216033D01*
X198778967Y-105310888D01*
X198807270Y-105353247D01*
X198853495Y-105422427D01*
X198904830Y-105546361D01*
X198931000Y-105677926D01*
X198931000Y-105812074D01*
X198904830Y-105943639D01*
X198853495Y-106067573D01*
X198853494Y-106067574D01*
X198778967Y-106179112D01*
X198684112Y-106273967D01*
X198656797Y-106292218D01*
X198572573Y-106348495D01*
X198448639Y-106399830D01*
X198317074Y-106426000D01*
X198182926Y-106426000D01*
X198051361Y-106399830D01*
X197927427Y-106348495D01*
X197843203Y-106292218D01*
X197815888Y-106273967D01*
X197721033Y-106179112D01*
X197646506Y-106067574D01*
X197646505Y-106067573D01*
X197595170Y-105943639D01*
X197569000Y-105812074D01*
X197569000Y-105677926D01*
X197595170Y-105546361D01*
X197646505Y-105422427D01*
X197692730Y-105353247D01*
X197721033Y-105310888D01*
X197815888Y-105216033D01*
X197905734Y-105156000D01*
X197927427Y-105141505D01*
X198051361Y-105090170D01*
X198182926Y-105064000D01*
X198317074Y-105064000D01*
X198448639Y-105090170D01*
X198448639Y-105090170D01*
G37*
G36*
X203528639Y-105090170D02*
G01*
X203652573Y-105141505D01*
X203674266Y-105156000D01*
X203764112Y-105216033D01*
X203858967Y-105310888D01*
X203887270Y-105353247D01*
X203933495Y-105422427D01*
X203984830Y-105546361D01*
X204011000Y-105677926D01*
X204011000Y-105812074D01*
X203984830Y-105943639D01*
X203933495Y-106067573D01*
X203933494Y-106067574D01*
X203858967Y-106179112D01*
X203764112Y-106273967D01*
X203736797Y-106292218D01*
X203652573Y-106348495D01*
X203528639Y-106399830D01*
X203397074Y-106426000D01*
X203262926Y-106426000D01*
X203131361Y-106399830D01*
X203007427Y-106348495D01*
X202923203Y-106292218D01*
X202895888Y-106273967D01*
X202801033Y-106179112D01*
X202726506Y-106067574D01*
X202726505Y-106067573D01*
X202675170Y-105943639D01*
X202649000Y-105812074D01*
X202649000Y-105677926D01*
X202675170Y-105546361D01*
X202726505Y-105422427D01*
X202772730Y-105353247D01*
X202801033Y-105310888D01*
X202895888Y-105216033D01*
X202985734Y-105156000D01*
X203007427Y-105141505D01*
X203131361Y-105090170D01*
X203262926Y-105064000D01*
X203397074Y-105064000D01*
X203528639Y-105090170D01*
X203528639Y-105090170D01*
G37*
G36*
X206379487Y-103223996D02*
G01*
X206557160Y-103297591D01*
X206616255Y-103322069D01*
X206829339Y-103464447D01*
X207010553Y-103645661D01*
X207131052Y-103826000D01*
X207152932Y-103858747D01*
X207251004Y-104095513D01*
X207301000Y-104346861D01*
X207301000Y-104603139D01*
X207251004Y-104854487D01*
X207153380Y-105090171D01*
X207152931Y-105091255D01*
X207010553Y-105304339D01*
X206829339Y-105485553D01*
X206616255Y-105627931D01*
X206616254Y-105627932D01*
X206616253Y-105627932D01*
X206379487Y-105726004D01*
X206128139Y-105776000D01*
X205871861Y-105776000D01*
X205620513Y-105726004D01*
X205383747Y-105627932D01*
X205383746Y-105627932D01*
X205383745Y-105627931D01*
X205170661Y-105485553D01*
X204989447Y-105304339D01*
X204847069Y-105091255D01*
X204846620Y-105090171D01*
X204748996Y-104854487D01*
X204699000Y-104603139D01*
X204699000Y-104346861D01*
X204748996Y-104095513D01*
X204847068Y-103858747D01*
X204868949Y-103826000D01*
X204989447Y-103645661D01*
X205170661Y-103464447D01*
X205383745Y-103322069D01*
X205442840Y-103297591D01*
X205620513Y-103223996D01*
X205871861Y-103174000D01*
X206128139Y-103174000D01*
X206379487Y-103223996D01*
X206379487Y-103223996D01*
G37*
G36*
X164039499Y-104478445D02*
G01*
X164076995Y-104489820D01*
X164111554Y-104508292D01*
X164141847Y-104533153D01*
X164166708Y-104563446D01*
X164185180Y-104598005D01*
X164196555Y-104635501D01*
X164201000Y-104680638D01*
X164201000Y-105319362D01*
X164196555Y-105364499D01*
X164185180Y-105401995D01*
X164166708Y-105436554D01*
X164141847Y-105466847D01*
X164111554Y-105491708D01*
X164076995Y-105510180D01*
X164039499Y-105521555D01*
X163994362Y-105526000D01*
X163255638Y-105526000D01*
X163210501Y-105521555D01*
X163173005Y-105510180D01*
X163138446Y-105491708D01*
X163108153Y-105466847D01*
X163083292Y-105436554D01*
X163064820Y-105401995D01*
X163053445Y-105364499D01*
X163049000Y-105319362D01*
X163049000Y-104680638D01*
X163053445Y-104635501D01*
X163064820Y-104598005D01*
X163083292Y-104563446D01*
X163108153Y-104533153D01*
X163138446Y-104508292D01*
X163173005Y-104489820D01*
X163210501Y-104478445D01*
X163255638Y-104474000D01*
X163994362Y-104474000D01*
X164039499Y-104478445D01*
X164039499Y-104478445D01*
G37*
G36*
X165789499Y-104478445D02*
G01*
X165826995Y-104489820D01*
X165861554Y-104508292D01*
X165891847Y-104533153D01*
X165916708Y-104563446D01*
X165935180Y-104598005D01*
X165946555Y-104635501D01*
X165951000Y-104680638D01*
X165951000Y-105319362D01*
X165946555Y-105364499D01*
X165935180Y-105401995D01*
X165916708Y-105436554D01*
X165891847Y-105466847D01*
X165861554Y-105491708D01*
X165826995Y-105510180D01*
X165789499Y-105521555D01*
X165744362Y-105526000D01*
X165005638Y-105526000D01*
X164960501Y-105521555D01*
X164923005Y-105510180D01*
X164888446Y-105491708D01*
X164858153Y-105466847D01*
X164833292Y-105436554D01*
X164814820Y-105401995D01*
X164803445Y-105364499D01*
X164799000Y-105319362D01*
X164799000Y-104680638D01*
X164803445Y-104635501D01*
X164814820Y-104598005D01*
X164833292Y-104563446D01*
X164858153Y-104533153D01*
X164888446Y-104508292D01*
X164923005Y-104489820D01*
X164960501Y-104478445D01*
X165005638Y-104474000D01*
X165744362Y-104474000D01*
X165789499Y-104478445D01*
X165789499Y-104478445D01*
G37*
G36*
X101152585Y-102228802D02*
G01*
X101302410Y-102258604D01*
X101584674Y-102375521D01*
X101838705Y-102545259D01*
X102054741Y-102761295D01*
X102224479Y-103015326D01*
X102341396Y-103297590D01*
X102341396Y-103297591D01*
X102401000Y-103597239D01*
X102401000Y-103902761D01*
X102384639Y-103985011D01*
X102341396Y-104202410D01*
X102224479Y-104484674D01*
X102054741Y-104738705D01*
X101838705Y-104954741D01*
X101584674Y-105124479D01*
X101302410Y-105241396D01*
X101193799Y-105263000D01*
X101002761Y-105301000D01*
X100697239Y-105301000D01*
X100506201Y-105263000D01*
X100397590Y-105241396D01*
X100115326Y-105124479D01*
X99861295Y-104954741D01*
X99645259Y-104738705D01*
X99475521Y-104484674D01*
X99358604Y-104202410D01*
X99315361Y-103985011D01*
X99299000Y-103902761D01*
X99299000Y-103597239D01*
X99358604Y-103297591D01*
X99358604Y-103297590D01*
X99475521Y-103015326D01*
X99645259Y-102761295D01*
X99861295Y-102545259D01*
X100115326Y-102375521D01*
X100397590Y-102258604D01*
X100547415Y-102228802D01*
X100697239Y-102199000D01*
X101002761Y-102199000D01*
X101152585Y-102228802D01*
X101152585Y-102228802D01*
G37*
G36*
X152864499Y-104053445D02*
G01*
X152901995Y-104064820D01*
X152936554Y-104083292D01*
X152966847Y-104108153D01*
X152991708Y-104138446D01*
X153010180Y-104173005D01*
X153021555Y-104210501D01*
X153026000Y-104255638D01*
X153026000Y-104994362D01*
X153021555Y-105039499D01*
X153010180Y-105076995D01*
X152991708Y-105111554D01*
X152966847Y-105141847D01*
X152936554Y-105166708D01*
X152901995Y-105185180D01*
X152864499Y-105196555D01*
X152819362Y-105201000D01*
X152180638Y-105201000D01*
X152135501Y-105196555D01*
X152098005Y-105185180D01*
X152063446Y-105166708D01*
X152033153Y-105141847D01*
X152008292Y-105111554D01*
X151989820Y-105076995D01*
X151978445Y-105039499D01*
X151974000Y-104994362D01*
X151974000Y-104255638D01*
X151978445Y-104210501D01*
X151989820Y-104173005D01*
X152008292Y-104138446D01*
X152033153Y-104108153D01*
X152063446Y-104083292D01*
X152098005Y-104064820D01*
X152135501Y-104053445D01*
X152180638Y-104049000D01*
X152819362Y-104049000D01*
X152864499Y-104053445D01*
X152864499Y-104053445D01*
G37*
G36*
X150864499Y-104053445D02*
G01*
X150901995Y-104064820D01*
X150936554Y-104083292D01*
X150966847Y-104108153D01*
X150991708Y-104138446D01*
X151010180Y-104173005D01*
X151021555Y-104210501D01*
X151026000Y-104255638D01*
X151026000Y-104994362D01*
X151021555Y-105039499D01*
X151010180Y-105076995D01*
X150991708Y-105111554D01*
X150966847Y-105141847D01*
X150936554Y-105166708D01*
X150901995Y-105185180D01*
X150864499Y-105196555D01*
X150819362Y-105201000D01*
X150180638Y-105201000D01*
X150135501Y-105196555D01*
X150098005Y-105185180D01*
X150063446Y-105166708D01*
X150033153Y-105141847D01*
X150008292Y-105111554D01*
X149989820Y-105076995D01*
X149978445Y-105039499D01*
X149974000Y-104994362D01*
X149974000Y-104255638D01*
X149978445Y-104210501D01*
X149989820Y-104173005D01*
X150008292Y-104138446D01*
X150033153Y-104108153D01*
X150063446Y-104083292D01*
X150098005Y-104064820D01*
X150135501Y-104053445D01*
X150180638Y-104049000D01*
X150819362Y-104049000D01*
X150864499Y-104053445D01*
X150864499Y-104053445D01*
G37*
G36*
X202258639Y-103820170D02*
G01*
X202382573Y-103871505D01*
X202382574Y-103871506D01*
X202494112Y-103946033D01*
X202588967Y-104040888D01*
X202604958Y-104064820D01*
X202663495Y-104152427D01*
X202714830Y-104276361D01*
X202741000Y-104407926D01*
X202741000Y-104542074D01*
X202714830Y-104673639D01*
X202663495Y-104797573D01*
X202663494Y-104797574D01*
X202588967Y-104909112D01*
X202494112Y-105003967D01*
X202442211Y-105038646D01*
X202382573Y-105078495D01*
X202258639Y-105129830D01*
X202127074Y-105156000D01*
X201992926Y-105156000D01*
X201861361Y-105129830D01*
X201737427Y-105078495D01*
X201677789Y-105038646D01*
X201625888Y-105003967D01*
X201531033Y-104909112D01*
X201456506Y-104797574D01*
X201456505Y-104797573D01*
X201405170Y-104673639D01*
X201379000Y-104542074D01*
X201379000Y-104407926D01*
X201405170Y-104276361D01*
X201456505Y-104152427D01*
X201515042Y-104064820D01*
X201531033Y-104040888D01*
X201625888Y-103946033D01*
X201737426Y-103871506D01*
X201737427Y-103871505D01*
X201861361Y-103820170D01*
X201992926Y-103794000D01*
X202127074Y-103794000D01*
X202258639Y-103820170D01*
X202258639Y-103820170D01*
G37*
G36*
X199718639Y-103820170D02*
G01*
X199842573Y-103871505D01*
X199842574Y-103871506D01*
X199954112Y-103946033D01*
X200048967Y-104040888D01*
X200064958Y-104064820D01*
X200123495Y-104152427D01*
X200174830Y-104276361D01*
X200201000Y-104407926D01*
X200201000Y-104542074D01*
X200174830Y-104673639D01*
X200123495Y-104797573D01*
X200123494Y-104797574D01*
X200048967Y-104909112D01*
X199954112Y-105003967D01*
X199902211Y-105038646D01*
X199842573Y-105078495D01*
X199718639Y-105129830D01*
X199587074Y-105156000D01*
X199452926Y-105156000D01*
X199321361Y-105129830D01*
X199197427Y-105078495D01*
X199137789Y-105038646D01*
X199085888Y-105003967D01*
X198991033Y-104909112D01*
X198916506Y-104797574D01*
X198916505Y-104797573D01*
X198865170Y-104673639D01*
X198839000Y-104542074D01*
X198839000Y-104407926D01*
X198865170Y-104276361D01*
X198916505Y-104152427D01*
X198975042Y-104064820D01*
X198991033Y-104040888D01*
X199085888Y-103946033D01*
X199197426Y-103871506D01*
X199197427Y-103871505D01*
X199321361Y-103820170D01*
X199452926Y-103794000D01*
X199587074Y-103794000D01*
X199718639Y-103820170D01*
X199718639Y-103820170D01*
G37*
G36*
X148822798Y-102478247D02*
G01*
X148858367Y-102489037D01*
X148891139Y-102506554D01*
X148919869Y-102530131D01*
X148943446Y-102558861D01*
X148960963Y-102591633D01*
X148971753Y-102627202D01*
X148976000Y-102670325D01*
X148976000Y-103954675D01*
X148971753Y-103997798D01*
X148960963Y-104033367D01*
X148943446Y-104066139D01*
X148919869Y-104094869D01*
X148891139Y-104118446D01*
X148858367Y-104135963D01*
X148822798Y-104146753D01*
X148779675Y-104151000D01*
X147720325Y-104151000D01*
X147677202Y-104146753D01*
X147641633Y-104135963D01*
X147608861Y-104118446D01*
X147580131Y-104094869D01*
X147556554Y-104066139D01*
X147539037Y-104033367D01*
X147528247Y-103997798D01*
X147524000Y-103954675D01*
X147524000Y-102670325D01*
X147528247Y-102627202D01*
X147539037Y-102591633D01*
X147556554Y-102558861D01*
X147580131Y-102530131D01*
X147608861Y-102506554D01*
X147641633Y-102489037D01*
X147677202Y-102478247D01*
X147720325Y-102474000D01*
X148779675Y-102474000D01*
X148822798Y-102478247D01*
X148822798Y-102478247D01*
G37*
G36*
X126364499Y-100303445D02*
G01*
X126401995Y-100314820D01*
X126436554Y-100333292D01*
X126466847Y-100358153D01*
X126491708Y-100388446D01*
X126510180Y-100423005D01*
X126521555Y-100460501D01*
X126526000Y-100505638D01*
X126526000Y-101244362D01*
X126521555Y-101289499D01*
X126510180Y-101326995D01*
X126491708Y-101361554D01*
X126466847Y-101391847D01*
X126436554Y-101416708D01*
X126401995Y-101435180D01*
X126364499Y-101446555D01*
X126319362Y-101451000D01*
X125680638Y-101451000D01*
X125635501Y-101446555D01*
X125598005Y-101435180D01*
X125563446Y-101416708D01*
X125533153Y-101391847D01*
X125508292Y-101361554D01*
X125489820Y-101326995D01*
X125478445Y-101289499D01*
X125474000Y-101244362D01*
X125474000Y-100505638D01*
X125478445Y-100460501D01*
X125489820Y-100423005D01*
X125508292Y-100388446D01*
X125533153Y-100358153D01*
X125563446Y-100333292D01*
X125598005Y-100314820D01*
X125635501Y-100303445D01*
X125680638Y-100299000D01*
X126319362Y-100299000D01*
X126364499Y-100303445D01*
X126364499Y-100303445D01*
G37*
G36*
X191321934Y-98702671D02*
G01*
X191351877Y-98711754D01*
X191379465Y-98726500D01*
X191403651Y-98746349D01*
X191423500Y-98770535D01*
X191438246Y-98798123D01*
X191447329Y-98828066D01*
X191451000Y-98865340D01*
X191451000Y-101134660D01*
X191447329Y-101171934D01*
X191438246Y-101201877D01*
X191423500Y-101229465D01*
X191403651Y-101253651D01*
X191379465Y-101273500D01*
X191351877Y-101288246D01*
X191321934Y-101297329D01*
X191284660Y-101301000D01*
X187115340Y-101301000D01*
X187078066Y-101297329D01*
X187048123Y-101288246D01*
X187020535Y-101273500D01*
X186996349Y-101253651D01*
X186976500Y-101229465D01*
X186961754Y-101201877D01*
X186952671Y-101171934D01*
X186949000Y-101134660D01*
X186949000Y-98865340D01*
X186952671Y-98828066D01*
X186961754Y-98798123D01*
X186976500Y-98770535D01*
X186996349Y-98746349D01*
X187020535Y-98726500D01*
X187048123Y-98711754D01*
X187078066Y-98702671D01*
X187115340Y-98699000D01*
X191284660Y-98699000D01*
X191321934Y-98702671D01*
X191321934Y-98702671D01*
G37*
G36*
X183921934Y-98702671D02*
G01*
X183951877Y-98711754D01*
X183979465Y-98726500D01*
X184003651Y-98746349D01*
X184023500Y-98770535D01*
X184038246Y-98798123D01*
X184047329Y-98828066D01*
X184051000Y-98865340D01*
X184051000Y-101134660D01*
X184047329Y-101171934D01*
X184038246Y-101201877D01*
X184023500Y-101229465D01*
X184003651Y-101253651D01*
X183979465Y-101273500D01*
X183951877Y-101288246D01*
X183921934Y-101297329D01*
X183884660Y-101301000D01*
X179715340Y-101301000D01*
X179678066Y-101297329D01*
X179648123Y-101288246D01*
X179620535Y-101273500D01*
X179596349Y-101253651D01*
X179576500Y-101229465D01*
X179561754Y-101201877D01*
X179552671Y-101171934D01*
X179549000Y-101134660D01*
X179549000Y-98865340D01*
X179552671Y-98828066D01*
X179561754Y-98798123D01*
X179576500Y-98770535D01*
X179596349Y-98746349D01*
X179620535Y-98726500D01*
X179648123Y-98711754D01*
X179678066Y-98702671D01*
X179715340Y-98699000D01*
X183884660Y-98699000D01*
X183921934Y-98702671D01*
X183921934Y-98702671D01*
G37*
G36*
X203079487Y-97383996D02*
G01*
X203316253Y-97482068D01*
X203316255Y-97482069D01*
X203529339Y-97624447D01*
X203710553Y-97805661D01*
X203852932Y-98018747D01*
X203951004Y-98255513D01*
X204001000Y-98506861D01*
X204001000Y-98763139D01*
X203951004Y-99014487D01*
X203852932Y-99251253D01*
X203852931Y-99251255D01*
X203710553Y-99464339D01*
X203529339Y-99645553D01*
X203316255Y-99787931D01*
X203316254Y-99787932D01*
X203316253Y-99787932D01*
X203079487Y-99886004D01*
X202828139Y-99936000D01*
X202571861Y-99936000D01*
X202320513Y-99886004D01*
X202083747Y-99787932D01*
X202083746Y-99787932D01*
X202083745Y-99787931D01*
X201870661Y-99645553D01*
X201689447Y-99464339D01*
X201547069Y-99251255D01*
X201547068Y-99251253D01*
X201448996Y-99014487D01*
X201399000Y-98763139D01*
X201399000Y-98506861D01*
X201448996Y-98255513D01*
X201547068Y-98018747D01*
X201689447Y-97805661D01*
X201870661Y-97624447D01*
X202083745Y-97482069D01*
X202083747Y-97482068D01*
X202320513Y-97383996D01*
X202571861Y-97334000D01*
X202828139Y-97334000D01*
X203079487Y-97383996D01*
X203079487Y-97383996D01*
G37*
G36*
X101152585Y-96728802D02*
G01*
X101302410Y-96758604D01*
X101584674Y-96875521D01*
X101838705Y-97045259D01*
X102054741Y-97261295D01*
X102224479Y-97515326D01*
X102341396Y-97797590D01*
X102401000Y-98097240D01*
X102401000Y-98402760D01*
X102341396Y-98702410D01*
X102224479Y-98984674D01*
X102054741Y-99238705D01*
X101838705Y-99454741D01*
X101584674Y-99624479D01*
X101302410Y-99741396D01*
X101152585Y-99771198D01*
X101002761Y-99801000D01*
X100697239Y-99801000D01*
X100547415Y-99771198D01*
X100397590Y-99741396D01*
X100115326Y-99624479D01*
X99861295Y-99454741D01*
X99645259Y-99238705D01*
X99475521Y-98984674D01*
X99358604Y-98702410D01*
X99299000Y-98402760D01*
X99299000Y-98097240D01*
X99358604Y-97797590D01*
X99475521Y-97515326D01*
X99645259Y-97261295D01*
X99861295Y-97045259D01*
X100115326Y-96875521D01*
X100397590Y-96758604D01*
X100547415Y-96728802D01*
X100697239Y-96699000D01*
X101002761Y-96699000D01*
X101152585Y-96728802D01*
X101152585Y-96728802D01*
G37*
G36*
X126364499Y-98553445D02*
G01*
X126401995Y-98564820D01*
X126436554Y-98583292D01*
X126466847Y-98608153D01*
X126491708Y-98638446D01*
X126510180Y-98673005D01*
X126521555Y-98710501D01*
X126526000Y-98755638D01*
X126526000Y-99494362D01*
X126521555Y-99539499D01*
X126510180Y-99576995D01*
X126491708Y-99611554D01*
X126466847Y-99641847D01*
X126436554Y-99666708D01*
X126401995Y-99685180D01*
X126364499Y-99696555D01*
X126319362Y-99701000D01*
X125680638Y-99701000D01*
X125635501Y-99696555D01*
X125598005Y-99685180D01*
X125563446Y-99666708D01*
X125533153Y-99641847D01*
X125508292Y-99611554D01*
X125489820Y-99576995D01*
X125478445Y-99539499D01*
X125474000Y-99494362D01*
X125474000Y-98755638D01*
X125478445Y-98710501D01*
X125489820Y-98673005D01*
X125508292Y-98638446D01*
X125533153Y-98608153D01*
X125563446Y-98583292D01*
X125598005Y-98564820D01*
X125635501Y-98553445D01*
X125680638Y-98549000D01*
X126319362Y-98549000D01*
X126364499Y-98553445D01*
X126364499Y-98553445D01*
G37*
G36*
X104255040Y-92217825D02*
G01*
X104500280Y-92292218D01*
X104726294Y-92413025D01*
X104777899Y-92455376D01*
X104924397Y-92575603D01*
X105044624Y-92722101D01*
X105086975Y-92773706D01*
X105207782Y-92999720D01*
X105282175Y-93244960D01*
X105301000Y-93436095D01*
X105301000Y-94563905D01*
X105282175Y-94755040D01*
X105207782Y-95000280D01*
X105086975Y-95226294D01*
X104924396Y-95424396D01*
X104726293Y-95586975D01*
X104500279Y-95707782D01*
X104255039Y-95782175D01*
X104000000Y-95807294D01*
X103744960Y-95782175D01*
X103499720Y-95707782D01*
X103499718Y-95707781D01*
X103273707Y-95586976D01*
X103075604Y-95424396D01*
X102913026Y-95226294D01*
X102913025Y-95226293D01*
X102792218Y-95000279D01*
X102717825Y-94755039D01*
X102699000Y-94563904D01*
X102699000Y-93436095D01*
X102717825Y-93244960D01*
X102792218Y-92999720D01*
X102819328Y-92949000D01*
X102913024Y-92773707D01*
X103075604Y-92575604D01*
X103186805Y-92484344D01*
X103273707Y-92413025D01*
X103499721Y-92292218D01*
X103744961Y-92217825D01*
X104000000Y-92192706D01*
X104255040Y-92217825D01*
X104255040Y-92217825D01*
G37*
G36*
X109603097Y-92954069D02*
G01*
X109706032Y-92964207D01*
X109904146Y-93024305D01*
X109904149Y-93024306D01*
X110000975Y-93076061D01*
X110086729Y-93121897D01*
X110246765Y-93253235D01*
X110378103Y-93413271D01*
X110423939Y-93499025D01*
X110475694Y-93595851D01*
X110475695Y-93595854D01*
X110535793Y-93793968D01*
X110556085Y-94000000D01*
X110535793Y-94206032D01*
X110475695Y-94404146D01*
X110475694Y-94404149D01*
X110423939Y-94500975D01*
X110378103Y-94586729D01*
X110246765Y-94746765D01*
X110086729Y-94878103D01*
X110000975Y-94923939D01*
X109904149Y-94975694D01*
X109904146Y-94975695D01*
X109706032Y-95035793D01*
X109603097Y-95045931D01*
X109551631Y-95051000D01*
X107448369Y-95051000D01*
X107396903Y-95045931D01*
X107293968Y-95035793D01*
X107095854Y-94975695D01*
X107095851Y-94975694D01*
X106999025Y-94923939D01*
X106913271Y-94878103D01*
X106753235Y-94746765D01*
X106621897Y-94586729D01*
X106576061Y-94500975D01*
X106524306Y-94404149D01*
X106524305Y-94404146D01*
X106464207Y-94206032D01*
X106443915Y-94000000D01*
X106464207Y-93793968D01*
X106524305Y-93595854D01*
X106524306Y-93595851D01*
X106576061Y-93499025D01*
X106621897Y-93413271D01*
X106753235Y-93253235D01*
X106913271Y-93121897D01*
X106999025Y-93076061D01*
X107095851Y-93024306D01*
X107095854Y-93024305D01*
X107293968Y-92964207D01*
X107396903Y-92954069D01*
X107448369Y-92949000D01*
X109551631Y-92949000D01*
X109603097Y-92954069D01*
X109603097Y-92954069D01*
G37*
G36*
X101152585Y-88228802D02*
G01*
X101302410Y-88258604D01*
X101584674Y-88375521D01*
X101838705Y-88545259D01*
X102054741Y-88761295D01*
X102224479Y-89015326D01*
X102341396Y-89297590D01*
X102401000Y-89597240D01*
X102401000Y-89902760D01*
X102341396Y-90202410D01*
X102224479Y-90484674D01*
X102054741Y-90738705D01*
X101838705Y-90954741D01*
X101584674Y-91124479D01*
X101302410Y-91241396D01*
X101152585Y-91271198D01*
X101002761Y-91301000D01*
X100697239Y-91301000D01*
X100547415Y-91271198D01*
X100397590Y-91241396D01*
X100115326Y-91124479D01*
X99861295Y-90954741D01*
X99645259Y-90738705D01*
X99475521Y-90484674D01*
X99358604Y-90202410D01*
X99299000Y-89902760D01*
X99299000Y-89597240D01*
X99358604Y-89297590D01*
X99475521Y-89015326D01*
X99645259Y-88761295D01*
X99861295Y-88545259D01*
X100115326Y-88375521D01*
X100397590Y-88258604D01*
X100547415Y-88228802D01*
X100697239Y-88199000D01*
X101002761Y-88199000D01*
X101152585Y-88228802D01*
X101152585Y-88228802D01*
G37*
G36*
X144364499Y-85303445D02*
G01*
X144401995Y-85314820D01*
X144436554Y-85333292D01*
X144466847Y-85358153D01*
X144491708Y-85388446D01*
X144510180Y-85423005D01*
X144521555Y-85460501D01*
X144526000Y-85505638D01*
X144526000Y-86244362D01*
X144521555Y-86289499D01*
X144510180Y-86326995D01*
X144491708Y-86361554D01*
X144466847Y-86391847D01*
X144436554Y-86416708D01*
X144401995Y-86435180D01*
X144364499Y-86446555D01*
X144319362Y-86451000D01*
X143680638Y-86451000D01*
X143635501Y-86446555D01*
X143598005Y-86435180D01*
X143563446Y-86416708D01*
X143533153Y-86391847D01*
X143508292Y-86361554D01*
X143489820Y-86326995D01*
X143478445Y-86289499D01*
X143474000Y-86244362D01*
X143474000Y-85505638D01*
X143478445Y-85460501D01*
X143489820Y-85423005D01*
X143508292Y-85388446D01*
X143533153Y-85358153D01*
X143563446Y-85333292D01*
X143598005Y-85314820D01*
X143635501Y-85303445D01*
X143680638Y-85299000D01*
X144319362Y-85299000D01*
X144364499Y-85303445D01*
X144364499Y-85303445D01*
G37*
G36*
X150364499Y-85303445D02*
G01*
X150401995Y-85314820D01*
X150436554Y-85333292D01*
X150466847Y-85358153D01*
X150491708Y-85388446D01*
X150510180Y-85423005D01*
X150521555Y-85460501D01*
X150526000Y-85505638D01*
X150526000Y-86244362D01*
X150521555Y-86289499D01*
X150510180Y-86326995D01*
X150491708Y-86361554D01*
X150466847Y-86391847D01*
X150436554Y-86416708D01*
X150401995Y-86435180D01*
X150364499Y-86446555D01*
X150319362Y-86451000D01*
X149680638Y-86451000D01*
X149635501Y-86446555D01*
X149598005Y-86435180D01*
X149563446Y-86416708D01*
X149533153Y-86391847D01*
X149508292Y-86361554D01*
X149489820Y-86326995D01*
X149478445Y-86289499D01*
X149474000Y-86244362D01*
X149474000Y-85505638D01*
X149478445Y-85460501D01*
X149489820Y-85423005D01*
X149508292Y-85388446D01*
X149533153Y-85358153D01*
X149563446Y-85333292D01*
X149598005Y-85314820D01*
X149635501Y-85303445D01*
X149680638Y-85299000D01*
X150319362Y-85299000D01*
X150364499Y-85303445D01*
X150364499Y-85303445D01*
G37*
G36*
X148364499Y-85303445D02*
G01*
X148401995Y-85314820D01*
X148436554Y-85333292D01*
X148466847Y-85358153D01*
X148491708Y-85388446D01*
X148510180Y-85423005D01*
X148521555Y-85460501D01*
X148526000Y-85505638D01*
X148526000Y-86244362D01*
X148521555Y-86289499D01*
X148510180Y-86326995D01*
X148491708Y-86361554D01*
X148466847Y-86391847D01*
X148436554Y-86416708D01*
X148401995Y-86435180D01*
X148364499Y-86446555D01*
X148319362Y-86451000D01*
X147680638Y-86451000D01*
X147635501Y-86446555D01*
X147598005Y-86435180D01*
X147563446Y-86416708D01*
X147533153Y-86391847D01*
X147508292Y-86361554D01*
X147489820Y-86326995D01*
X147478445Y-86289499D01*
X147474000Y-86244362D01*
X147474000Y-85505638D01*
X147478445Y-85460501D01*
X147489820Y-85423005D01*
X147508292Y-85388446D01*
X147533153Y-85358153D01*
X147563446Y-85333292D01*
X147598005Y-85314820D01*
X147635501Y-85303445D01*
X147680638Y-85299000D01*
X148319362Y-85299000D01*
X148364499Y-85303445D01*
X148364499Y-85303445D01*
G37*
G36*
X146364499Y-85303445D02*
G01*
X146401995Y-85314820D01*
X146436554Y-85333292D01*
X146466847Y-85358153D01*
X146491708Y-85388446D01*
X146510180Y-85423005D01*
X146521555Y-85460501D01*
X146526000Y-85505638D01*
X146526000Y-86244362D01*
X146521555Y-86289499D01*
X146510180Y-86326995D01*
X146491708Y-86361554D01*
X146466847Y-86391847D01*
X146436554Y-86416708D01*
X146401995Y-86435180D01*
X146364499Y-86446555D01*
X146319362Y-86451000D01*
X145680638Y-86451000D01*
X145635501Y-86446555D01*
X145598005Y-86435180D01*
X145563446Y-86416708D01*
X145533153Y-86391847D01*
X145508292Y-86361554D01*
X145489820Y-86326995D01*
X145478445Y-86289499D01*
X145474000Y-86244362D01*
X145474000Y-85505638D01*
X145478445Y-85460501D01*
X145489820Y-85423005D01*
X145508292Y-85388446D01*
X145533153Y-85358153D01*
X145563446Y-85333292D01*
X145598005Y-85314820D01*
X145635501Y-85303445D01*
X145680638Y-85299000D01*
X146319362Y-85299000D01*
X146364499Y-85303445D01*
X146364499Y-85303445D01*
G37*
G36*
X153001000Y-86401000D02*
G01*
X151999000Y-86401000D01*
X151999000Y-85499000D01*
X153001000Y-85499000D01*
X153001000Y-86401000D01*
X153001000Y-86401000D01*
G37*
G36*
X155001000Y-85451000D02*
G01*
X153999000Y-85451000D01*
X153999000Y-84549000D01*
X155001000Y-84549000D01*
X155001000Y-85451000D01*
X155001000Y-85451000D01*
G37*
G36*
X146364499Y-83553445D02*
G01*
X146401995Y-83564820D01*
X146436554Y-83583292D01*
X146466847Y-83608153D01*
X146491708Y-83638446D01*
X146510180Y-83673005D01*
X146521555Y-83710501D01*
X146526000Y-83755638D01*
X146526000Y-84494362D01*
X146521555Y-84539499D01*
X146510180Y-84576995D01*
X146491708Y-84611554D01*
X146466847Y-84641847D01*
X146436554Y-84666708D01*
X146401995Y-84685180D01*
X146364499Y-84696555D01*
X146319362Y-84701000D01*
X145680638Y-84701000D01*
X145635501Y-84696555D01*
X145598005Y-84685180D01*
X145563446Y-84666708D01*
X145533153Y-84641847D01*
X145508292Y-84611554D01*
X145489820Y-84576995D01*
X145478445Y-84539499D01*
X145474000Y-84494362D01*
X145474000Y-83755638D01*
X145478445Y-83710501D01*
X145489820Y-83673005D01*
X145508292Y-83638446D01*
X145533153Y-83608153D01*
X145563446Y-83583292D01*
X145598005Y-83564820D01*
X145635501Y-83553445D01*
X145680638Y-83549000D01*
X146319362Y-83549000D01*
X146364499Y-83553445D01*
X146364499Y-83553445D01*
G37*
G36*
X148364499Y-83553445D02*
G01*
X148401995Y-83564820D01*
X148436554Y-83583292D01*
X148466847Y-83608153D01*
X148491708Y-83638446D01*
X148510180Y-83673005D01*
X148521555Y-83710501D01*
X148526000Y-83755638D01*
X148526000Y-84494362D01*
X148521555Y-84539499D01*
X148510180Y-84576995D01*
X148491708Y-84611554D01*
X148466847Y-84641847D01*
X148436554Y-84666708D01*
X148401995Y-84685180D01*
X148364499Y-84696555D01*
X148319362Y-84701000D01*
X147680638Y-84701000D01*
X147635501Y-84696555D01*
X147598005Y-84685180D01*
X147563446Y-84666708D01*
X147533153Y-84641847D01*
X147508292Y-84611554D01*
X147489820Y-84576995D01*
X147478445Y-84539499D01*
X147474000Y-84494362D01*
X147474000Y-83755638D01*
X147478445Y-83710501D01*
X147489820Y-83673005D01*
X147508292Y-83638446D01*
X147533153Y-83608153D01*
X147563446Y-83583292D01*
X147598005Y-83564820D01*
X147635501Y-83553445D01*
X147680638Y-83549000D01*
X148319362Y-83549000D01*
X148364499Y-83553445D01*
X148364499Y-83553445D01*
G37*
G36*
X150364499Y-83553445D02*
G01*
X150401995Y-83564820D01*
X150436554Y-83583292D01*
X150466847Y-83608153D01*
X150491708Y-83638446D01*
X150510180Y-83673005D01*
X150521555Y-83710501D01*
X150526000Y-83755638D01*
X150526000Y-84494362D01*
X150521555Y-84539499D01*
X150510180Y-84576995D01*
X150491708Y-84611554D01*
X150466847Y-84641847D01*
X150436554Y-84666708D01*
X150401995Y-84685180D01*
X150364499Y-84696555D01*
X150319362Y-84701000D01*
X149680638Y-84701000D01*
X149635501Y-84696555D01*
X149598005Y-84685180D01*
X149563446Y-84666708D01*
X149533153Y-84641847D01*
X149508292Y-84611554D01*
X149489820Y-84576995D01*
X149478445Y-84539499D01*
X149474000Y-84494362D01*
X149474000Y-83755638D01*
X149478445Y-83710501D01*
X149489820Y-83673005D01*
X149508292Y-83638446D01*
X149533153Y-83608153D01*
X149563446Y-83583292D01*
X149598005Y-83564820D01*
X149635501Y-83553445D01*
X149680638Y-83549000D01*
X150319362Y-83549000D01*
X150364499Y-83553445D01*
X150364499Y-83553445D01*
G37*
G36*
X144364499Y-83553445D02*
G01*
X144401995Y-83564820D01*
X144436554Y-83583292D01*
X144466847Y-83608153D01*
X144491708Y-83638446D01*
X144510180Y-83673005D01*
X144521555Y-83710501D01*
X144526000Y-83755638D01*
X144526000Y-84494362D01*
X144521555Y-84539499D01*
X144510180Y-84576995D01*
X144491708Y-84611554D01*
X144466847Y-84641847D01*
X144436554Y-84666708D01*
X144401995Y-84685180D01*
X144364499Y-84696555D01*
X144319362Y-84701000D01*
X143680638Y-84701000D01*
X143635501Y-84696555D01*
X143598005Y-84685180D01*
X143563446Y-84666708D01*
X143533153Y-84641847D01*
X143508292Y-84611554D01*
X143489820Y-84576995D01*
X143478445Y-84539499D01*
X143474000Y-84494362D01*
X143474000Y-83755638D01*
X143478445Y-83710501D01*
X143489820Y-83673005D01*
X143508292Y-83638446D01*
X143533153Y-83608153D01*
X143563446Y-83583292D01*
X143598005Y-83564820D01*
X143635501Y-83553445D01*
X143680638Y-83549000D01*
X144319362Y-83549000D01*
X144364499Y-83553445D01*
X144364499Y-83553445D01*
G37*
G36*
X153001000Y-84501000D02*
G01*
X151999000Y-84501000D01*
X151999000Y-83599000D01*
X153001000Y-83599000D01*
X153001000Y-84501000D01*
X153001000Y-84501000D01*
G37*
G36*
X159789499Y-82478445D02*
G01*
X159826995Y-82489820D01*
X159861554Y-82508292D01*
X159891847Y-82533153D01*
X159916708Y-82563446D01*
X159935180Y-82598005D01*
X159946555Y-82635501D01*
X159951000Y-82680638D01*
X159951000Y-83319362D01*
X159946555Y-83364499D01*
X159935180Y-83401995D01*
X159916708Y-83436554D01*
X159891847Y-83466847D01*
X159861554Y-83491708D01*
X159826995Y-83510180D01*
X159789499Y-83521555D01*
X159744362Y-83526000D01*
X159005638Y-83526000D01*
X158960501Y-83521555D01*
X158923005Y-83510180D01*
X158888446Y-83491708D01*
X158858153Y-83466847D01*
X158833292Y-83436554D01*
X158814820Y-83401995D01*
X158803445Y-83364499D01*
X158799000Y-83319362D01*
X158799000Y-82680638D01*
X158803445Y-82635501D01*
X158814820Y-82598005D01*
X158833292Y-82563446D01*
X158858153Y-82533153D01*
X158888446Y-82508292D01*
X158923005Y-82489820D01*
X158960501Y-82478445D01*
X159005638Y-82474000D01*
X159744362Y-82474000D01*
X159789499Y-82478445D01*
X159789499Y-82478445D01*
G37*
G36*
X158039499Y-82478445D02*
G01*
X158076995Y-82489820D01*
X158111554Y-82508292D01*
X158141847Y-82533153D01*
X158166708Y-82563446D01*
X158185180Y-82598005D01*
X158196555Y-82635501D01*
X158201000Y-82680638D01*
X158201000Y-83319362D01*
X158196555Y-83364499D01*
X158185180Y-83401995D01*
X158166708Y-83436554D01*
X158141847Y-83466847D01*
X158111554Y-83491708D01*
X158076995Y-83510180D01*
X158039499Y-83521555D01*
X157994362Y-83526000D01*
X157255638Y-83526000D01*
X157210501Y-83521555D01*
X157173005Y-83510180D01*
X157138446Y-83491708D01*
X157108153Y-83466847D01*
X157083292Y-83436554D01*
X157064820Y-83401995D01*
X157053445Y-83364499D01*
X157049000Y-83319362D01*
X157049000Y-82680638D01*
X157053445Y-82635501D01*
X157064820Y-82598005D01*
X157083292Y-82563446D01*
X157108153Y-82533153D01*
X157138446Y-82508292D01*
X157173005Y-82489820D01*
X157210501Y-82478445D01*
X157255638Y-82474000D01*
X157994362Y-82474000D01*
X158039499Y-82478445D01*
X158039499Y-82478445D01*
G37*
G36*
X165289499Y-81978445D02*
G01*
X165326995Y-81989820D01*
X165361554Y-82008292D01*
X165391847Y-82033153D01*
X165416708Y-82063446D01*
X165435180Y-82098005D01*
X165446555Y-82135501D01*
X165451000Y-82180638D01*
X165451000Y-82819362D01*
X165446555Y-82864499D01*
X165435180Y-82901995D01*
X165416708Y-82936554D01*
X165391847Y-82966847D01*
X165361554Y-82991708D01*
X165326995Y-83010180D01*
X165289499Y-83021555D01*
X165244362Y-83026000D01*
X164505638Y-83026000D01*
X164460501Y-83021555D01*
X164423005Y-83010180D01*
X164388446Y-82991708D01*
X164358153Y-82966847D01*
X164333292Y-82936554D01*
X164314820Y-82901995D01*
X164303445Y-82864499D01*
X164299000Y-82819362D01*
X164299000Y-82180638D01*
X164303445Y-82135501D01*
X164314820Y-82098005D01*
X164333292Y-82063446D01*
X164358153Y-82033153D01*
X164388446Y-82008292D01*
X164423005Y-81989820D01*
X164460501Y-81978445D01*
X164505638Y-81974000D01*
X165244362Y-81974000D01*
X165289499Y-81978445D01*
X165289499Y-81978445D01*
G37*
G36*
X163539499Y-81978445D02*
G01*
X163576995Y-81989820D01*
X163611554Y-82008292D01*
X163641847Y-82033153D01*
X163666708Y-82063446D01*
X163685180Y-82098005D01*
X163696555Y-82135501D01*
X163701000Y-82180638D01*
X163701000Y-82819362D01*
X163696555Y-82864499D01*
X163685180Y-82901995D01*
X163666708Y-82936554D01*
X163641847Y-82966847D01*
X163611554Y-82991708D01*
X163576995Y-83010180D01*
X163539499Y-83021555D01*
X163494362Y-83026000D01*
X162755638Y-83026000D01*
X162710501Y-83021555D01*
X162673005Y-83010180D01*
X162638446Y-82991708D01*
X162608153Y-82966847D01*
X162583292Y-82936554D01*
X162564820Y-82901995D01*
X162553445Y-82864499D01*
X162549000Y-82819362D01*
X162549000Y-82180638D01*
X162553445Y-82135501D01*
X162564820Y-82098005D01*
X162583292Y-82063446D01*
X162608153Y-82033153D01*
X162638446Y-82008292D01*
X162673005Y-81989820D01*
X162710501Y-81978445D01*
X162755638Y-81974000D01*
X163494362Y-81974000D01*
X163539499Y-81978445D01*
X163539499Y-81978445D01*
G37*
G36*
X153039499Y-80978445D02*
G01*
X153076995Y-80989820D01*
X153111554Y-81008292D01*
X153141847Y-81033153D01*
X153166708Y-81063446D01*
X153185180Y-81098005D01*
X153196555Y-81135501D01*
X153201000Y-81180638D01*
X153201000Y-81819362D01*
X153196555Y-81864499D01*
X153185180Y-81901995D01*
X153166708Y-81936554D01*
X153141847Y-81966847D01*
X153111554Y-81991708D01*
X153076995Y-82010180D01*
X153039499Y-82021555D01*
X152994362Y-82026000D01*
X152255638Y-82026000D01*
X152210501Y-82021555D01*
X152173005Y-82010180D01*
X152138446Y-81991708D01*
X152108153Y-81966847D01*
X152083292Y-81936554D01*
X152064820Y-81901995D01*
X152053445Y-81864499D01*
X152049000Y-81819362D01*
X152049000Y-81180638D01*
X152053445Y-81135501D01*
X152064820Y-81098005D01*
X152083292Y-81063446D01*
X152108153Y-81033153D01*
X152138446Y-81008292D01*
X152173005Y-80989820D01*
X152210501Y-80978445D01*
X152255638Y-80974000D01*
X152994362Y-80974000D01*
X153039499Y-80978445D01*
X153039499Y-80978445D01*
G37*
G36*
X154789499Y-80978445D02*
G01*
X154826995Y-80989820D01*
X154861554Y-81008292D01*
X154891847Y-81033153D01*
X154916708Y-81063446D01*
X154935180Y-81098005D01*
X154946555Y-81135501D01*
X154951000Y-81180638D01*
X154951000Y-81819362D01*
X154946555Y-81864499D01*
X154935180Y-81901995D01*
X154916708Y-81936554D01*
X154891847Y-81966847D01*
X154861554Y-81991708D01*
X154826995Y-82010180D01*
X154789499Y-82021555D01*
X154744362Y-82026000D01*
X154005638Y-82026000D01*
X153960501Y-82021555D01*
X153923005Y-82010180D01*
X153888446Y-81991708D01*
X153858153Y-81966847D01*
X153833292Y-81936554D01*
X153814820Y-81901995D01*
X153803445Y-81864499D01*
X153799000Y-81819362D01*
X153799000Y-81180638D01*
X153803445Y-81135501D01*
X153814820Y-81098005D01*
X153833292Y-81063446D01*
X153858153Y-81033153D01*
X153888446Y-81008292D01*
X153923005Y-80989820D01*
X153960501Y-80978445D01*
X154005638Y-80974000D01*
X154744362Y-80974000D01*
X154789499Y-80978445D01*
X154789499Y-80978445D01*
G37*
G36*
X161251000Y-81176000D02*
G01*
X160049000Y-81176000D01*
X160049000Y-78824000D01*
X161251000Y-78824000D01*
X161251000Y-81176000D01*
X161251000Y-81176000D01*
G37*
G36*
X156951000Y-81176000D02*
G01*
X155749000Y-81176000D01*
X155749000Y-78824000D01*
X156951000Y-78824000D01*
X156951000Y-81176000D01*
X156951000Y-81176000D01*
G37*
G36*
X165289499Y-79978445D02*
G01*
X165326995Y-79989820D01*
X165361554Y-80008292D01*
X165391847Y-80033153D01*
X165416708Y-80063446D01*
X165435180Y-80098005D01*
X165446555Y-80135501D01*
X165451000Y-80180638D01*
X165451000Y-80819362D01*
X165446555Y-80864499D01*
X165435180Y-80901995D01*
X165416708Y-80936554D01*
X165391847Y-80966847D01*
X165361554Y-80991708D01*
X165326995Y-81010180D01*
X165289499Y-81021555D01*
X165244362Y-81026000D01*
X164505638Y-81026000D01*
X164460501Y-81021555D01*
X164423005Y-81010180D01*
X164388446Y-80991708D01*
X164358153Y-80966847D01*
X164333292Y-80936554D01*
X164314820Y-80901995D01*
X164303445Y-80864499D01*
X164299000Y-80819362D01*
X164299000Y-80180638D01*
X164303445Y-80135501D01*
X164314820Y-80098005D01*
X164333292Y-80063446D01*
X164358153Y-80033153D01*
X164388446Y-80008292D01*
X164423005Y-79989820D01*
X164460501Y-79978445D01*
X164505638Y-79974000D01*
X165244362Y-79974000D01*
X165289499Y-79978445D01*
X165289499Y-79978445D01*
G37*
G36*
X163539499Y-79978445D02*
G01*
X163576995Y-79989820D01*
X163611554Y-80008292D01*
X163641847Y-80033153D01*
X163666708Y-80063446D01*
X163685180Y-80098005D01*
X163696555Y-80135501D01*
X163701000Y-80180638D01*
X163701000Y-80819362D01*
X163696555Y-80864499D01*
X163685180Y-80901995D01*
X163666708Y-80936554D01*
X163641847Y-80966847D01*
X163611554Y-80991708D01*
X163576995Y-81010180D01*
X163539499Y-81021555D01*
X163494362Y-81026000D01*
X162755638Y-81026000D01*
X162710501Y-81021555D01*
X162673005Y-81010180D01*
X162638446Y-80991708D01*
X162608153Y-80966847D01*
X162583292Y-80936554D01*
X162564820Y-80901995D01*
X162553445Y-80864499D01*
X162549000Y-80819362D01*
X162549000Y-80180638D01*
X162553445Y-80135501D01*
X162564820Y-80098005D01*
X162583292Y-80063446D01*
X162608153Y-80033153D01*
X162638446Y-80008292D01*
X162673005Y-79989820D01*
X162710501Y-79978445D01*
X162755638Y-79974000D01*
X163494362Y-79974000D01*
X163539499Y-79978445D01*
X163539499Y-79978445D01*
G37*
G36*
X150822798Y-78353247D02*
G01*
X150858367Y-78364037D01*
X150891139Y-78381554D01*
X150919869Y-78405131D01*
X150943446Y-78433861D01*
X150960963Y-78466633D01*
X150971753Y-78502202D01*
X150976000Y-78545325D01*
X150976000Y-79829675D01*
X150971753Y-79872798D01*
X150960963Y-79908367D01*
X150943446Y-79941139D01*
X150919869Y-79969869D01*
X150891139Y-79993446D01*
X150858367Y-80010963D01*
X150822798Y-80021753D01*
X150779675Y-80026000D01*
X149720325Y-80026000D01*
X149677202Y-80021753D01*
X149641633Y-80010963D01*
X149608861Y-79993446D01*
X149580131Y-79969869D01*
X149556554Y-79941139D01*
X149539037Y-79908367D01*
X149528247Y-79872798D01*
X149524000Y-79829675D01*
X149524000Y-78545325D01*
X149528247Y-78502202D01*
X149539037Y-78466633D01*
X149556554Y-78433861D01*
X149580131Y-78405131D01*
X149608861Y-78381554D01*
X149641633Y-78364037D01*
X149677202Y-78353247D01*
X149720325Y-78349000D01*
X150779675Y-78349000D01*
X150822798Y-78353247D01*
X150822798Y-78353247D01*
G37*
G36*
X152864499Y-78803445D02*
G01*
X152901995Y-78814820D01*
X152936554Y-78833292D01*
X152966847Y-78858153D01*
X152991708Y-78888446D01*
X153010180Y-78923005D01*
X153021555Y-78960501D01*
X153026000Y-79005638D01*
X153026000Y-79744362D01*
X153021555Y-79789499D01*
X153010180Y-79826995D01*
X152991708Y-79861554D01*
X152966847Y-79891847D01*
X152936554Y-79916708D01*
X152901995Y-79935180D01*
X152864499Y-79946555D01*
X152819362Y-79951000D01*
X152180638Y-79951000D01*
X152135501Y-79946555D01*
X152098005Y-79935180D01*
X152063446Y-79916708D01*
X152033153Y-79891847D01*
X152008292Y-79861554D01*
X151989820Y-79826995D01*
X151978445Y-79789499D01*
X151974000Y-79744362D01*
X151974000Y-79005638D01*
X151978445Y-78960501D01*
X151989820Y-78923005D01*
X152008292Y-78888446D01*
X152033153Y-78858153D01*
X152063446Y-78833292D01*
X152098005Y-78814820D01*
X152135501Y-78803445D01*
X152180638Y-78799000D01*
X152819362Y-78799000D01*
X152864499Y-78803445D01*
X152864499Y-78803445D01*
G37*
G36*
X154864499Y-78803445D02*
G01*
X154901995Y-78814820D01*
X154936554Y-78833292D01*
X154966847Y-78858153D01*
X154991708Y-78888446D01*
X155010180Y-78923005D01*
X155021555Y-78960501D01*
X155026000Y-79005638D01*
X155026000Y-79744362D01*
X155021555Y-79789499D01*
X155010180Y-79826995D01*
X154991708Y-79861554D01*
X154966847Y-79891847D01*
X154936554Y-79916708D01*
X154901995Y-79935180D01*
X154864499Y-79946555D01*
X154819362Y-79951000D01*
X154180638Y-79951000D01*
X154135501Y-79946555D01*
X154098005Y-79935180D01*
X154063446Y-79916708D01*
X154033153Y-79891847D01*
X154008292Y-79861554D01*
X153989820Y-79826995D01*
X153978445Y-79789499D01*
X153974000Y-79744362D01*
X153974000Y-79005638D01*
X153978445Y-78960501D01*
X153989820Y-78923005D01*
X154008292Y-78888446D01*
X154033153Y-78858153D01*
X154063446Y-78833292D01*
X154098005Y-78814820D01*
X154135501Y-78803445D01*
X154180638Y-78799000D01*
X154819362Y-78799000D01*
X154864499Y-78803445D01*
X154864499Y-78803445D01*
G37*
G36*
X165289499Y-77978445D02*
G01*
X165326995Y-77989820D01*
X165361554Y-78008292D01*
X165391847Y-78033153D01*
X165416708Y-78063446D01*
X165435180Y-78098005D01*
X165446555Y-78135501D01*
X165451000Y-78180638D01*
X165451000Y-78819362D01*
X165446555Y-78864499D01*
X165435180Y-78901995D01*
X165416708Y-78936554D01*
X165391847Y-78966847D01*
X165361554Y-78991708D01*
X165326995Y-79010180D01*
X165289499Y-79021555D01*
X165244362Y-79026000D01*
X164505638Y-79026000D01*
X164460501Y-79021555D01*
X164423005Y-79010180D01*
X164388446Y-78991708D01*
X164358153Y-78966847D01*
X164333292Y-78936554D01*
X164314820Y-78901995D01*
X164303445Y-78864499D01*
X164299000Y-78819362D01*
X164299000Y-78180638D01*
X164303445Y-78135501D01*
X164314820Y-78098005D01*
X164333292Y-78063446D01*
X164358153Y-78033153D01*
X164388446Y-78008292D01*
X164423005Y-77989820D01*
X164460501Y-77978445D01*
X164505638Y-77974000D01*
X165244362Y-77974000D01*
X165289499Y-77978445D01*
X165289499Y-77978445D01*
G37*
G36*
X163539499Y-77978445D02*
G01*
X163576995Y-77989820D01*
X163611554Y-78008292D01*
X163641847Y-78033153D01*
X163666708Y-78063446D01*
X163685180Y-78098005D01*
X163696555Y-78135501D01*
X163701000Y-78180638D01*
X163701000Y-78819362D01*
X163696555Y-78864499D01*
X163685180Y-78901995D01*
X163666708Y-78936554D01*
X163641847Y-78966847D01*
X163611554Y-78991708D01*
X163576995Y-79010180D01*
X163539499Y-79021555D01*
X163494362Y-79026000D01*
X162755638Y-79026000D01*
X162710501Y-79021555D01*
X162673005Y-79010180D01*
X162638446Y-78991708D01*
X162608153Y-78966847D01*
X162583292Y-78936554D01*
X162564820Y-78901995D01*
X162553445Y-78864499D01*
X162549000Y-78819362D01*
X162549000Y-78180638D01*
X162553445Y-78135501D01*
X162564820Y-78098005D01*
X162583292Y-78063446D01*
X162608153Y-78033153D01*
X162638446Y-78008292D01*
X162673005Y-77989820D01*
X162710501Y-77978445D01*
X162755638Y-77974000D01*
X163494362Y-77974000D01*
X163539499Y-77978445D01*
X163539499Y-77978445D01*
G37*
G36*
X152864499Y-77053445D02*
G01*
X152901995Y-77064820D01*
X152936554Y-77083292D01*
X152966847Y-77108153D01*
X152991708Y-77138446D01*
X153010180Y-77173005D01*
X153021555Y-77210501D01*
X153026000Y-77255638D01*
X153026000Y-77994362D01*
X153021555Y-78039499D01*
X153010180Y-78076995D01*
X152991708Y-78111554D01*
X152966847Y-78141847D01*
X152936554Y-78166708D01*
X152901995Y-78185180D01*
X152864499Y-78196555D01*
X152819362Y-78201000D01*
X152180638Y-78201000D01*
X152135501Y-78196555D01*
X152098005Y-78185180D01*
X152063446Y-78166708D01*
X152033153Y-78141847D01*
X152008292Y-78111554D01*
X151989820Y-78076995D01*
X151978445Y-78039499D01*
X151974000Y-77994362D01*
X151974000Y-77255638D01*
X151978445Y-77210501D01*
X151989820Y-77173005D01*
X152008292Y-77138446D01*
X152033153Y-77108153D01*
X152063446Y-77083292D01*
X152098005Y-77064820D01*
X152135501Y-77053445D01*
X152180638Y-77049000D01*
X152819362Y-77049000D01*
X152864499Y-77053445D01*
X152864499Y-77053445D01*
G37*
G36*
X154864499Y-77053445D02*
G01*
X154901995Y-77064820D01*
X154936554Y-77083292D01*
X154966847Y-77108153D01*
X154991708Y-77138446D01*
X155010180Y-77173005D01*
X155021555Y-77210501D01*
X155026000Y-77255638D01*
X155026000Y-77994362D01*
X155021555Y-78039499D01*
X155010180Y-78076995D01*
X154991708Y-78111554D01*
X154966847Y-78141847D01*
X154936554Y-78166708D01*
X154901995Y-78185180D01*
X154864499Y-78196555D01*
X154819362Y-78201000D01*
X154180638Y-78201000D01*
X154135501Y-78196555D01*
X154098005Y-78185180D01*
X154063446Y-78166708D01*
X154033153Y-78141847D01*
X154008292Y-78111554D01*
X153989820Y-78076995D01*
X153978445Y-78039499D01*
X153974000Y-77994362D01*
X153974000Y-77255638D01*
X153978445Y-77210501D01*
X153989820Y-77173005D01*
X154008292Y-77138446D01*
X154033153Y-77108153D01*
X154063446Y-77083292D01*
X154098005Y-77064820D01*
X154135501Y-77053445D01*
X154180638Y-77049000D01*
X154819362Y-77049000D01*
X154864499Y-77053445D01*
X154864499Y-77053445D01*
G37*
G36*
X102636601Y-76684397D02*
G01*
X102675305Y-76692096D01*
X102707340Y-76705365D01*
X102784680Y-76737400D01*
X102883115Y-76803173D01*
X102966827Y-76886885D01*
X103032600Y-76985320D01*
X103060818Y-77053445D01*
X103077904Y-77094695D01*
X103080090Y-77105684D01*
X103101000Y-77210805D01*
X103101000Y-77329195D01*
X103077904Y-77445304D01*
X103032600Y-77554680D01*
X102966827Y-77653115D01*
X102883115Y-77736827D01*
X102784680Y-77802600D01*
X102707340Y-77834635D01*
X102675305Y-77847904D01*
X102636601Y-77855603D01*
X102559195Y-77871000D01*
X102440805Y-77871000D01*
X102363399Y-77855603D01*
X102324695Y-77847904D01*
X102292660Y-77834635D01*
X102215320Y-77802600D01*
X102116885Y-77736827D01*
X102033173Y-77653115D01*
X101967400Y-77554680D01*
X101922096Y-77445304D01*
X101899000Y-77329195D01*
X101899000Y-77210805D01*
X101919910Y-77105684D01*
X101922096Y-77094695D01*
X101939182Y-77053445D01*
X101967400Y-76985320D01*
X102033173Y-76886885D01*
X102116885Y-76803173D01*
X102215320Y-76737400D01*
X102292660Y-76705365D01*
X102324695Y-76692096D01*
X102363399Y-76684397D01*
X102440805Y-76669000D01*
X102559195Y-76669000D01*
X102636601Y-76684397D01*
X102636601Y-76684397D01*
G37*
G36*
X156864499Y-76303445D02*
G01*
X156901995Y-76314820D01*
X156936554Y-76333292D01*
X156966847Y-76358153D01*
X156991708Y-76388446D01*
X157010180Y-76423005D01*
X157021555Y-76460501D01*
X157026000Y-76505638D01*
X157026000Y-77244362D01*
X157021555Y-77289499D01*
X157010180Y-77326995D01*
X156991708Y-77361554D01*
X156966847Y-77391847D01*
X156936554Y-77416708D01*
X156901995Y-77435180D01*
X156864499Y-77446555D01*
X156819362Y-77451000D01*
X156180638Y-77451000D01*
X156135501Y-77446555D01*
X156098005Y-77435180D01*
X156063446Y-77416708D01*
X156033153Y-77391847D01*
X156008292Y-77361554D01*
X155989820Y-77326995D01*
X155978445Y-77289499D01*
X155974000Y-77244362D01*
X155974000Y-76505638D01*
X155978445Y-76460501D01*
X155989820Y-76423005D01*
X156008292Y-76388446D01*
X156033153Y-76358153D01*
X156063446Y-76333292D01*
X156098005Y-76314820D01*
X156135501Y-76303445D01*
X156180638Y-76299000D01*
X156819362Y-76299000D01*
X156864499Y-76303445D01*
X156864499Y-76303445D01*
G37*
G36*
X150822798Y-75478247D02*
G01*
X150858367Y-75489037D01*
X150891139Y-75506554D01*
X150919869Y-75530131D01*
X150943446Y-75558861D01*
X150960963Y-75591633D01*
X150971753Y-75627202D01*
X150976000Y-75670325D01*
X150976000Y-76954675D01*
X150971753Y-76997798D01*
X150960963Y-77033367D01*
X150943446Y-77066139D01*
X150919869Y-77094869D01*
X150891139Y-77118446D01*
X150858367Y-77135963D01*
X150822798Y-77146753D01*
X150779675Y-77151000D01*
X149720325Y-77151000D01*
X149677202Y-77146753D01*
X149641633Y-77135963D01*
X149608861Y-77118446D01*
X149580131Y-77094869D01*
X149556554Y-77066139D01*
X149539037Y-77033367D01*
X149528247Y-76997798D01*
X149524000Y-76954675D01*
X149524000Y-75670325D01*
X149528247Y-75627202D01*
X149539037Y-75591633D01*
X149556554Y-75558861D01*
X149580131Y-75530131D01*
X149608861Y-75506554D01*
X149641633Y-75489037D01*
X149677202Y-75478247D01*
X149720325Y-75474000D01*
X150779675Y-75474000D01*
X150822798Y-75478247D01*
X150822798Y-75478247D01*
G37*
G36*
X165289499Y-75978445D02*
G01*
X165326995Y-75989820D01*
X165361554Y-76008292D01*
X165391847Y-76033153D01*
X165416708Y-76063446D01*
X165435180Y-76098005D01*
X165446555Y-76135501D01*
X165451000Y-76180638D01*
X165451000Y-76819362D01*
X165446555Y-76864499D01*
X165435180Y-76901995D01*
X165416708Y-76936554D01*
X165391847Y-76966847D01*
X165361554Y-76991708D01*
X165326995Y-77010180D01*
X165289499Y-77021555D01*
X165244362Y-77026000D01*
X164505638Y-77026000D01*
X164460501Y-77021555D01*
X164423005Y-77010180D01*
X164388446Y-76991708D01*
X164358153Y-76966847D01*
X164333292Y-76936554D01*
X164314820Y-76901995D01*
X164303445Y-76864499D01*
X164299000Y-76819362D01*
X164299000Y-76180638D01*
X164303445Y-76135501D01*
X164314820Y-76098005D01*
X164333292Y-76063446D01*
X164358153Y-76033153D01*
X164388446Y-76008292D01*
X164423005Y-75989820D01*
X164460501Y-75978445D01*
X164505638Y-75974000D01*
X165244362Y-75974000D01*
X165289499Y-75978445D01*
X165289499Y-75978445D01*
G37*
G36*
X163539499Y-75978445D02*
G01*
X163576995Y-75989820D01*
X163611554Y-76008292D01*
X163641847Y-76033153D01*
X163666708Y-76063446D01*
X163685180Y-76098005D01*
X163696555Y-76135501D01*
X163701000Y-76180638D01*
X163701000Y-76819362D01*
X163696555Y-76864499D01*
X163685180Y-76901995D01*
X163666708Y-76936554D01*
X163641847Y-76966847D01*
X163611554Y-76991708D01*
X163576995Y-77010180D01*
X163539499Y-77021555D01*
X163494362Y-77026000D01*
X162755638Y-77026000D01*
X162710501Y-77021555D01*
X162673005Y-77010180D01*
X162638446Y-76991708D01*
X162608153Y-76966847D01*
X162583292Y-76936554D01*
X162564820Y-76901995D01*
X162553445Y-76864499D01*
X162549000Y-76819362D01*
X162549000Y-76180638D01*
X162553445Y-76135501D01*
X162564820Y-76098005D01*
X162583292Y-76063446D01*
X162608153Y-76033153D01*
X162638446Y-76008292D01*
X162673005Y-75989820D01*
X162710501Y-75978445D01*
X162755638Y-75974000D01*
X163494362Y-75974000D01*
X163539499Y-75978445D01*
X163539499Y-75978445D01*
G37*
G36*
X161501000Y-75901000D02*
G01*
X160499000Y-75901000D01*
X160499000Y-74999000D01*
X161501000Y-74999000D01*
X161501000Y-75901000D01*
X161501000Y-75901000D01*
G37*
G36*
X156864499Y-74553445D02*
G01*
X156901995Y-74564820D01*
X156936554Y-74583292D01*
X156966847Y-74608153D01*
X156991708Y-74638446D01*
X157010180Y-74673005D01*
X157021555Y-74710501D01*
X157026000Y-74755638D01*
X157026000Y-75494362D01*
X157021555Y-75539499D01*
X157010180Y-75576995D01*
X156991708Y-75611554D01*
X156966847Y-75641847D01*
X156936554Y-75666708D01*
X156901995Y-75685180D01*
X156864499Y-75696555D01*
X156819362Y-75701000D01*
X156180638Y-75701000D01*
X156135501Y-75696555D01*
X156098005Y-75685180D01*
X156063446Y-75666708D01*
X156033153Y-75641847D01*
X156008292Y-75611554D01*
X155989820Y-75576995D01*
X155978445Y-75539499D01*
X155974000Y-75494362D01*
X155974000Y-74755638D01*
X155978445Y-74710501D01*
X155989820Y-74673005D01*
X156008292Y-74638446D01*
X156033153Y-74608153D01*
X156063446Y-74583292D01*
X156098005Y-74564820D01*
X156135501Y-74553445D01*
X156180638Y-74549000D01*
X156819362Y-74549000D01*
X156864499Y-74553445D01*
X156864499Y-74553445D01*
G37*
G36*
X112796601Y-74144397D02*
G01*
X112835305Y-74152096D01*
X112867340Y-74165365D01*
X112944680Y-74197400D01*
X113043115Y-74263173D01*
X113126827Y-74346885D01*
X113192600Y-74445320D01*
X113237904Y-74554696D01*
X113261000Y-74670805D01*
X113261000Y-74789195D01*
X113256004Y-74814309D01*
X113237904Y-74905305D01*
X113224960Y-74936554D01*
X113192600Y-75014680D01*
X113126827Y-75113115D01*
X113043115Y-75196827D01*
X112944680Y-75262600D01*
X112867340Y-75294635D01*
X112835305Y-75307904D01*
X112796601Y-75315603D01*
X112719195Y-75331000D01*
X112600805Y-75331000D01*
X112523399Y-75315603D01*
X112484695Y-75307904D01*
X112452660Y-75294635D01*
X112375320Y-75262600D01*
X112276885Y-75196827D01*
X112193173Y-75113115D01*
X112127400Y-75014680D01*
X112095040Y-74936554D01*
X112082096Y-74905305D01*
X112063996Y-74814309D01*
X112059000Y-74789195D01*
X112059000Y-74670805D01*
X112082096Y-74554696D01*
X112127400Y-74445320D01*
X112193173Y-74346885D01*
X112276885Y-74263173D01*
X112375320Y-74197400D01*
X112452660Y-74165365D01*
X112484695Y-74152096D01*
X112523399Y-74144397D01*
X112600805Y-74129000D01*
X112719195Y-74129000D01*
X112796601Y-74144397D01*
X112796601Y-74144397D01*
G37*
G36*
X110256601Y-74144397D02*
G01*
X110295305Y-74152096D01*
X110327340Y-74165365D01*
X110404680Y-74197400D01*
X110503115Y-74263173D01*
X110586827Y-74346885D01*
X110652600Y-74445320D01*
X110697904Y-74554696D01*
X110721000Y-74670805D01*
X110721000Y-74789195D01*
X110716004Y-74814309D01*
X110697904Y-74905305D01*
X110684960Y-74936554D01*
X110652600Y-75014680D01*
X110586827Y-75113115D01*
X110503115Y-75196827D01*
X110404680Y-75262600D01*
X110327340Y-75294635D01*
X110295305Y-75307904D01*
X110256601Y-75315603D01*
X110179195Y-75331000D01*
X110060805Y-75331000D01*
X109983399Y-75315603D01*
X109944695Y-75307904D01*
X109912660Y-75294635D01*
X109835320Y-75262600D01*
X109736885Y-75196827D01*
X109653173Y-75113115D01*
X109587400Y-75014680D01*
X109555040Y-74936554D01*
X109542096Y-74905305D01*
X109523996Y-74814309D01*
X109519000Y-74789195D01*
X109519000Y-74670805D01*
X109542096Y-74554696D01*
X109587400Y-74445320D01*
X109653173Y-74346885D01*
X109736885Y-74263173D01*
X109835320Y-74197400D01*
X109912660Y-74165365D01*
X109944695Y-74152096D01*
X109983399Y-74144397D01*
X110060805Y-74129000D01*
X110179195Y-74129000D01*
X110256601Y-74144397D01*
X110256601Y-74144397D01*
G37*
G36*
X102636601Y-74144397D02*
G01*
X102675305Y-74152096D01*
X102707340Y-74165365D01*
X102784680Y-74197400D01*
X102883115Y-74263173D01*
X102966827Y-74346885D01*
X103032600Y-74445320D01*
X103077904Y-74554696D01*
X103101000Y-74670805D01*
X103101000Y-74789195D01*
X103096004Y-74814309D01*
X103077904Y-74905305D01*
X103064960Y-74936554D01*
X103032600Y-75014680D01*
X102966827Y-75113115D01*
X102883115Y-75196827D01*
X102784680Y-75262600D01*
X102707340Y-75294635D01*
X102675305Y-75307904D01*
X102636601Y-75315603D01*
X102559195Y-75331000D01*
X102440805Y-75331000D01*
X102363399Y-75315603D01*
X102324695Y-75307904D01*
X102292660Y-75294635D01*
X102215320Y-75262600D01*
X102116885Y-75196827D01*
X102033173Y-75113115D01*
X101967400Y-75014680D01*
X101935040Y-74936554D01*
X101922096Y-74905305D01*
X101903996Y-74814309D01*
X101899000Y-74789195D01*
X101899000Y-74670805D01*
X101922096Y-74554696D01*
X101967400Y-74445320D01*
X102033173Y-74346885D01*
X102116885Y-74263173D01*
X102215320Y-74197400D01*
X102292660Y-74165365D01*
X102324695Y-74152096D01*
X102363399Y-74144397D01*
X102440805Y-74129000D01*
X102559195Y-74129000D01*
X102636601Y-74144397D01*
X102636601Y-74144397D01*
G37*
G36*
X107716601Y-74144397D02*
G01*
X107755305Y-74152096D01*
X107787340Y-74165365D01*
X107864680Y-74197400D01*
X107963115Y-74263173D01*
X108046827Y-74346885D01*
X108112600Y-74445320D01*
X108157904Y-74554696D01*
X108181000Y-74670805D01*
X108181000Y-74789195D01*
X108176004Y-74814309D01*
X108157904Y-74905305D01*
X108144960Y-74936554D01*
X108112600Y-75014680D01*
X108046827Y-75113115D01*
X107963115Y-75196827D01*
X107864680Y-75262600D01*
X107787340Y-75294635D01*
X107755305Y-75307904D01*
X107716601Y-75315603D01*
X107639195Y-75331000D01*
X107520805Y-75331000D01*
X107443399Y-75315603D01*
X107404695Y-75307904D01*
X107372660Y-75294635D01*
X107295320Y-75262600D01*
X107196885Y-75196827D01*
X107113173Y-75113115D01*
X107047400Y-75014680D01*
X107015040Y-74936554D01*
X107002096Y-74905305D01*
X106983996Y-74814309D01*
X106979000Y-74789195D01*
X106979000Y-74670805D01*
X107002096Y-74554696D01*
X107047400Y-74445320D01*
X107113173Y-74346885D01*
X107196885Y-74263173D01*
X107295320Y-74197400D01*
X107372660Y-74165365D01*
X107404695Y-74152096D01*
X107443399Y-74144397D01*
X107520805Y-74129000D01*
X107639195Y-74129000D01*
X107716601Y-74144397D01*
X107716601Y-74144397D01*
G37*
G36*
X163539499Y-73978445D02*
G01*
X163576995Y-73989820D01*
X163611554Y-74008292D01*
X163641847Y-74033153D01*
X163666708Y-74063446D01*
X163685180Y-74098005D01*
X163696555Y-74135501D01*
X163701000Y-74180638D01*
X163701000Y-74819362D01*
X163696555Y-74864499D01*
X163685180Y-74901995D01*
X163666708Y-74936554D01*
X163641847Y-74966847D01*
X163611554Y-74991708D01*
X163576995Y-75010180D01*
X163539499Y-75021555D01*
X163494362Y-75026000D01*
X162755638Y-75026000D01*
X162710501Y-75021555D01*
X162673005Y-75010180D01*
X162638446Y-74991708D01*
X162608153Y-74966847D01*
X162583292Y-74936554D01*
X162564820Y-74901995D01*
X162553445Y-74864499D01*
X162549000Y-74819362D01*
X162549000Y-74180638D01*
X162553445Y-74135501D01*
X162564820Y-74098005D01*
X162583292Y-74063446D01*
X162608153Y-74033153D01*
X162638446Y-74008292D01*
X162673005Y-73989820D01*
X162710501Y-73978445D01*
X162755638Y-73974000D01*
X163494362Y-73974000D01*
X163539499Y-73978445D01*
X163539499Y-73978445D01*
G37*
G36*
X165289499Y-73978445D02*
G01*
X165326995Y-73989820D01*
X165361554Y-74008292D01*
X165391847Y-74033153D01*
X165416708Y-74063446D01*
X165435180Y-74098005D01*
X165446555Y-74135501D01*
X165451000Y-74180638D01*
X165451000Y-74819362D01*
X165446555Y-74864499D01*
X165435180Y-74901995D01*
X165416708Y-74936554D01*
X165391847Y-74966847D01*
X165361554Y-74991708D01*
X165326995Y-75010180D01*
X165289499Y-75021555D01*
X165244362Y-75026000D01*
X164505638Y-75026000D01*
X164460501Y-75021555D01*
X164423005Y-75010180D01*
X164388446Y-74991708D01*
X164358153Y-74966847D01*
X164333292Y-74936554D01*
X164314820Y-74901995D01*
X164303445Y-74864499D01*
X164299000Y-74819362D01*
X164299000Y-74180638D01*
X164303445Y-74135501D01*
X164314820Y-74098005D01*
X164333292Y-74063446D01*
X164358153Y-74033153D01*
X164388446Y-74008292D01*
X164423005Y-73989820D01*
X164460501Y-73978445D01*
X164505638Y-73974000D01*
X165244362Y-73974000D01*
X165289499Y-73978445D01*
X165289499Y-73978445D01*
G37*
G36*
X159501000Y-74951000D02*
G01*
X158499000Y-74951000D01*
X158499000Y-74049000D01*
X159501000Y-74049000D01*
X159501000Y-74951000D01*
X159501000Y-74951000D01*
G37*
G36*
X161501000Y-74001000D02*
G01*
X160499000Y-74001000D01*
X160499000Y-73099000D01*
X161501000Y-73099000D01*
X161501000Y-74001000D01*
X161501000Y-74001000D01*
G37*
G36*
X163539499Y-71978445D02*
G01*
X163576995Y-71989820D01*
X163611554Y-72008292D01*
X163641847Y-72033153D01*
X163666708Y-72063446D01*
X163685180Y-72098005D01*
X163696555Y-72135501D01*
X163701000Y-72180638D01*
X163701000Y-72819362D01*
X163696555Y-72864499D01*
X163685180Y-72901995D01*
X163666708Y-72936554D01*
X163641847Y-72966847D01*
X163611554Y-72991708D01*
X163576995Y-73010180D01*
X163539499Y-73021555D01*
X163494362Y-73026000D01*
X162755638Y-73026000D01*
X162710501Y-73021555D01*
X162673005Y-73010180D01*
X162638446Y-72991708D01*
X162608153Y-72966847D01*
X162583292Y-72936554D01*
X162564820Y-72901995D01*
X162553445Y-72864499D01*
X162549000Y-72819362D01*
X162549000Y-72180638D01*
X162553445Y-72135501D01*
X162564820Y-72098005D01*
X162583292Y-72063446D01*
X162608153Y-72033153D01*
X162638446Y-72008292D01*
X162673005Y-71989820D01*
X162710501Y-71978445D01*
X162755638Y-71974000D01*
X163494362Y-71974000D01*
X163539499Y-71978445D01*
X163539499Y-71978445D01*
G37*
G36*
X165289499Y-71978445D02*
G01*
X165326995Y-71989820D01*
X165361554Y-72008292D01*
X165391847Y-72033153D01*
X165416708Y-72063446D01*
X165435180Y-72098005D01*
X165446555Y-72135501D01*
X165451000Y-72180638D01*
X165451000Y-72819362D01*
X165446555Y-72864499D01*
X165435180Y-72901995D01*
X165416708Y-72936554D01*
X165391847Y-72966847D01*
X165361554Y-72991708D01*
X165326995Y-73010180D01*
X165289499Y-73021555D01*
X165244362Y-73026000D01*
X164505638Y-73026000D01*
X164460501Y-73021555D01*
X164423005Y-73010180D01*
X164388446Y-72991708D01*
X164358153Y-72966847D01*
X164333292Y-72936554D01*
X164314820Y-72901995D01*
X164303445Y-72864499D01*
X164299000Y-72819362D01*
X164299000Y-72180638D01*
X164303445Y-72135501D01*
X164314820Y-72098005D01*
X164333292Y-72063446D01*
X164358153Y-72033153D01*
X164388446Y-72008292D01*
X164423005Y-71989820D01*
X164460501Y-71978445D01*
X164505638Y-71974000D01*
X165244362Y-71974000D01*
X165289499Y-71978445D01*
X165289499Y-71978445D01*
G37*
G36*
X207263500Y-71461886D02*
G01*
X207264102Y-71474138D01*
X207266649Y-71500000D01*
X207264102Y-71525862D01*
X207263500Y-71538114D01*
X207263500Y-71611406D01*
X207254543Y-71628164D01*
X207250415Y-71639701D01*
X207224632Y-71724693D01*
X207216854Y-71750336D01*
X207156406Y-71863425D01*
X207075054Y-71962554D01*
X206975925Y-72043906D01*
X206862836Y-72104354D01*
X206830904Y-72114040D01*
X206740118Y-72141580D01*
X206676355Y-72147860D01*
X206644474Y-72151000D01*
X205880526Y-72151000D01*
X205848645Y-72147860D01*
X205784882Y-72141580D01*
X205694096Y-72114040D01*
X205662164Y-72104354D01*
X205549075Y-72043906D01*
X205449946Y-71962554D01*
X205368594Y-71863425D01*
X205308146Y-71750336D01*
X205300368Y-71724693D01*
X205274587Y-71639708D01*
X205265213Y-71617075D01*
X205261500Y-71611518D01*
X205261500Y-71538114D01*
X205260898Y-71525862D01*
X205258351Y-71500000D01*
X205260898Y-71474138D01*
X205261500Y-71461886D01*
X205261500Y-70249000D01*
X207263500Y-70249000D01*
X207263500Y-71461886D01*
X207263500Y-71461886D01*
G37*
G36*
X203788848Y-64753820D02*
G01*
X203788850Y-64753821D01*
X203788851Y-64753821D01*
X203930074Y-64812317D01*
X203930077Y-64812319D01*
X204057169Y-64897239D01*
X204165261Y-65005331D01*
X204250181Y-65132423D01*
X204250183Y-65132426D01*
X204308679Y-65273649D01*
X204308680Y-65273652D01*
X204338500Y-65423569D01*
X204338500Y-65576431D01*
X204326581Y-65636354D01*
X204308679Y-65726351D01*
X204250183Y-65867574D01*
X204250181Y-65867577D01*
X204165261Y-65994669D01*
X204057169Y-66102761D01*
X203972440Y-66159375D01*
X203930074Y-66187683D01*
X203879772Y-66208519D01*
X203858164Y-66220068D01*
X203839222Y-66235614D01*
X203823677Y-66254556D01*
X203812126Y-66276166D01*
X203805013Y-66299615D01*
X203802611Y-66324001D01*
X203805013Y-66348387D01*
X203812126Y-66371836D01*
X203823677Y-66393447D01*
X203839223Y-66412389D01*
X203858165Y-66427934D01*
X203879775Y-66439485D01*
X203903224Y-66446598D01*
X203927610Y-66449000D01*
X204288500Y-66449000D01*
X204288500Y-69551000D01*
X203927610Y-69551000D01*
X203903224Y-69553402D01*
X203879775Y-69560515D01*
X203858164Y-69572066D01*
X203839222Y-69587611D01*
X203823677Y-69606553D01*
X203812126Y-69628164D01*
X203805013Y-69651613D01*
X203802611Y-69675999D01*
X203805013Y-69700385D01*
X203812126Y-69723834D01*
X203823677Y-69745445D01*
X203839222Y-69764387D01*
X203858164Y-69779932D01*
X203879772Y-69791481D01*
X203930074Y-69812317D01*
X203972440Y-69840625D01*
X204057169Y-69897239D01*
X204165261Y-70005331D01*
X204250181Y-70132423D01*
X204250183Y-70132426D01*
X204298469Y-70249000D01*
X204308680Y-70273652D01*
X204335625Y-70409115D01*
X204338500Y-70423571D01*
X204338500Y-70576429D01*
X204308679Y-70726351D01*
X204250183Y-70867574D01*
X204250181Y-70867577D01*
X204165261Y-70994669D01*
X204057169Y-71102761D01*
X204006564Y-71136574D01*
X203930074Y-71187683D01*
X203788851Y-71246179D01*
X203788850Y-71246179D01*
X203788848Y-71246180D01*
X203638931Y-71276000D01*
X203486069Y-71276000D01*
X203336152Y-71246180D01*
X203336150Y-71246179D01*
X203336149Y-71246179D01*
X203194926Y-71187683D01*
X203118436Y-71136574D01*
X203067831Y-71102761D01*
X202959739Y-70994669D01*
X202874819Y-70867577D01*
X202874817Y-70867574D01*
X202816321Y-70726351D01*
X202786500Y-70576429D01*
X202786500Y-70423571D01*
X202789375Y-70409115D01*
X202816320Y-70273652D01*
X202826531Y-70249000D01*
X202874817Y-70132426D01*
X202874819Y-70132423D01*
X202959739Y-70005331D01*
X203067831Y-69897239D01*
X203152560Y-69840625D01*
X203194926Y-69812317D01*
X203245228Y-69791481D01*
X203266836Y-69779932D01*
X203285778Y-69764386D01*
X203301323Y-69745444D01*
X203312874Y-69723834D01*
X203319987Y-69700385D01*
X203322389Y-69675999D01*
X203319987Y-69651613D01*
X203312874Y-69628164D01*
X203301323Y-69606553D01*
X203285777Y-69587611D01*
X203266835Y-69572066D01*
X203245225Y-69560515D01*
X203221776Y-69553402D01*
X203197390Y-69551000D01*
X202836500Y-69551000D01*
X202836500Y-66449000D01*
X203197390Y-66449000D01*
X203221776Y-66446598D01*
X203245225Y-66439485D01*
X203266836Y-66427934D01*
X203285778Y-66412389D01*
X203301323Y-66393447D01*
X203312874Y-66371836D01*
X203319987Y-66348387D01*
X203322389Y-66324001D01*
X203319987Y-66299615D01*
X203312874Y-66276166D01*
X203301323Y-66254555D01*
X203285778Y-66235613D01*
X203266836Y-66220068D01*
X203245228Y-66208519D01*
X203194926Y-66187683D01*
X203152560Y-66159375D01*
X203067831Y-66102761D01*
X202959739Y-65994669D01*
X202874819Y-65867577D01*
X202874817Y-65867574D01*
X202816321Y-65726351D01*
X202798420Y-65636354D01*
X202786500Y-65576431D01*
X202786500Y-65423569D01*
X202816320Y-65273652D01*
X202816321Y-65273649D01*
X202874817Y-65132426D01*
X202874819Y-65132423D01*
X202959739Y-65005331D01*
X203067831Y-64897239D01*
X203194923Y-64812319D01*
X203194926Y-64812317D01*
X203336149Y-64753821D01*
X203336150Y-64753821D01*
X203336152Y-64753820D01*
X203486069Y-64724000D01*
X203638931Y-64724000D01*
X203788848Y-64753820D01*
X203788848Y-64753820D01*
G37*
G36*
X124289499Y-69978445D02*
G01*
X124326995Y-69989820D01*
X124361554Y-70008292D01*
X124391847Y-70033153D01*
X124416708Y-70063446D01*
X124435180Y-70098005D01*
X124446555Y-70135501D01*
X124451000Y-70180638D01*
X124451000Y-70819362D01*
X124446555Y-70864499D01*
X124435180Y-70901995D01*
X124416708Y-70936554D01*
X124391847Y-70966847D01*
X124361554Y-70991708D01*
X124326995Y-71010180D01*
X124289499Y-71021555D01*
X124244362Y-71026000D01*
X123505638Y-71026000D01*
X123460501Y-71021555D01*
X123423005Y-71010180D01*
X123388446Y-70991708D01*
X123358153Y-70966847D01*
X123333292Y-70936554D01*
X123314820Y-70901995D01*
X123303445Y-70864499D01*
X123299000Y-70819362D01*
X123299000Y-70180638D01*
X123303445Y-70135501D01*
X123314820Y-70098005D01*
X123333292Y-70063446D01*
X123358153Y-70033153D01*
X123388446Y-70008292D01*
X123423005Y-69989820D01*
X123460501Y-69978445D01*
X123505638Y-69974000D01*
X124244362Y-69974000D01*
X124289499Y-69978445D01*
X124289499Y-69978445D01*
G37*
G36*
X165289499Y-69978445D02*
G01*
X165326995Y-69989820D01*
X165361554Y-70008292D01*
X165391847Y-70033153D01*
X165416708Y-70063446D01*
X165435180Y-70098005D01*
X165446555Y-70135501D01*
X165451000Y-70180638D01*
X165451000Y-70819362D01*
X165446555Y-70864499D01*
X165435180Y-70901995D01*
X165416708Y-70936554D01*
X165391847Y-70966847D01*
X165361554Y-70991708D01*
X165326995Y-71010180D01*
X165289499Y-71021555D01*
X165244362Y-71026000D01*
X164505638Y-71026000D01*
X164460501Y-71021555D01*
X164423005Y-71010180D01*
X164388446Y-70991708D01*
X164358153Y-70966847D01*
X164333292Y-70936554D01*
X164314820Y-70901995D01*
X164303445Y-70864499D01*
X164299000Y-70819362D01*
X164299000Y-70180638D01*
X164303445Y-70135501D01*
X164314820Y-70098005D01*
X164333292Y-70063446D01*
X164358153Y-70033153D01*
X164388446Y-70008292D01*
X164423005Y-69989820D01*
X164460501Y-69978445D01*
X164505638Y-69974000D01*
X165244362Y-69974000D01*
X165289499Y-69978445D01*
X165289499Y-69978445D01*
G37*
G36*
X163539499Y-69978445D02*
G01*
X163576995Y-69989820D01*
X163611554Y-70008292D01*
X163641847Y-70033153D01*
X163666708Y-70063446D01*
X163685180Y-70098005D01*
X163696555Y-70135501D01*
X163701000Y-70180638D01*
X163701000Y-70819362D01*
X163696555Y-70864499D01*
X163685180Y-70901995D01*
X163666708Y-70936554D01*
X163641847Y-70966847D01*
X163611554Y-70991708D01*
X163576995Y-71010180D01*
X163539499Y-71021555D01*
X163494362Y-71026000D01*
X162755638Y-71026000D01*
X162710501Y-71021555D01*
X162673005Y-71010180D01*
X162638446Y-70991708D01*
X162608153Y-70966847D01*
X162583292Y-70936554D01*
X162564820Y-70901995D01*
X162553445Y-70864499D01*
X162549000Y-70819362D01*
X162549000Y-70180638D01*
X162553445Y-70135501D01*
X162564820Y-70098005D01*
X162583292Y-70063446D01*
X162608153Y-70033153D01*
X162638446Y-70008292D01*
X162673005Y-69989820D01*
X162710501Y-69978445D01*
X162755638Y-69974000D01*
X163494362Y-69974000D01*
X163539499Y-69978445D01*
X163539499Y-69978445D01*
G37*
G36*
X122539499Y-69978445D02*
G01*
X122576995Y-69989820D01*
X122611554Y-70008292D01*
X122641847Y-70033153D01*
X122666708Y-70063446D01*
X122685180Y-70098005D01*
X122696555Y-70135501D01*
X122701000Y-70180638D01*
X122701000Y-70819362D01*
X122696555Y-70864499D01*
X122685180Y-70901995D01*
X122666708Y-70936554D01*
X122641847Y-70966847D01*
X122611554Y-70991708D01*
X122576995Y-71010180D01*
X122539499Y-71021555D01*
X122494362Y-71026000D01*
X121755638Y-71026000D01*
X121710501Y-71021555D01*
X121673005Y-71010180D01*
X121638446Y-70991708D01*
X121608153Y-70966847D01*
X121583292Y-70936554D01*
X121564820Y-70901995D01*
X121553445Y-70864499D01*
X121549000Y-70819362D01*
X121549000Y-70180638D01*
X121553445Y-70135501D01*
X121564820Y-70098005D01*
X121583292Y-70063446D01*
X121608153Y-70033153D01*
X121638446Y-70008292D01*
X121673005Y-69989820D01*
X121710501Y-69978445D01*
X121755638Y-69974000D01*
X122494362Y-69974000D01*
X122539499Y-69978445D01*
X122539499Y-69978445D01*
G37*
G36*
X197039499Y-69478445D02*
G01*
X197076995Y-69489820D01*
X197111554Y-69508292D01*
X197141847Y-69533153D01*
X197166708Y-69563446D01*
X197185180Y-69598005D01*
X197196555Y-69635501D01*
X197201000Y-69680638D01*
X197201000Y-70319362D01*
X197196555Y-70364499D01*
X197185180Y-70401995D01*
X197166708Y-70436554D01*
X197141847Y-70466847D01*
X197111554Y-70491708D01*
X197076995Y-70510180D01*
X197039499Y-70521555D01*
X196994362Y-70526000D01*
X196255638Y-70526000D01*
X196210501Y-70521555D01*
X196173005Y-70510180D01*
X196138446Y-70491708D01*
X196108153Y-70466847D01*
X196083292Y-70436554D01*
X196064820Y-70401995D01*
X196053445Y-70364499D01*
X196049000Y-70319362D01*
X196049000Y-69680638D01*
X196053445Y-69635501D01*
X196064820Y-69598005D01*
X196083292Y-69563446D01*
X196108153Y-69533153D01*
X196138446Y-69508292D01*
X196173005Y-69489820D01*
X196210501Y-69478445D01*
X196255638Y-69474000D01*
X196994362Y-69474000D01*
X197039499Y-69478445D01*
X197039499Y-69478445D01*
G37*
G36*
X198789499Y-69478445D02*
G01*
X198826995Y-69489820D01*
X198861554Y-69508292D01*
X198891847Y-69533153D01*
X198916708Y-69563446D01*
X198935180Y-69598005D01*
X198946555Y-69635501D01*
X198951000Y-69680638D01*
X198951000Y-70319362D01*
X198946555Y-70364499D01*
X198935180Y-70401995D01*
X198916708Y-70436554D01*
X198891847Y-70466847D01*
X198861554Y-70491708D01*
X198826995Y-70510180D01*
X198789499Y-70521555D01*
X198744362Y-70526000D01*
X198005638Y-70526000D01*
X197960501Y-70521555D01*
X197923005Y-70510180D01*
X197888446Y-70491708D01*
X197858153Y-70466847D01*
X197833292Y-70436554D01*
X197814820Y-70401995D01*
X197803445Y-70364499D01*
X197799000Y-70319362D01*
X197799000Y-69680638D01*
X197803445Y-69635501D01*
X197814820Y-69598005D01*
X197833292Y-69563446D01*
X197858153Y-69533153D01*
X197888446Y-69508292D01*
X197923005Y-69489820D01*
X197960501Y-69478445D01*
X198005638Y-69474000D01*
X198744362Y-69474000D01*
X198789499Y-69478445D01*
X198789499Y-69478445D01*
G37*
G36*
X102636601Y-69184397D02*
G01*
X102675305Y-69192096D01*
X102707340Y-69205365D01*
X102784680Y-69237400D01*
X102883115Y-69303173D01*
X102966827Y-69386885D01*
X103032600Y-69485320D01*
X103059805Y-69551000D01*
X103076326Y-69590885D01*
X103077904Y-69594696D01*
X103101000Y-69710805D01*
X103101000Y-69829195D01*
X103077904Y-69945304D01*
X103032600Y-70054680D01*
X102966827Y-70153115D01*
X102883115Y-70236827D01*
X102784680Y-70302600D01*
X102707340Y-70334635D01*
X102675305Y-70347904D01*
X102636601Y-70355603D01*
X102559195Y-70371000D01*
X102440805Y-70371000D01*
X102363399Y-70355603D01*
X102324695Y-70347904D01*
X102292660Y-70334635D01*
X102215320Y-70302600D01*
X102116885Y-70236827D01*
X102033173Y-70153115D01*
X101967400Y-70054680D01*
X101922096Y-69945304D01*
X101899000Y-69829195D01*
X101899000Y-69710805D01*
X101922096Y-69594696D01*
X101923675Y-69590885D01*
X101940195Y-69551000D01*
X101967400Y-69485320D01*
X102033173Y-69386885D01*
X102116885Y-69303173D01*
X102215320Y-69237400D01*
X102292660Y-69205365D01*
X102324695Y-69192096D01*
X102363399Y-69184397D01*
X102440805Y-69169000D01*
X102559195Y-69169000D01*
X102636601Y-69184397D01*
X102636601Y-69184397D01*
G37*
G36*
X207263500Y-69801000D02*
G01*
X205261500Y-69801000D01*
X205261500Y-68199000D01*
X207263500Y-68199000D01*
X207263500Y-69801000D01*
X207263500Y-69801000D01*
G37*
G36*
X110256601Y-66644397D02*
G01*
X110295305Y-66652096D01*
X110327340Y-66665365D01*
X110404680Y-66697400D01*
X110503115Y-66763173D01*
X110586827Y-66846885D01*
X110652600Y-66945320D01*
X110697904Y-67054696D01*
X110721000Y-67170805D01*
X110721000Y-67289195D01*
X110697904Y-67405304D01*
X110652600Y-67514680D01*
X110586827Y-67613115D01*
X110503115Y-67696827D01*
X110404680Y-67762600D01*
X110327340Y-67794635D01*
X110295305Y-67807904D01*
X110256601Y-67815603D01*
X110179195Y-67831000D01*
X110060805Y-67831000D01*
X109983399Y-67815603D01*
X109944695Y-67807904D01*
X109912660Y-67794635D01*
X109835320Y-67762600D01*
X109736885Y-67696827D01*
X109653173Y-67613115D01*
X109587400Y-67514680D01*
X109542096Y-67405304D01*
X109519000Y-67289195D01*
X109519000Y-67170805D01*
X109542096Y-67054696D01*
X109587400Y-66945320D01*
X109653173Y-66846885D01*
X109736885Y-66763173D01*
X109835320Y-66697400D01*
X109912660Y-66665365D01*
X109944695Y-66652096D01*
X109983399Y-66644397D01*
X110060805Y-66629000D01*
X110179195Y-66629000D01*
X110256601Y-66644397D01*
X110256601Y-66644397D01*
G37*
G36*
X102636601Y-66644397D02*
G01*
X102675305Y-66652096D01*
X102707340Y-66665365D01*
X102784680Y-66697400D01*
X102883115Y-66763173D01*
X102966827Y-66846885D01*
X103032600Y-66945320D01*
X103077904Y-67054696D01*
X103101000Y-67170805D01*
X103101000Y-67289195D01*
X103077904Y-67405304D01*
X103032600Y-67514680D01*
X102966827Y-67613115D01*
X102883115Y-67696827D01*
X102784680Y-67762600D01*
X102707340Y-67794635D01*
X102675305Y-67807904D01*
X102636601Y-67815603D01*
X102559195Y-67831000D01*
X102440805Y-67831000D01*
X102363399Y-67815603D01*
X102324695Y-67807904D01*
X102292660Y-67794635D01*
X102215320Y-67762600D01*
X102116885Y-67696827D01*
X102033173Y-67613115D01*
X101967400Y-67514680D01*
X101922096Y-67405304D01*
X101899000Y-67289195D01*
X101899000Y-67170805D01*
X101922096Y-67054696D01*
X101967400Y-66945320D01*
X102033173Y-66846885D01*
X102116885Y-66763173D01*
X102215320Y-66697400D01*
X102292660Y-66665365D01*
X102324695Y-66652096D01*
X102363399Y-66644397D01*
X102440805Y-66629000D01*
X102559195Y-66629000D01*
X102636601Y-66644397D01*
X102636601Y-66644397D01*
G37*
G36*
X112796601Y-66644397D02*
G01*
X112835305Y-66652096D01*
X112867340Y-66665365D01*
X112944680Y-66697400D01*
X113043115Y-66763173D01*
X113126827Y-66846885D01*
X113192600Y-66945320D01*
X113237904Y-67054696D01*
X113261000Y-67170805D01*
X113261000Y-67289195D01*
X113237904Y-67405304D01*
X113192600Y-67514680D01*
X113126827Y-67613115D01*
X113043115Y-67696827D01*
X112944680Y-67762600D01*
X112867340Y-67794635D01*
X112835305Y-67807904D01*
X112796601Y-67815603D01*
X112719195Y-67831000D01*
X112600805Y-67831000D01*
X112523399Y-67815603D01*
X112484695Y-67807904D01*
X112452660Y-67794635D01*
X112375320Y-67762600D01*
X112276885Y-67696827D01*
X112193173Y-67613115D01*
X112127400Y-67514680D01*
X112082096Y-67405304D01*
X112059000Y-67289195D01*
X112059000Y-67170805D01*
X112082096Y-67054696D01*
X112127400Y-66945320D01*
X112193173Y-66846885D01*
X112276885Y-66763173D01*
X112375320Y-66697400D01*
X112452660Y-66665365D01*
X112484695Y-66652096D01*
X112523399Y-66644397D01*
X112600805Y-66629000D01*
X112719195Y-66629000D01*
X112796601Y-66644397D01*
X112796601Y-66644397D01*
G37*
G36*
X107716601Y-66644397D02*
G01*
X107755305Y-66652096D01*
X107787340Y-66665365D01*
X107864680Y-66697400D01*
X107963115Y-66763173D01*
X108046827Y-66846885D01*
X108112600Y-66945320D01*
X108157904Y-67054696D01*
X108181000Y-67170805D01*
X108181000Y-67289195D01*
X108157904Y-67405304D01*
X108112600Y-67514680D01*
X108046827Y-67613115D01*
X107963115Y-67696827D01*
X107864680Y-67762600D01*
X107787340Y-67794635D01*
X107755305Y-67807904D01*
X107716601Y-67815603D01*
X107639195Y-67831000D01*
X107520805Y-67831000D01*
X107443399Y-67815603D01*
X107404695Y-67807904D01*
X107372660Y-67794635D01*
X107295320Y-67762600D01*
X107196885Y-67696827D01*
X107113173Y-67613115D01*
X107047400Y-67514680D01*
X107002096Y-67405304D01*
X106979000Y-67289195D01*
X106979000Y-67170805D01*
X107002096Y-67054696D01*
X107047400Y-66945320D01*
X107113173Y-66846885D01*
X107196885Y-66763173D01*
X107295320Y-66697400D01*
X107372660Y-66665365D01*
X107404695Y-66652096D01*
X107443399Y-66644397D01*
X107520805Y-66629000D01*
X107639195Y-66629000D01*
X107716601Y-66644397D01*
X107716601Y-66644397D01*
G37*
G36*
X207263500Y-67801000D02*
G01*
X205261500Y-67801000D01*
X205261500Y-66199000D01*
X207263500Y-66199000D01*
X207263500Y-67801000D01*
X207263500Y-67801000D01*
G37*
G36*
X124289499Y-65478445D02*
G01*
X124326995Y-65489820D01*
X124361554Y-65508292D01*
X124391847Y-65533153D01*
X124416708Y-65563446D01*
X124435180Y-65598005D01*
X124446555Y-65635501D01*
X124451000Y-65680638D01*
X124451000Y-66319362D01*
X124446555Y-66364499D01*
X124435180Y-66401995D01*
X124416708Y-66436554D01*
X124391847Y-66466847D01*
X124361554Y-66491708D01*
X124326995Y-66510180D01*
X124289499Y-66521555D01*
X124244362Y-66526000D01*
X123505638Y-66526000D01*
X123460501Y-66521555D01*
X123423005Y-66510180D01*
X123388446Y-66491708D01*
X123358153Y-66466847D01*
X123333292Y-66436554D01*
X123314820Y-66401995D01*
X123303445Y-66364499D01*
X123299000Y-66319362D01*
X123299000Y-65680638D01*
X123303445Y-65635501D01*
X123314820Y-65598005D01*
X123333292Y-65563446D01*
X123358153Y-65533153D01*
X123388446Y-65508292D01*
X123423005Y-65489820D01*
X123460501Y-65478445D01*
X123505638Y-65474000D01*
X124244362Y-65474000D01*
X124289499Y-65478445D01*
X124289499Y-65478445D01*
G37*
G36*
X122539499Y-65478445D02*
G01*
X122576995Y-65489820D01*
X122611554Y-65508292D01*
X122641847Y-65533153D01*
X122666708Y-65563446D01*
X122685180Y-65598005D01*
X122696555Y-65635501D01*
X122701000Y-65680638D01*
X122701000Y-66319362D01*
X122696555Y-66364499D01*
X122685180Y-66401995D01*
X122666708Y-66436554D01*
X122641847Y-66466847D01*
X122611554Y-66491708D01*
X122576995Y-66510180D01*
X122539499Y-66521555D01*
X122494362Y-66526000D01*
X121755638Y-66526000D01*
X121710501Y-66521555D01*
X121673005Y-66510180D01*
X121638446Y-66491708D01*
X121608153Y-66466847D01*
X121583292Y-66436554D01*
X121564820Y-66401995D01*
X121553445Y-66364499D01*
X121549000Y-66319362D01*
X121549000Y-65680638D01*
X121553445Y-65635501D01*
X121564820Y-65598005D01*
X121583292Y-65563446D01*
X121608153Y-65533153D01*
X121638446Y-65508292D01*
X121673005Y-65489820D01*
X121710501Y-65478445D01*
X121755638Y-65474000D01*
X122494362Y-65474000D01*
X122539499Y-65478445D01*
X122539499Y-65478445D01*
G37*
G36*
X206676355Y-63852140D02*
G01*
X206740118Y-63858420D01*
X206830904Y-63885960D01*
X206862836Y-63895646D01*
X206975925Y-63956094D01*
X207075054Y-64037446D01*
X207156406Y-64136575D01*
X207216854Y-64249664D01*
X207216855Y-64249668D01*
X207250413Y-64360292D01*
X207259787Y-64382925D01*
X207263500Y-64388482D01*
X207263500Y-64461886D01*
X207264102Y-64474138D01*
X207266649Y-64500000D01*
X207264102Y-64525862D01*
X207263500Y-64538114D01*
X207263500Y-65751000D01*
X205261500Y-65751000D01*
X205261500Y-64538114D01*
X205260898Y-64525862D01*
X205258351Y-64500000D01*
X205260898Y-64474138D01*
X205261500Y-64461886D01*
X205261500Y-64388594D01*
X205270457Y-64371836D01*
X205274585Y-64360299D01*
X205308145Y-64249668D01*
X205308146Y-64249664D01*
X205368594Y-64136575D01*
X205449946Y-64037446D01*
X205549075Y-63956094D01*
X205662164Y-63895646D01*
X205694096Y-63885960D01*
X205784882Y-63858420D01*
X205848645Y-63852140D01*
X205880526Y-63849000D01*
X206644474Y-63849000D01*
X206676355Y-63852140D01*
X206676355Y-63852140D01*
G37*
G36*
X205227290Y-60025619D02*
G01*
X205291689Y-60038429D01*
X205473678Y-60113811D01*
X205637463Y-60223249D01*
X205776751Y-60362537D01*
X205886189Y-60526322D01*
X205961571Y-60708311D01*
X206000000Y-60901509D01*
X206000000Y-61098491D01*
X205961571Y-61291689D01*
X205886189Y-61473678D01*
X205776751Y-61637463D01*
X205637463Y-61776751D01*
X205473678Y-61886189D01*
X205291689Y-61961571D01*
X205227290Y-61974381D01*
X205098493Y-62000000D01*
X204901507Y-62000000D01*
X204772710Y-61974381D01*
X204708311Y-61961571D01*
X204526322Y-61886189D01*
X204362537Y-61776751D01*
X204223249Y-61637463D01*
X204113811Y-61473678D01*
X204038429Y-61291689D01*
X204000000Y-61098491D01*
X204000000Y-60901509D01*
X204038429Y-60708311D01*
X204113811Y-60526322D01*
X204223249Y-60362537D01*
X204362537Y-60223249D01*
X204526322Y-60113811D01*
X204708311Y-60038429D01*
X204772710Y-60025619D01*
X204901507Y-60000000D01*
X205098493Y-60000000D01*
X205227290Y-60025619D01*
X205227290Y-60025619D01*
G37*
M02*
