M48
; DRILL file {KiCad (5.1.0)-1} date 3/23/2019 9:37:20 PM
; FORMAT={-:-/ absolute / metric / decimal}
; #@! TF.CreationDate,2019-03-23T21:37:20-07:00
; #@! TF.GenerationSoftware,Kicad,Pcbnew,(5.1.0)-1
; #@! TF.FileFunction,Plated,1,2,PTH
FMAT,2
METRIC
T1C0.305
T2C0.406
T3C0.600
T4C0.660
T5C0.850
T6C0.860
T7C1.000
T8C1.300
T9C1.930
%
G90
G05
T1
X110.0Y-138.0
X116.0Y-92.0
X120.0Y-60.0
X120.0Y-80.0
X120.0Y-138.0
X123.0Y-95.0
X123.0Y-103.0
X123.0Y-112.0
X130.0Y-60.0
X130.0Y-70.0
X130.0Y-75.0
X130.0Y-80.0
X130.0Y-138.0
X131.0Y-95.0
X131.0Y-103.0
X131.0Y-112.0
X134.25Y-98.0
X135.0Y-64.0
X135.25Y-94.0
X137.0Y-100.0
X138.0Y-95.0
X138.0Y-97.75
X138.5Y-93.5
X138.5Y-105.0
X139.0Y-112.0
X139.0Y-115.0
X139.25Y-98.25
X140.0Y-60.0
X140.0Y-70.0
X140.0Y-75.0
X140.0Y-80.0
X140.0Y-138.0
X142.0Y-102.0
X142.5Y-97.25
X144.0Y-91.0
X144.0Y-107.0
X145.0Y-64.0
X145.0Y-115.0
X146.0Y-93.75
X148.0Y-101.0
X148.5Y-75.0
X150.0Y-60.0
X150.0Y-70.0
X150.0Y-138.0
X150.5Y-91.0
X151.0Y-115.0
X151.5Y-103.0
X153.5Y-75.5
X153.5Y-93.5
X155.0Y-64.0
X155.0Y-72.5
X155.25Y-110.75
X155.75Y-88.75
X155.75Y-96.25
X158.0Y-86.0
X158.5Y-79.5
X159.0Y-90.0
X159.25Y-93.5
X160.0Y-60.0
X160.0Y-70.0
X160.0Y-77.0
X160.0Y-138.0
X161.0Y-85.0
X161.0Y-111.25
X161.0Y-114.5
X162.0Y-89.0
X162.25Y-106.25
X165.0Y-64.0
X168.0Y-105.0
X170.0Y-60.0
X170.0Y-77.0
X170.0Y-114.5
X170.0Y-138.0
X173.0Y-81.0
X173.0Y-101.0
X173.0Y-107.0
X173.0Y-111.0
X174.0Y-77.0
X175.0Y-64.0
X176.0Y-74.5
X176.0Y-84.0
X178.0Y-81.0
X178.0Y-88.0
X180.0Y-60.0
X180.0Y-70.0
X180.0Y-138.0
X181.0Y-86.0
X183.0Y-93.0
X185.0Y-90.0
X186.0Y-64.0
X190.0Y-60.0
X190.0Y-70.0
X190.0Y-93.0
X190.0Y-138.0
X192.0Y-91.0
X194.0Y-97.0
X194.0Y-103.5
X194.0Y-120.0
X194.0Y-125.0
X196.0Y-94.0
X196.5Y-100.0
X200.0Y-138.0
T2
X140.5Y-93.25
X145.039Y-100.039
X157.0Y-105.5
X157.5Y-110.75
X164.5Y-103.25
T3
X102.5Y-74.73
X102.5Y-77.27
X107.58Y-74.73
X110.12Y-74.73
X112.66Y-74.73
X102.5Y-67.23
X102.5Y-69.77
X107.58Y-67.23
X110.12Y-67.23
X112.66Y-67.23
T4
X198.25Y-105.745
X199.52Y-104.475
X199.52Y-107.015
X202.06Y-104.475
X202.06Y-107.015
X203.33Y-105.745
T5
X203.562Y-65.5
X203.562Y-70.5
T6
X198.89Y-110.155
X198.89Y-112.065
X198.89Y-113.975
X198.89Y-115.885
X198.89Y-117.795
X198.89Y-119.705
X198.89Y-121.615
X198.89Y-123.525
X200.795Y-110.155
X200.795Y-112.065
X200.795Y-113.975
X200.795Y-115.885
X200.795Y-117.795
X200.795Y-119.705
X200.795Y-121.615
X200.795Y-123.525
X202.7Y-110.155
X202.7Y-112.065
X202.7Y-113.975
X202.7Y-115.885
X202.7Y-117.795
X202.7Y-119.705
X202.7Y-121.615
X202.7Y-123.525
T9
X202.7Y-98.635
X202.7Y-129.365
T3
G00X205.912Y-64.5
M15
G01X206.612Y-64.5
M16
G05
G00X206.612Y-71.5
M15
G01X205.912Y-71.5
M16
G05
T7
G00X109.25Y-122.0
M15
G01X107.75Y-122.0
M16
G05
G00X109.25Y-108.0
M15
G01X107.75Y-108.0
M16
G05
G00X109.25Y-94.0
M15
G01X107.75Y-94.0
M16
G05
T8
G00X104.0Y-122.6
M15
G01X104.0Y-121.4
M16
G05
G00X104.0Y-108.6
M15
G01X104.0Y-107.4
M16
G05
G00X104.0Y-94.6
M15
G01X104.0Y-93.4
M16
G05
T0
M30
