G04 #@! TF.GenerationSoftware,KiCad,Pcbnew,(5.1.0)-1*
G04 #@! TF.CreationDate,2019-03-23T21:37:36-07:00*
G04 #@! TF.ProjectId,yuv2dvi,79757632-6476-4692-9e6b-696361645f70,0.1*
G04 #@! TF.SameCoordinates,Original*
G04 #@! TF.FileFunction,Legend,Top*
G04 #@! TF.FilePolarity,Positive*
%FSLAX46Y46*%
G04 Gerber Fmt 4.6, Leading zero omitted, Abs format (unit mm)*
G04 Created by KiCad (PCBNEW (5.1.0)-1) date 2019-03-23 21:37:36*
%MOMM*%
%LPD*%
G04 APERTURE LIST*
%ADD10C,0.150000*%
%ADD11C,0.400000*%
%ADD12C,0.120000*%
%ADD13C,0.010000*%
%ADD14C,0.300000*%
G04 APERTURE END LIST*
D10*
X160690476Y-68452380D02*
X160690476Y-67452380D01*
X160690476Y-67928571D02*
X161261904Y-67928571D01*
X161261904Y-68452380D02*
X161261904Y-67452380D01*
X161738095Y-68452380D02*
X161738095Y-67452380D01*
X161976190Y-67452380D01*
X162119047Y-67500000D01*
X162214285Y-67595238D01*
X162261904Y-67690476D01*
X162309523Y-67880952D01*
X162309523Y-68023809D01*
X162261904Y-68214285D01*
X162214285Y-68309523D01*
X162119047Y-68404761D01*
X161976190Y-68452380D01*
X161738095Y-68452380D01*
X163357142Y-67452380D02*
X163690476Y-68452380D01*
X164023809Y-67452380D01*
X164357142Y-68452380D02*
X164357142Y-67452380D01*
X164833333Y-68452380D02*
X164833333Y-67452380D01*
X165071428Y-67452380D01*
X165214285Y-67500000D01*
X165309523Y-67595238D01*
X165357142Y-67690476D01*
X165404761Y-67880952D01*
X165404761Y-68023809D01*
X165357142Y-68214285D01*
X165309523Y-68309523D01*
X165214285Y-68404761D01*
X165071428Y-68452380D01*
X164833333Y-68452380D01*
X165833333Y-67928571D02*
X166166666Y-67928571D01*
X166309523Y-68452380D02*
X165833333Y-68452380D01*
X165833333Y-67452380D01*
X166309523Y-67452380D01*
X166928571Y-67452380D02*
X167119047Y-67452380D01*
X167214285Y-67500000D01*
X167309523Y-67595238D01*
X167357142Y-67785714D01*
X167357142Y-68119047D01*
X167309523Y-68309523D01*
X167214285Y-68404761D01*
X167119047Y-68452380D01*
X166928571Y-68452380D01*
X166833333Y-68404761D01*
X166738095Y-68309523D01*
X166690476Y-68119047D01*
X166690476Y-67785714D01*
X166738095Y-67595238D01*
X166833333Y-67500000D01*
X166928571Y-67452380D01*
D11*
X149333333Y-120952380D02*
X149333333Y-121904761D01*
X148666666Y-119904761D02*
X149333333Y-120952380D01*
X150000000Y-119904761D01*
X150666666Y-119904761D02*
X150666666Y-121523809D01*
X150761904Y-121714285D01*
X150857142Y-121809523D01*
X151047619Y-121904761D01*
X151428571Y-121904761D01*
X151619047Y-121809523D01*
X151714285Y-121714285D01*
X151809523Y-121523809D01*
X151809523Y-119904761D01*
X152476190Y-119904761D02*
X153142857Y-121904761D01*
X153809523Y-119904761D01*
X154476190Y-121142857D02*
X156000000Y-121142857D01*
X156857142Y-120095238D02*
X156952380Y-120000000D01*
X157142857Y-119904761D01*
X157619047Y-119904761D01*
X157809523Y-120000000D01*
X157904761Y-120095238D01*
X158000000Y-120285714D01*
X158000000Y-120476190D01*
X157904761Y-120761904D01*
X156761904Y-121904761D01*
X158000000Y-121904761D01*
X158857142Y-121142857D02*
X160380952Y-121142857D01*
X161333333Y-121904761D02*
X161333333Y-119904761D01*
X161809523Y-119904761D01*
X162095238Y-120000000D01*
X162285714Y-120190476D01*
X162380952Y-120380952D01*
X162476190Y-120761904D01*
X162476190Y-121047619D01*
X162380952Y-121428571D01*
X162285714Y-121619047D01*
X162095238Y-121809523D01*
X161809523Y-121904761D01*
X161333333Y-121904761D01*
X163047619Y-119904761D02*
X163714285Y-121904761D01*
X164380952Y-119904761D01*
X165047619Y-121904761D02*
X165047619Y-119904761D01*
D10*
X155857142Y-124802380D02*
X155523809Y-124326190D01*
X155285714Y-124802380D02*
X155285714Y-123802380D01*
X155666666Y-123802380D01*
X155761904Y-123850000D01*
X155809523Y-123897619D01*
X155857142Y-123992857D01*
X155857142Y-124135714D01*
X155809523Y-124230952D01*
X155761904Y-124278571D01*
X155666666Y-124326190D01*
X155285714Y-124326190D01*
X156285714Y-124278571D02*
X156619047Y-124278571D01*
X156761904Y-124802380D02*
X156285714Y-124802380D01*
X156285714Y-123802380D01*
X156761904Y-123802380D01*
X157047619Y-123802380D02*
X157380952Y-124802380D01*
X157714285Y-123802380D01*
X159000000Y-123802380D02*
X159095238Y-123802380D01*
X159190476Y-123850000D01*
X159238095Y-123897619D01*
X159285714Y-123992857D01*
X159333333Y-124183333D01*
X159333333Y-124421428D01*
X159285714Y-124611904D01*
X159238095Y-124707142D01*
X159190476Y-124754761D01*
X159095238Y-124802380D01*
X159000000Y-124802380D01*
X158904761Y-124754761D01*
X158857142Y-124707142D01*
X158809523Y-124611904D01*
X158761904Y-124421428D01*
X158761904Y-124183333D01*
X158809523Y-123992857D01*
X158857142Y-123897619D01*
X158904761Y-123850000D01*
X159000000Y-123802380D01*
X159761904Y-124707142D02*
X159809523Y-124754761D01*
X159761904Y-124802380D01*
X159714285Y-124754761D01*
X159761904Y-124707142D01*
X159761904Y-124802380D01*
X160761904Y-124802380D02*
X160190476Y-124802380D01*
X160476190Y-124802380D02*
X160476190Y-123802380D01*
X160380952Y-123945238D01*
X160285714Y-124040476D01*
X160190476Y-124088095D01*
X146619047Y-128102380D02*
X146142857Y-128102380D01*
X146142857Y-127102380D01*
X146952380Y-128102380D02*
X146952380Y-127435714D01*
X146952380Y-127102380D02*
X146904761Y-127150000D01*
X146952380Y-127197619D01*
X147000000Y-127150000D01*
X146952380Y-127102380D01*
X146952380Y-127197619D01*
X147857142Y-128054761D02*
X147761904Y-128102380D01*
X147571428Y-128102380D01*
X147476190Y-128054761D01*
X147428571Y-128007142D01*
X147380952Y-127911904D01*
X147380952Y-127626190D01*
X147428571Y-127530952D01*
X147476190Y-127483333D01*
X147571428Y-127435714D01*
X147761904Y-127435714D01*
X147857142Y-127483333D01*
X148666666Y-128054761D02*
X148571428Y-128102380D01*
X148380952Y-128102380D01*
X148285714Y-128054761D01*
X148238095Y-127959523D01*
X148238095Y-127578571D01*
X148285714Y-127483333D01*
X148380952Y-127435714D01*
X148571428Y-127435714D01*
X148666666Y-127483333D01*
X148714285Y-127578571D01*
X148714285Y-127673809D01*
X148238095Y-127769047D01*
X149142857Y-127435714D02*
X149142857Y-128102380D01*
X149142857Y-127530952D02*
X149190476Y-127483333D01*
X149285714Y-127435714D01*
X149428571Y-127435714D01*
X149523809Y-127483333D01*
X149571428Y-127578571D01*
X149571428Y-128102380D01*
X150000000Y-128054761D02*
X150095238Y-128102380D01*
X150285714Y-128102380D01*
X150380952Y-128054761D01*
X150428571Y-127959523D01*
X150428571Y-127911904D01*
X150380952Y-127816666D01*
X150285714Y-127769047D01*
X150142857Y-127769047D01*
X150047619Y-127721428D01*
X150000000Y-127626190D01*
X150000000Y-127578571D01*
X150047619Y-127483333D01*
X150142857Y-127435714D01*
X150285714Y-127435714D01*
X150380952Y-127483333D01*
X151238095Y-128054761D02*
X151142857Y-128102380D01*
X150952380Y-128102380D01*
X150857142Y-128054761D01*
X150809523Y-127959523D01*
X150809523Y-127578571D01*
X150857142Y-127483333D01*
X150952380Y-127435714D01*
X151142857Y-127435714D01*
X151238095Y-127483333D01*
X151285714Y-127578571D01*
X151285714Y-127673809D01*
X150809523Y-127769047D01*
X152142857Y-128102380D02*
X152142857Y-127102380D01*
X152142857Y-128054761D02*
X152047619Y-128102380D01*
X151857142Y-128102380D01*
X151761904Y-128054761D01*
X151714285Y-128007142D01*
X151666666Y-127911904D01*
X151666666Y-127626190D01*
X151714285Y-127530952D01*
X151761904Y-127483333D01*
X151857142Y-127435714D01*
X152047619Y-127435714D01*
X152142857Y-127483333D01*
X153809523Y-127435714D02*
X153809523Y-128102380D01*
X153380952Y-127435714D02*
X153380952Y-127959523D01*
X153428571Y-128054761D01*
X153523809Y-128102380D01*
X153666666Y-128102380D01*
X153761904Y-128054761D01*
X153809523Y-128007142D01*
X154285714Y-127435714D02*
X154285714Y-128102380D01*
X154285714Y-127530952D02*
X154333333Y-127483333D01*
X154428571Y-127435714D01*
X154571428Y-127435714D01*
X154666666Y-127483333D01*
X154714285Y-127578571D01*
X154714285Y-128102380D01*
X155619047Y-128102380D02*
X155619047Y-127102380D01*
X155619047Y-128054761D02*
X155523809Y-128102380D01*
X155333333Y-128102380D01*
X155238095Y-128054761D01*
X155190476Y-128007142D01*
X155142857Y-127911904D01*
X155142857Y-127626190D01*
X155190476Y-127530952D01*
X155238095Y-127483333D01*
X155333333Y-127435714D01*
X155523809Y-127435714D01*
X155619047Y-127483333D01*
X156476190Y-128054761D02*
X156380952Y-128102380D01*
X156190476Y-128102380D01*
X156095238Y-128054761D01*
X156047619Y-127959523D01*
X156047619Y-127578571D01*
X156095238Y-127483333D01*
X156190476Y-127435714D01*
X156380952Y-127435714D01*
X156476190Y-127483333D01*
X156523809Y-127578571D01*
X156523809Y-127673809D01*
X156047619Y-127769047D01*
X156952380Y-128102380D02*
X156952380Y-127435714D01*
X156952380Y-127626190D02*
X157000000Y-127530952D01*
X157047619Y-127483333D01*
X157142857Y-127435714D01*
X157238095Y-127435714D01*
X158904761Y-128007142D02*
X158857142Y-128054761D01*
X158714285Y-128102380D01*
X158619047Y-128102380D01*
X158476190Y-128054761D01*
X158380952Y-127959523D01*
X158333333Y-127864285D01*
X158285714Y-127673809D01*
X158285714Y-127530952D01*
X158333333Y-127340476D01*
X158380952Y-127245238D01*
X158476190Y-127150000D01*
X158619047Y-127102380D01*
X158714285Y-127102380D01*
X158857142Y-127150000D01*
X158904761Y-127197619D01*
X159333333Y-127578571D02*
X159666666Y-127578571D01*
X159809523Y-128102380D02*
X159333333Y-128102380D01*
X159333333Y-127102380D01*
X159809523Y-127102380D01*
X160809523Y-128102380D02*
X160476190Y-127626190D01*
X160238095Y-128102380D02*
X160238095Y-127102380D01*
X160619047Y-127102380D01*
X160714285Y-127150000D01*
X160761904Y-127197619D01*
X160809523Y-127292857D01*
X160809523Y-127435714D01*
X160761904Y-127530952D01*
X160714285Y-127578571D01*
X160619047Y-127626190D01*
X160238095Y-127626190D01*
X161238095Y-128102380D02*
X161238095Y-127102380D01*
X161809523Y-128102380D01*
X161809523Y-127102380D01*
X163238095Y-127102380D02*
X163428571Y-127102380D01*
X163523809Y-127150000D01*
X163619047Y-127245238D01*
X163666666Y-127435714D01*
X163666666Y-127769047D01*
X163619047Y-127959523D01*
X163523809Y-128054761D01*
X163428571Y-128102380D01*
X163238095Y-128102380D01*
X163142857Y-128054761D01*
X163047619Y-127959523D01*
X163000000Y-127769047D01*
X163000000Y-127435714D01*
X163047619Y-127245238D01*
X163142857Y-127150000D01*
X163238095Y-127102380D01*
X164095238Y-128102380D02*
X164095238Y-127102380D01*
X164095238Y-127578571D02*
X164666666Y-127578571D01*
X164666666Y-128102380D02*
X164666666Y-127102380D01*
X165619047Y-128102380D02*
X165142857Y-128102380D01*
X165142857Y-127102380D01*
X166619047Y-127435714D02*
X166857142Y-128102380D01*
X167095238Y-127435714D01*
X167476190Y-128007142D02*
X167523809Y-128054761D01*
X167476190Y-128102380D01*
X167428571Y-128054761D01*
X167476190Y-128007142D01*
X167476190Y-128102380D01*
X168476190Y-128102380D02*
X167904761Y-128102380D01*
X168190476Y-128102380D02*
X168190476Y-127102380D01*
X168095238Y-127245238D01*
X168000000Y-127340476D01*
X167904761Y-127388095D01*
X168904761Y-128007142D02*
X168952380Y-128054761D01*
X168904761Y-128102380D01*
X168857142Y-128054761D01*
X168904761Y-128007142D01*
X168904761Y-128102380D01*
X169333333Y-127197619D02*
X169380952Y-127150000D01*
X169476190Y-127102380D01*
X169714285Y-127102380D01*
X169809523Y-127150000D01*
X169857142Y-127197619D01*
X169904761Y-127292857D01*
X169904761Y-127388095D01*
X169857142Y-127530952D01*
X169285714Y-128102380D01*
X169904761Y-128102380D01*
X156000000Y-78000000D02*
G75*
G03X156000000Y-78000000I-250000J0D01*
G01*
X154500000Y-102500000D02*
G75*
G03X154500000Y-102500000I-250000J0D01*
G01*
X103287976Y-79547619D02*
X103335595Y-79500000D01*
X103430833Y-79452380D01*
X103668928Y-79452380D01*
X103764166Y-79500000D01*
X103811785Y-79547619D01*
X103859404Y-79642857D01*
X103859404Y-79738095D01*
X103811785Y-79880952D01*
X103240357Y-80452380D01*
X103859404Y-80452380D01*
X104716547Y-79785714D02*
X104716547Y-80452380D01*
X104478452Y-79404761D02*
X104240357Y-80119047D01*
X104859404Y-80119047D01*
X105430833Y-79452380D02*
X105526071Y-79452380D01*
X105621309Y-79500000D01*
X105668928Y-79547619D01*
X105716547Y-79642857D01*
X105764166Y-79833333D01*
X105764166Y-80071428D01*
X105716547Y-80261904D01*
X105668928Y-80357142D01*
X105621309Y-80404761D01*
X105526071Y-80452380D01*
X105430833Y-80452380D01*
X105335595Y-80404761D01*
X105287976Y-80357142D01*
X105240357Y-80261904D01*
X105192738Y-80071428D01*
X105192738Y-79833333D01*
X105240357Y-79642857D01*
X105287976Y-79547619D01*
X105335595Y-79500000D01*
X105430833Y-79452380D01*
X106192738Y-79785714D02*
X106192738Y-80785714D01*
X106192738Y-79833333D02*
X106287976Y-79785714D01*
X106478452Y-79785714D01*
X106573690Y-79833333D01*
X106621309Y-79880952D01*
X106668928Y-79976190D01*
X106668928Y-80261904D01*
X106621309Y-80357142D01*
X106573690Y-80404761D01*
X106478452Y-80452380D01*
X106287976Y-80452380D01*
X106192738Y-80404761D01*
X108002261Y-80452380D02*
X107907023Y-80404761D01*
X107859404Y-80357142D01*
X107811785Y-80261904D01*
X107811785Y-79976190D01*
X107859404Y-79880952D01*
X107907023Y-79833333D01*
X108002261Y-79785714D01*
X108145119Y-79785714D01*
X108240357Y-79833333D01*
X108287976Y-79880952D01*
X108335595Y-79976190D01*
X108335595Y-80261904D01*
X108287976Y-80357142D01*
X108240357Y-80404761D01*
X108145119Y-80452380D01*
X108002261Y-80452380D01*
X108764166Y-80452380D02*
X108764166Y-79785714D01*
X108764166Y-79976190D02*
X108811785Y-79880952D01*
X108859404Y-79833333D01*
X108954642Y-79785714D01*
X109049880Y-79785714D01*
X110573690Y-79785714D02*
X110573690Y-80452380D01*
X110335595Y-79404761D02*
X110097500Y-80119047D01*
X110716547Y-80119047D01*
X111240357Y-79880952D02*
X111145119Y-79833333D01*
X111097500Y-79785714D01*
X111049880Y-79690476D01*
X111049880Y-79642857D01*
X111097500Y-79547619D01*
X111145119Y-79500000D01*
X111240357Y-79452380D01*
X111430833Y-79452380D01*
X111526071Y-79500000D01*
X111573690Y-79547619D01*
X111621309Y-79642857D01*
X111621309Y-79690476D01*
X111573690Y-79785714D01*
X111526071Y-79833333D01*
X111430833Y-79880952D01*
X111240357Y-79880952D01*
X111145119Y-79928571D01*
X111097500Y-79976190D01*
X111049880Y-80071428D01*
X111049880Y-80261904D01*
X111097500Y-80357142D01*
X111145119Y-80404761D01*
X111240357Y-80452380D01*
X111430833Y-80452380D01*
X111526071Y-80404761D01*
X111573690Y-80357142D01*
X111621309Y-80261904D01*
X111621309Y-80071428D01*
X111573690Y-79976190D01*
X111526071Y-79928571D01*
X111430833Y-79880952D01*
X112240357Y-79452380D02*
X112335595Y-79452380D01*
X112430833Y-79500000D01*
X112478452Y-79547619D01*
X112526071Y-79642857D01*
X112573690Y-79833333D01*
X112573690Y-80071428D01*
X112526071Y-80261904D01*
X112478452Y-80357142D01*
X112430833Y-80404761D01*
X112335595Y-80452380D01*
X112240357Y-80452380D01*
X112145119Y-80404761D01*
X112097500Y-80357142D01*
X112049880Y-80261904D01*
X112002261Y-80071428D01*
X112002261Y-79833333D01*
X112049880Y-79642857D01*
X112097500Y-79547619D01*
X112145119Y-79500000D01*
X112240357Y-79452380D01*
X113002261Y-79785714D02*
X113002261Y-80785714D01*
X113002261Y-79833333D02*
X113097500Y-79785714D01*
X113287976Y-79785714D01*
X113383214Y-79833333D01*
X113430833Y-79880952D01*
X113478452Y-79976190D01*
X113478452Y-80261904D01*
X113430833Y-80357142D01*
X113383214Y-80404761D01*
X113287976Y-80452380D01*
X113097500Y-80452380D01*
X113002261Y-80404761D01*
X103668928Y-64928571D02*
X103335595Y-64928571D01*
X103335595Y-65452380D02*
X103335595Y-64452380D01*
X103811785Y-64452380D01*
X104192738Y-65452380D02*
X104192738Y-64452380D01*
X105145119Y-65452380D02*
X104668928Y-65452380D01*
X104668928Y-64452380D01*
X105335595Y-64452380D02*
X105907023Y-64452380D01*
X105621309Y-65452380D02*
X105621309Y-64452380D01*
X106240357Y-64928571D02*
X106573690Y-64928571D01*
X106716547Y-65452380D02*
X106240357Y-65452380D01*
X106240357Y-64452380D01*
X106716547Y-64452380D01*
X107716547Y-65452380D02*
X107383214Y-64976190D01*
X107145119Y-65452380D02*
X107145119Y-64452380D01*
X107526071Y-64452380D01*
X107621309Y-64500000D01*
X107668928Y-64547619D01*
X107716547Y-64642857D01*
X107716547Y-64785714D01*
X107668928Y-64880952D01*
X107621309Y-64928571D01*
X107526071Y-64976190D01*
X107145119Y-64976190D01*
X109240357Y-64928571D02*
X109383214Y-64976190D01*
X109430833Y-65023809D01*
X109478452Y-65119047D01*
X109478452Y-65261904D01*
X109430833Y-65357142D01*
X109383214Y-65404761D01*
X109287976Y-65452380D01*
X108907023Y-65452380D01*
X108907023Y-64452380D01*
X109240357Y-64452380D01*
X109335595Y-64500000D01*
X109383214Y-64547619D01*
X109430833Y-64642857D01*
X109430833Y-64738095D01*
X109383214Y-64833333D01*
X109335595Y-64880952D01*
X109240357Y-64928571D01*
X108907023Y-64928571D01*
X110097500Y-64976190D02*
X110097500Y-65452380D01*
X109764166Y-64452380D02*
X110097500Y-64976190D01*
X110430833Y-64452380D01*
X110764166Y-65452380D02*
X110764166Y-64452380D01*
X111145119Y-64452380D01*
X111240357Y-64500000D01*
X111287976Y-64547619D01*
X111335595Y-64642857D01*
X111335595Y-64785714D01*
X111287976Y-64880952D01*
X111240357Y-64928571D01*
X111145119Y-64976190D01*
X110764166Y-64976190D01*
X111716547Y-65166666D02*
X112192738Y-65166666D01*
X111621309Y-65452380D02*
X111954642Y-64452380D01*
X112287976Y-65452380D01*
X112573690Y-65404761D02*
X112716547Y-65452380D01*
X112954642Y-65452380D01*
X113049880Y-65404761D01*
X113097500Y-65357142D01*
X113145119Y-65261904D01*
X113145119Y-65166666D01*
X113097500Y-65071428D01*
X113049880Y-65023809D01*
X112954642Y-64976190D01*
X112764166Y-64928571D01*
X112668928Y-64880952D01*
X112621309Y-64833333D01*
X112573690Y-64738095D01*
X112573690Y-64642857D01*
X112621309Y-64547619D01*
X112668928Y-64500000D01*
X112764166Y-64452380D01*
X113002261Y-64452380D01*
X113145119Y-64500000D01*
X113526071Y-65404761D02*
X113668928Y-65452380D01*
X113907023Y-65452380D01*
X114002261Y-65404761D01*
X114049880Y-65357142D01*
X114097500Y-65261904D01*
X114097500Y-65166666D01*
X114049880Y-65071428D01*
X114002261Y-65023809D01*
X113907023Y-64976190D01*
X113716547Y-64928571D01*
X113621309Y-64880952D01*
X113573690Y-64833333D01*
X113526071Y-64738095D01*
X113526071Y-64642857D01*
X113573690Y-64547619D01*
X113621309Y-64500000D01*
X113716547Y-64452380D01*
X113954642Y-64452380D01*
X114097500Y-64500000D01*
X140627380Y-89142857D02*
X139627380Y-89142857D01*
X140627380Y-88666666D02*
X139627380Y-88666666D01*
X140627380Y-88095238D01*
X139627380Y-88095238D01*
X139627380Y-87761904D02*
X139627380Y-87190476D01*
X140627380Y-87476190D02*
X139627380Y-87476190D01*
X140103571Y-86857142D02*
X140103571Y-86523809D01*
X140627380Y-86380952D02*
X140627380Y-86857142D01*
X139627380Y-86857142D01*
X139627380Y-86380952D01*
X140627380Y-85380952D02*
X140151190Y-85714285D01*
X140627380Y-85952380D02*
X139627380Y-85952380D01*
X139627380Y-85571428D01*
X139675000Y-85476190D01*
X139722619Y-85428571D01*
X139817857Y-85380952D01*
X139960714Y-85380952D01*
X140055952Y-85428571D01*
X140103571Y-85476190D01*
X140151190Y-85571428D01*
X140151190Y-85952380D01*
X140627380Y-84476190D02*
X140627380Y-84952380D01*
X139627380Y-84952380D01*
X140341666Y-84190476D02*
X140341666Y-83714285D01*
X140627380Y-84285714D02*
X139627380Y-83952380D01*
X140627380Y-83619047D01*
X140532142Y-82714285D02*
X140579761Y-82761904D01*
X140627380Y-82904761D01*
X140627380Y-83000000D01*
X140579761Y-83142857D01*
X140484523Y-83238095D01*
X140389285Y-83285714D01*
X140198809Y-83333333D01*
X140055952Y-83333333D01*
X139865476Y-83285714D01*
X139770238Y-83238095D01*
X139675000Y-83142857D01*
X139627380Y-83000000D01*
X139627380Y-82904761D01*
X139675000Y-82761904D01*
X139722619Y-82714285D01*
X140103571Y-82285714D02*
X140103571Y-81952380D01*
X140627380Y-81809523D02*
X140627380Y-82285714D01*
X139627380Y-82285714D01*
X139627380Y-81809523D01*
X140627380Y-81380952D02*
X139627380Y-81380952D01*
X139627380Y-81142857D01*
X139675000Y-81000000D01*
X139770238Y-80904761D01*
X139865476Y-80857142D01*
X140055952Y-80809523D01*
X140198809Y-80809523D01*
X140389285Y-80857142D01*
X140484523Y-80904761D01*
X140579761Y-81000000D01*
X140627380Y-81142857D01*
X140627380Y-81380952D01*
X141277380Y-87047619D02*
X142277380Y-86714285D01*
X141277380Y-86380952D01*
X142277380Y-86047619D02*
X141277380Y-86047619D01*
X142277380Y-85571428D02*
X141277380Y-85571428D01*
X141277380Y-85333333D01*
X141325000Y-85190476D01*
X141420238Y-85095238D01*
X141515476Y-85047619D01*
X141705952Y-85000000D01*
X141848809Y-85000000D01*
X142039285Y-85047619D01*
X142134523Y-85095238D01*
X142229761Y-85190476D01*
X142277380Y-85333333D01*
X142277380Y-85571428D01*
X141753571Y-84571428D02*
X141753571Y-84238095D01*
X142277380Y-84095238D02*
X142277380Y-84571428D01*
X141277380Y-84571428D01*
X141277380Y-84095238D01*
X141277380Y-83476190D02*
X141277380Y-83285714D01*
X141325000Y-83190476D01*
X141420238Y-83095238D01*
X141610714Y-83047619D01*
X141944047Y-83047619D01*
X142134523Y-83095238D01*
X142229761Y-83190476D01*
X142277380Y-83285714D01*
X142277380Y-83476190D01*
X142229761Y-83571428D01*
X142134523Y-83666666D01*
X141944047Y-83714285D01*
X141610714Y-83714285D01*
X141420238Y-83666666D01*
X141325000Y-83571428D01*
X141277380Y-83476190D01*
D12*
X164671267Y-104490000D02*
X164328733Y-104490000D01*
X164671267Y-105510000D02*
X164328733Y-105510000D01*
X154671267Y-111990000D02*
X154328733Y-111990000D01*
X154671267Y-113010000D02*
X154328733Y-113010000D01*
X158328733Y-113010000D02*
X158671267Y-113010000D01*
X158328733Y-111990000D02*
X158671267Y-111990000D01*
D10*
X110000000Y-117000000D02*
X110000000Y-120500000D01*
X110000000Y-127000000D02*
X110000000Y-123500000D01*
X100000000Y-117000000D02*
X110000000Y-117000000D01*
X100000000Y-127000000D02*
X110000000Y-127000000D01*
X110000000Y-103000000D02*
X110000000Y-106500000D01*
X110000000Y-113000000D02*
X110000000Y-109500000D01*
X100000000Y-103000000D02*
X110000000Y-103000000D01*
X100000000Y-113000000D02*
X110000000Y-113000000D01*
X110000000Y-89000000D02*
X110000000Y-92500000D01*
X110000000Y-99000000D02*
X110000000Y-95500000D01*
X100000000Y-89000000D02*
X110000000Y-89000000D01*
X100000000Y-99000000D02*
X110000000Y-99000000D01*
D13*
G36*
X135209014Y-118452998D02*
G01*
X135367006Y-118453863D01*
X135481347Y-118456205D01*
X135559407Y-118460762D01*
X135608554Y-118468270D01*
X135636159Y-118479466D01*
X135649592Y-118495088D01*
X135656221Y-118515873D01*
X135656865Y-118518563D01*
X135666935Y-118567113D01*
X135685575Y-118662905D01*
X135710845Y-118795743D01*
X135740807Y-118955431D01*
X135773522Y-119131774D01*
X135774664Y-119137967D01*
X135807433Y-119310782D01*
X135838093Y-119463469D01*
X135864664Y-119586871D01*
X135885167Y-119671831D01*
X135897626Y-119709190D01*
X135898220Y-119709852D01*
X135934919Y-119728095D01*
X136010586Y-119758497D01*
X136108878Y-119794493D01*
X136109425Y-119794685D01*
X136233233Y-119841222D01*
X136379196Y-119900504D01*
X136516781Y-119960109D01*
X136523293Y-119963056D01*
X136747390Y-120064765D01*
X137243619Y-119725897D01*
X137395846Y-119622592D01*
X137533741Y-119530237D01*
X137649315Y-119454084D01*
X137734579Y-119399385D01*
X137781544Y-119371393D01*
X137786004Y-119369317D01*
X137820134Y-119378560D01*
X137883881Y-119423156D01*
X137979731Y-119505209D01*
X138110169Y-119626821D01*
X138243328Y-119756205D01*
X138371694Y-119883702D01*
X138486581Y-120000046D01*
X138581073Y-120098052D01*
X138648253Y-120170536D01*
X138681206Y-120210313D01*
X138682432Y-120212361D01*
X138686074Y-120239656D01*
X138672350Y-120284234D01*
X138637869Y-120352112D01*
X138579239Y-120449311D01*
X138493070Y-120581851D01*
X138378200Y-120752476D01*
X138276254Y-120902655D01*
X138185123Y-121037350D01*
X138110073Y-121148740D01*
X138056369Y-121229005D01*
X138029280Y-121270325D01*
X138027574Y-121273130D01*
X138030882Y-121312721D01*
X138055953Y-121389669D01*
X138097798Y-121489432D01*
X138112712Y-121521291D01*
X138177786Y-121663226D01*
X138247212Y-121824273D01*
X138303609Y-121963621D01*
X138344247Y-122067044D01*
X138376526Y-122145642D01*
X138395178Y-122186720D01*
X138397497Y-122189885D01*
X138431803Y-122195128D01*
X138512669Y-122209494D01*
X138629343Y-122230937D01*
X138771075Y-122257413D01*
X138927110Y-122286877D01*
X139086698Y-122317283D01*
X139239085Y-122346588D01*
X139373521Y-122372745D01*
X139479252Y-122393710D01*
X139545526Y-122407439D01*
X139561782Y-122411320D01*
X139578573Y-122420900D01*
X139591249Y-122442536D01*
X139600378Y-122483531D01*
X139606531Y-122551189D01*
X139610280Y-122652812D01*
X139612192Y-122795703D01*
X139612840Y-122987165D01*
X139612874Y-123065645D01*
X139612874Y-123703906D01*
X139459598Y-123734160D01*
X139374322Y-123750564D01*
X139247070Y-123774509D01*
X139093315Y-123803107D01*
X138928534Y-123833467D01*
X138882989Y-123841806D01*
X138730932Y-123871370D01*
X138598468Y-123900442D01*
X138496714Y-123926329D01*
X138436788Y-123946337D01*
X138426805Y-123952301D01*
X138402293Y-123994534D01*
X138367148Y-124076370D01*
X138328173Y-124181683D01*
X138320442Y-124204368D01*
X138269360Y-124345018D01*
X138205954Y-124503714D01*
X138143904Y-124646225D01*
X138143598Y-124646886D01*
X138040267Y-124870440D01*
X138719961Y-125870232D01*
X138283621Y-126307300D01*
X138151649Y-126437381D01*
X138031279Y-126552048D01*
X137929273Y-126645181D01*
X137852391Y-126710658D01*
X137807393Y-126742357D01*
X137800938Y-126744368D01*
X137763040Y-126728529D01*
X137685708Y-126684496D01*
X137577389Y-126617490D01*
X137446532Y-126532734D01*
X137305052Y-126437816D01*
X137161461Y-126340998D01*
X137033435Y-126256751D01*
X136929105Y-126190258D01*
X136856600Y-126146702D01*
X136824158Y-126131264D01*
X136784576Y-126144328D01*
X136709519Y-126178750D01*
X136614468Y-126227380D01*
X136604392Y-126232785D01*
X136476391Y-126296980D01*
X136388618Y-126328463D01*
X136334028Y-126328798D01*
X136305575Y-126299548D01*
X136305410Y-126299138D01*
X136291188Y-126264498D01*
X136257269Y-126182269D01*
X136206284Y-126058814D01*
X136140862Y-125900498D01*
X136063634Y-125713686D01*
X135977229Y-125504742D01*
X135893551Y-125302446D01*
X135801588Y-125079200D01*
X135717150Y-124872392D01*
X135642769Y-124688362D01*
X135580974Y-124533451D01*
X135534297Y-124413996D01*
X135505268Y-124336339D01*
X135496322Y-124307356D01*
X135518756Y-124274110D01*
X135577439Y-124221123D01*
X135655689Y-124162704D01*
X135878534Y-123977952D01*
X136052718Y-123766182D01*
X136176154Y-123531856D01*
X136246754Y-123279434D01*
X136262431Y-123013377D01*
X136251036Y-122890575D01*
X136188950Y-122635793D01*
X136082023Y-122410801D01*
X135936889Y-122217817D01*
X135760178Y-122059061D01*
X135558522Y-121936750D01*
X135338554Y-121853105D01*
X135106906Y-121810344D01*
X134870209Y-121810687D01*
X134635095Y-121856352D01*
X134408196Y-121949559D01*
X134196144Y-122092527D01*
X134107636Y-122173383D01*
X133937889Y-122381007D01*
X133819699Y-122607895D01*
X133752278Y-122847433D01*
X133734840Y-123093007D01*
X133766598Y-123338003D01*
X133846765Y-123575808D01*
X133974555Y-123799807D01*
X134149180Y-124003387D01*
X134344312Y-124162704D01*
X134425591Y-124223602D01*
X134483009Y-124276015D01*
X134503678Y-124307406D01*
X134492856Y-124341639D01*
X134462077Y-124423419D01*
X134413874Y-124546407D01*
X134350778Y-124704263D01*
X134275322Y-124890649D01*
X134190038Y-125099226D01*
X134106219Y-125302496D01*
X134013745Y-125525933D01*
X133928089Y-125732984D01*
X133851882Y-125917286D01*
X133787753Y-126072475D01*
X133738332Y-126192188D01*
X133706248Y-126270061D01*
X133694359Y-126299138D01*
X133666274Y-126328677D01*
X133611949Y-126328591D01*
X133524395Y-126297326D01*
X133396619Y-126233329D01*
X133395608Y-126232785D01*
X133299402Y-126183121D01*
X133221631Y-126146945D01*
X133177777Y-126131408D01*
X133175842Y-126131264D01*
X133142829Y-126147024D01*
X133069946Y-126190850D01*
X132965322Y-126257557D01*
X132837090Y-126341964D01*
X132694948Y-126437816D01*
X132550233Y-126534867D01*
X132419804Y-126619270D01*
X132312110Y-126685801D01*
X132235598Y-126729238D01*
X132199062Y-126744368D01*
X132165418Y-126724482D01*
X132097776Y-126668903D01*
X132002893Y-126583754D01*
X131887530Y-126475153D01*
X131758445Y-126349221D01*
X131716229Y-126307149D01*
X131279739Y-125869931D01*
X131611977Y-125382340D01*
X131712946Y-125232605D01*
X131801562Y-125098220D01*
X131872854Y-124986969D01*
X131921850Y-124906639D01*
X131943578Y-124865014D01*
X131944215Y-124862053D01*
X131932760Y-124822818D01*
X131901949Y-124743895D01*
X131857116Y-124638509D01*
X131825647Y-124567954D01*
X131766808Y-124432876D01*
X131711396Y-124296409D01*
X131668436Y-124181103D01*
X131656766Y-124145977D01*
X131623611Y-124052174D01*
X131591201Y-123979694D01*
X131573399Y-123952301D01*
X131534114Y-123935536D01*
X131448374Y-123911770D01*
X131327303Y-123883697D01*
X131182027Y-123854009D01*
X131117012Y-123841806D01*
X130951913Y-123811468D01*
X130793552Y-123782093D01*
X130657404Y-123756569D01*
X130558943Y-123737785D01*
X130540402Y-123734160D01*
X130387127Y-123703906D01*
X130387127Y-123065645D01*
X130387471Y-122855770D01*
X130388884Y-122696980D01*
X130391936Y-122581973D01*
X130397197Y-122503446D01*
X130405237Y-122454096D01*
X130416627Y-122426619D01*
X130431937Y-122413713D01*
X130438218Y-122411320D01*
X130476104Y-122402833D01*
X130559805Y-122385900D01*
X130678567Y-122362566D01*
X130821639Y-122334875D01*
X130978268Y-122304873D01*
X131137703Y-122274604D01*
X131289191Y-122246115D01*
X131421981Y-122221449D01*
X131525319Y-122202651D01*
X131588455Y-122191767D01*
X131602503Y-122189885D01*
X131615230Y-122164704D01*
X131643400Y-122097622D01*
X131681748Y-122001333D01*
X131696391Y-121963621D01*
X131755452Y-121817921D01*
X131825000Y-121656951D01*
X131887288Y-121521291D01*
X131933121Y-121417561D01*
X131963613Y-121332326D01*
X131973792Y-121280126D01*
X131972169Y-121273130D01*
X131950657Y-121240102D01*
X131901535Y-121166643D01*
X131830077Y-121060577D01*
X131741555Y-120929726D01*
X131641241Y-120781912D01*
X131621406Y-120752734D01*
X131505012Y-120579863D01*
X131419452Y-120448226D01*
X131361316Y-120351761D01*
X131327192Y-120284408D01*
X131313669Y-120240106D01*
X131317336Y-120212794D01*
X131317430Y-120212620D01*
X131346293Y-120176746D01*
X131410133Y-120107391D01*
X131502031Y-120011745D01*
X131615067Y-119896999D01*
X131742321Y-119770341D01*
X131756672Y-119756205D01*
X131917043Y-119600903D01*
X132040805Y-119486870D01*
X132130445Y-119412002D01*
X132188448Y-119374196D01*
X132213996Y-119369317D01*
X132251282Y-119390603D01*
X132328657Y-119439773D01*
X132438133Y-119511575D01*
X132571720Y-119600755D01*
X132721430Y-119702063D01*
X132756382Y-119725897D01*
X133252610Y-120064765D01*
X133476707Y-119963056D01*
X133612989Y-119903783D01*
X133759276Y-119844170D01*
X133885035Y-119796640D01*
X133890575Y-119794685D01*
X133988943Y-119758677D01*
X134064771Y-119728229D01*
X134101718Y-119709905D01*
X134101780Y-119709852D01*
X134113504Y-119676729D01*
X134133432Y-119595267D01*
X134159587Y-119474625D01*
X134189990Y-119323959D01*
X134222663Y-119152428D01*
X134225336Y-119137967D01*
X134258110Y-118961235D01*
X134288198Y-118800810D01*
X134313661Y-118666888D01*
X134332559Y-118569663D01*
X134342953Y-118519332D01*
X134343135Y-118518563D01*
X134349461Y-118497153D01*
X134361761Y-118480988D01*
X134387406Y-118469331D01*
X134433765Y-118461445D01*
X134508208Y-118456593D01*
X134618105Y-118454039D01*
X134770825Y-118453045D01*
X134973738Y-118452874D01*
X135000000Y-118452874D01*
X135209014Y-118452998D01*
X135209014Y-118452998D01*
G37*
X135209014Y-118452998D02*
X135367006Y-118453863D01*
X135481347Y-118456205D01*
X135559407Y-118460762D01*
X135608554Y-118468270D01*
X135636159Y-118479466D01*
X135649592Y-118495088D01*
X135656221Y-118515873D01*
X135656865Y-118518563D01*
X135666935Y-118567113D01*
X135685575Y-118662905D01*
X135710845Y-118795743D01*
X135740807Y-118955431D01*
X135773522Y-119131774D01*
X135774664Y-119137967D01*
X135807433Y-119310782D01*
X135838093Y-119463469D01*
X135864664Y-119586871D01*
X135885167Y-119671831D01*
X135897626Y-119709190D01*
X135898220Y-119709852D01*
X135934919Y-119728095D01*
X136010586Y-119758497D01*
X136108878Y-119794493D01*
X136109425Y-119794685D01*
X136233233Y-119841222D01*
X136379196Y-119900504D01*
X136516781Y-119960109D01*
X136523293Y-119963056D01*
X136747390Y-120064765D01*
X137243619Y-119725897D01*
X137395846Y-119622592D01*
X137533741Y-119530237D01*
X137649315Y-119454084D01*
X137734579Y-119399385D01*
X137781544Y-119371393D01*
X137786004Y-119369317D01*
X137820134Y-119378560D01*
X137883881Y-119423156D01*
X137979731Y-119505209D01*
X138110169Y-119626821D01*
X138243328Y-119756205D01*
X138371694Y-119883702D01*
X138486581Y-120000046D01*
X138581073Y-120098052D01*
X138648253Y-120170536D01*
X138681206Y-120210313D01*
X138682432Y-120212361D01*
X138686074Y-120239656D01*
X138672350Y-120284234D01*
X138637869Y-120352112D01*
X138579239Y-120449311D01*
X138493070Y-120581851D01*
X138378200Y-120752476D01*
X138276254Y-120902655D01*
X138185123Y-121037350D01*
X138110073Y-121148740D01*
X138056369Y-121229005D01*
X138029280Y-121270325D01*
X138027574Y-121273130D01*
X138030882Y-121312721D01*
X138055953Y-121389669D01*
X138097798Y-121489432D01*
X138112712Y-121521291D01*
X138177786Y-121663226D01*
X138247212Y-121824273D01*
X138303609Y-121963621D01*
X138344247Y-122067044D01*
X138376526Y-122145642D01*
X138395178Y-122186720D01*
X138397497Y-122189885D01*
X138431803Y-122195128D01*
X138512669Y-122209494D01*
X138629343Y-122230937D01*
X138771075Y-122257413D01*
X138927110Y-122286877D01*
X139086698Y-122317283D01*
X139239085Y-122346588D01*
X139373521Y-122372745D01*
X139479252Y-122393710D01*
X139545526Y-122407439D01*
X139561782Y-122411320D01*
X139578573Y-122420900D01*
X139591249Y-122442536D01*
X139600378Y-122483531D01*
X139606531Y-122551189D01*
X139610280Y-122652812D01*
X139612192Y-122795703D01*
X139612840Y-122987165D01*
X139612874Y-123065645D01*
X139612874Y-123703906D01*
X139459598Y-123734160D01*
X139374322Y-123750564D01*
X139247070Y-123774509D01*
X139093315Y-123803107D01*
X138928534Y-123833467D01*
X138882989Y-123841806D01*
X138730932Y-123871370D01*
X138598468Y-123900442D01*
X138496714Y-123926329D01*
X138436788Y-123946337D01*
X138426805Y-123952301D01*
X138402293Y-123994534D01*
X138367148Y-124076370D01*
X138328173Y-124181683D01*
X138320442Y-124204368D01*
X138269360Y-124345018D01*
X138205954Y-124503714D01*
X138143904Y-124646225D01*
X138143598Y-124646886D01*
X138040267Y-124870440D01*
X138719961Y-125870232D01*
X138283621Y-126307300D01*
X138151649Y-126437381D01*
X138031279Y-126552048D01*
X137929273Y-126645181D01*
X137852391Y-126710658D01*
X137807393Y-126742357D01*
X137800938Y-126744368D01*
X137763040Y-126728529D01*
X137685708Y-126684496D01*
X137577389Y-126617490D01*
X137446532Y-126532734D01*
X137305052Y-126437816D01*
X137161461Y-126340998D01*
X137033435Y-126256751D01*
X136929105Y-126190258D01*
X136856600Y-126146702D01*
X136824158Y-126131264D01*
X136784576Y-126144328D01*
X136709519Y-126178750D01*
X136614468Y-126227380D01*
X136604392Y-126232785D01*
X136476391Y-126296980D01*
X136388618Y-126328463D01*
X136334028Y-126328798D01*
X136305575Y-126299548D01*
X136305410Y-126299138D01*
X136291188Y-126264498D01*
X136257269Y-126182269D01*
X136206284Y-126058814D01*
X136140862Y-125900498D01*
X136063634Y-125713686D01*
X135977229Y-125504742D01*
X135893551Y-125302446D01*
X135801588Y-125079200D01*
X135717150Y-124872392D01*
X135642769Y-124688362D01*
X135580974Y-124533451D01*
X135534297Y-124413996D01*
X135505268Y-124336339D01*
X135496322Y-124307356D01*
X135518756Y-124274110D01*
X135577439Y-124221123D01*
X135655689Y-124162704D01*
X135878534Y-123977952D01*
X136052718Y-123766182D01*
X136176154Y-123531856D01*
X136246754Y-123279434D01*
X136262431Y-123013377D01*
X136251036Y-122890575D01*
X136188950Y-122635793D01*
X136082023Y-122410801D01*
X135936889Y-122217817D01*
X135760178Y-122059061D01*
X135558522Y-121936750D01*
X135338554Y-121853105D01*
X135106906Y-121810344D01*
X134870209Y-121810687D01*
X134635095Y-121856352D01*
X134408196Y-121949559D01*
X134196144Y-122092527D01*
X134107636Y-122173383D01*
X133937889Y-122381007D01*
X133819699Y-122607895D01*
X133752278Y-122847433D01*
X133734840Y-123093007D01*
X133766598Y-123338003D01*
X133846765Y-123575808D01*
X133974555Y-123799807D01*
X134149180Y-124003387D01*
X134344312Y-124162704D01*
X134425591Y-124223602D01*
X134483009Y-124276015D01*
X134503678Y-124307406D01*
X134492856Y-124341639D01*
X134462077Y-124423419D01*
X134413874Y-124546407D01*
X134350778Y-124704263D01*
X134275322Y-124890649D01*
X134190038Y-125099226D01*
X134106219Y-125302496D01*
X134013745Y-125525933D01*
X133928089Y-125732984D01*
X133851882Y-125917286D01*
X133787753Y-126072475D01*
X133738332Y-126192188D01*
X133706248Y-126270061D01*
X133694359Y-126299138D01*
X133666274Y-126328677D01*
X133611949Y-126328591D01*
X133524395Y-126297326D01*
X133396619Y-126233329D01*
X133395608Y-126232785D01*
X133299402Y-126183121D01*
X133221631Y-126146945D01*
X133177777Y-126131408D01*
X133175842Y-126131264D01*
X133142829Y-126147024D01*
X133069946Y-126190850D01*
X132965322Y-126257557D01*
X132837090Y-126341964D01*
X132694948Y-126437816D01*
X132550233Y-126534867D01*
X132419804Y-126619270D01*
X132312110Y-126685801D01*
X132235598Y-126729238D01*
X132199062Y-126744368D01*
X132165418Y-126724482D01*
X132097776Y-126668903D01*
X132002893Y-126583754D01*
X131887530Y-126475153D01*
X131758445Y-126349221D01*
X131716229Y-126307149D01*
X131279739Y-125869931D01*
X131611977Y-125382340D01*
X131712946Y-125232605D01*
X131801562Y-125098220D01*
X131872854Y-124986969D01*
X131921850Y-124906639D01*
X131943578Y-124865014D01*
X131944215Y-124862053D01*
X131932760Y-124822818D01*
X131901949Y-124743895D01*
X131857116Y-124638509D01*
X131825647Y-124567954D01*
X131766808Y-124432876D01*
X131711396Y-124296409D01*
X131668436Y-124181103D01*
X131656766Y-124145977D01*
X131623611Y-124052174D01*
X131591201Y-123979694D01*
X131573399Y-123952301D01*
X131534114Y-123935536D01*
X131448374Y-123911770D01*
X131327303Y-123883697D01*
X131182027Y-123854009D01*
X131117012Y-123841806D01*
X130951913Y-123811468D01*
X130793552Y-123782093D01*
X130657404Y-123756569D01*
X130558943Y-123737785D01*
X130540402Y-123734160D01*
X130387127Y-123703906D01*
X130387127Y-123065645D01*
X130387471Y-122855770D01*
X130388884Y-122696980D01*
X130391936Y-122581973D01*
X130397197Y-122503446D01*
X130405237Y-122454096D01*
X130416627Y-122426619D01*
X130431937Y-122413713D01*
X130438218Y-122411320D01*
X130476104Y-122402833D01*
X130559805Y-122385900D01*
X130678567Y-122362566D01*
X130821639Y-122334875D01*
X130978268Y-122304873D01*
X131137703Y-122274604D01*
X131289191Y-122246115D01*
X131421981Y-122221449D01*
X131525319Y-122202651D01*
X131588455Y-122191767D01*
X131602503Y-122189885D01*
X131615230Y-122164704D01*
X131643400Y-122097622D01*
X131681748Y-122001333D01*
X131696391Y-121963621D01*
X131755452Y-121817921D01*
X131825000Y-121656951D01*
X131887288Y-121521291D01*
X131933121Y-121417561D01*
X131963613Y-121332326D01*
X131973792Y-121280126D01*
X131972169Y-121273130D01*
X131950657Y-121240102D01*
X131901535Y-121166643D01*
X131830077Y-121060577D01*
X131741555Y-120929726D01*
X131641241Y-120781912D01*
X131621406Y-120752734D01*
X131505012Y-120579863D01*
X131419452Y-120448226D01*
X131361316Y-120351761D01*
X131327192Y-120284408D01*
X131313669Y-120240106D01*
X131317336Y-120212794D01*
X131317430Y-120212620D01*
X131346293Y-120176746D01*
X131410133Y-120107391D01*
X131502031Y-120011745D01*
X131615067Y-119896999D01*
X131742321Y-119770341D01*
X131756672Y-119756205D01*
X131917043Y-119600903D01*
X132040805Y-119486870D01*
X132130445Y-119412002D01*
X132188448Y-119374196D01*
X132213996Y-119369317D01*
X132251282Y-119390603D01*
X132328657Y-119439773D01*
X132438133Y-119511575D01*
X132571720Y-119600755D01*
X132721430Y-119702063D01*
X132756382Y-119725897D01*
X133252610Y-120064765D01*
X133476707Y-119963056D01*
X133612989Y-119903783D01*
X133759276Y-119844170D01*
X133885035Y-119796640D01*
X133890575Y-119794685D01*
X133988943Y-119758677D01*
X134064771Y-119728229D01*
X134101718Y-119709905D01*
X134101780Y-119709852D01*
X134113504Y-119676729D01*
X134133432Y-119595267D01*
X134159587Y-119474625D01*
X134189990Y-119323959D01*
X134222663Y-119152428D01*
X134225336Y-119137967D01*
X134258110Y-118961235D01*
X134288198Y-118800810D01*
X134313661Y-118666888D01*
X134332559Y-118569663D01*
X134342953Y-118519332D01*
X134343135Y-118518563D01*
X134349461Y-118497153D01*
X134361761Y-118480988D01*
X134387406Y-118469331D01*
X134433765Y-118461445D01*
X134508208Y-118456593D01*
X134618105Y-118454039D01*
X134770825Y-118453045D01*
X134973738Y-118452874D01*
X135000000Y-118452874D01*
X135209014Y-118452998D01*
G36*
X141343439Y-127956540D02*
G01*
X141458950Y-128032034D01*
X141514664Y-128099617D01*
X141558804Y-128222255D01*
X141562309Y-128319298D01*
X141554368Y-128449056D01*
X141255115Y-128580039D01*
X141109611Y-128646958D01*
X141014537Y-128700790D01*
X140965101Y-128747416D01*
X140956511Y-128792720D01*
X140983972Y-128842582D01*
X141014253Y-128875632D01*
X141102363Y-128928633D01*
X141198196Y-128932347D01*
X141286212Y-128891041D01*
X141350869Y-128808983D01*
X141362433Y-128780008D01*
X141417825Y-128689509D01*
X141481553Y-128650940D01*
X141568966Y-128617946D01*
X141568966Y-128743034D01*
X141561238Y-128828156D01*
X141530966Y-128899938D01*
X141467518Y-128982356D01*
X141458088Y-128993066D01*
X141387513Y-129066391D01*
X141326847Y-129105742D01*
X141250950Y-129123845D01*
X141188030Y-129129774D01*
X141075487Y-129131251D01*
X140995370Y-129112535D01*
X140945390Y-129084747D01*
X140866838Y-129023641D01*
X140812463Y-128957554D01*
X140778052Y-128874441D01*
X140759388Y-128762254D01*
X140752256Y-128608946D01*
X140751687Y-128531136D01*
X140753622Y-128437853D01*
X140929899Y-128437853D01*
X140931944Y-128487896D01*
X140937039Y-128496092D01*
X140970666Y-128484958D01*
X141043030Y-128455493D01*
X141139747Y-128413601D01*
X141159973Y-128404597D01*
X141282203Y-128342442D01*
X141349547Y-128287815D01*
X141364348Y-128236649D01*
X141328947Y-128184876D01*
X141299711Y-128162000D01*
X141194216Y-128116250D01*
X141095476Y-128123808D01*
X141012812Y-128179651D01*
X140955548Y-128278753D01*
X140937188Y-128357414D01*
X140929899Y-128437853D01*
X140753622Y-128437853D01*
X140755459Y-128349351D01*
X140769359Y-128214853D01*
X140796894Y-128116916D01*
X140841572Y-128044811D01*
X140906901Y-127987813D01*
X140935383Y-127969393D01*
X141064763Y-127921422D01*
X141206412Y-127918403D01*
X141343439Y-127956540D01*
X141343439Y-127956540D01*
G37*
X141343439Y-127956540D02*
X141458950Y-128032034D01*
X141514664Y-128099617D01*
X141558804Y-128222255D01*
X141562309Y-128319298D01*
X141554368Y-128449056D01*
X141255115Y-128580039D01*
X141109611Y-128646958D01*
X141014537Y-128700790D01*
X140965101Y-128747416D01*
X140956511Y-128792720D01*
X140983972Y-128842582D01*
X141014253Y-128875632D01*
X141102363Y-128928633D01*
X141198196Y-128932347D01*
X141286212Y-128891041D01*
X141350869Y-128808983D01*
X141362433Y-128780008D01*
X141417825Y-128689509D01*
X141481553Y-128650940D01*
X141568966Y-128617946D01*
X141568966Y-128743034D01*
X141561238Y-128828156D01*
X141530966Y-128899938D01*
X141467518Y-128982356D01*
X141458088Y-128993066D01*
X141387513Y-129066391D01*
X141326847Y-129105742D01*
X141250950Y-129123845D01*
X141188030Y-129129774D01*
X141075487Y-129131251D01*
X140995370Y-129112535D01*
X140945390Y-129084747D01*
X140866838Y-129023641D01*
X140812463Y-128957554D01*
X140778052Y-128874441D01*
X140759388Y-128762254D01*
X140752256Y-128608946D01*
X140751687Y-128531136D01*
X140753622Y-128437853D01*
X140929899Y-128437853D01*
X140931944Y-128487896D01*
X140937039Y-128496092D01*
X140970666Y-128484958D01*
X141043030Y-128455493D01*
X141139747Y-128413601D01*
X141159973Y-128404597D01*
X141282203Y-128342442D01*
X141349547Y-128287815D01*
X141364348Y-128236649D01*
X141328947Y-128184876D01*
X141299711Y-128162000D01*
X141194216Y-128116250D01*
X141095476Y-128123808D01*
X141012812Y-128179651D01*
X140955548Y-128278753D01*
X140937188Y-128357414D01*
X140929899Y-128437853D01*
X140753622Y-128437853D01*
X140755459Y-128349351D01*
X140769359Y-128214853D01*
X140796894Y-128116916D01*
X140841572Y-128044811D01*
X140906901Y-127987813D01*
X140935383Y-127969393D01*
X141064763Y-127921422D01*
X141206412Y-127918403D01*
X141343439Y-127956540D01*
G36*
X140335690Y-127940018D02*
G01*
X140370585Y-127955269D01*
X140453877Y-128021235D01*
X140525103Y-128116618D01*
X140569153Y-128218406D01*
X140576322Y-128268587D01*
X140552285Y-128338647D01*
X140499561Y-128375717D01*
X140443031Y-128398164D01*
X140417146Y-128402300D01*
X140404542Y-128372283D01*
X140379654Y-128306961D01*
X140368735Y-128277445D01*
X140307508Y-128175348D01*
X140218861Y-128124423D01*
X140105193Y-128125989D01*
X140096774Y-128127994D01*
X140036088Y-128156767D01*
X139991474Y-128212859D01*
X139961002Y-128303163D01*
X139942744Y-128434571D01*
X139934771Y-128613974D01*
X139934023Y-128709433D01*
X139933652Y-128859913D01*
X139931223Y-128962495D01*
X139924760Y-129027672D01*
X139912288Y-129065938D01*
X139891833Y-129087785D01*
X139861419Y-129103707D01*
X139859661Y-129104509D01*
X139801091Y-129129272D01*
X139772075Y-129138391D01*
X139767616Y-129110822D01*
X139763799Y-129034620D01*
X139760899Y-128919541D01*
X139759191Y-128775341D01*
X139758851Y-128669814D01*
X139760588Y-128465613D01*
X139767382Y-128310697D01*
X139781607Y-128196024D01*
X139805638Y-128112551D01*
X139841848Y-128051236D01*
X139892612Y-128003034D01*
X139942739Y-127969393D01*
X140063275Y-127924619D01*
X140203557Y-127914521D01*
X140335690Y-127940018D01*
X140335690Y-127940018D01*
G37*
X140335690Y-127940018D02*
X140370585Y-127955269D01*
X140453877Y-128021235D01*
X140525103Y-128116618D01*
X140569153Y-128218406D01*
X140576322Y-128268587D01*
X140552285Y-128338647D01*
X140499561Y-128375717D01*
X140443031Y-128398164D01*
X140417146Y-128402300D01*
X140404542Y-128372283D01*
X140379654Y-128306961D01*
X140368735Y-128277445D01*
X140307508Y-128175348D01*
X140218861Y-128124423D01*
X140105193Y-128125989D01*
X140096774Y-128127994D01*
X140036088Y-128156767D01*
X139991474Y-128212859D01*
X139961002Y-128303163D01*
X139942744Y-128434571D01*
X139934771Y-128613974D01*
X139934023Y-128709433D01*
X139933652Y-128859913D01*
X139931223Y-128962495D01*
X139924760Y-129027672D01*
X139912288Y-129065938D01*
X139891833Y-129087785D01*
X139861419Y-129103707D01*
X139859661Y-129104509D01*
X139801091Y-129129272D01*
X139772075Y-129138391D01*
X139767616Y-129110822D01*
X139763799Y-129034620D01*
X139760899Y-128919541D01*
X139759191Y-128775341D01*
X139758851Y-128669814D01*
X139760588Y-128465613D01*
X139767382Y-128310697D01*
X139781607Y-128196024D01*
X139805638Y-128112551D01*
X139841848Y-128051236D01*
X139892612Y-128003034D01*
X139942739Y-127969393D01*
X140063275Y-127924619D01*
X140203557Y-127914521D01*
X140335690Y-127940018D01*
G36*
X139314406Y-127935156D02*
G01*
X139398469Y-127973393D01*
X139464450Y-128019726D01*
X139512794Y-128071532D01*
X139546172Y-128138363D01*
X139567253Y-128229769D01*
X139578707Y-128355301D01*
X139583203Y-128524508D01*
X139583678Y-128635933D01*
X139583678Y-129070627D01*
X139509316Y-129104509D01*
X139450746Y-129129272D01*
X139421730Y-129138391D01*
X139416179Y-129111257D01*
X139411775Y-129038094D01*
X139409078Y-128931263D01*
X139408506Y-128846437D01*
X139406046Y-128723887D01*
X139399412Y-128626668D01*
X139389726Y-128567134D01*
X139382032Y-128554483D01*
X139330311Y-128567402D01*
X139249117Y-128600539D01*
X139155102Y-128645461D01*
X139064917Y-128693735D01*
X138995215Y-128736928D01*
X138962648Y-128766608D01*
X138962519Y-128766929D01*
X138965320Y-128821857D01*
X138990439Y-128874292D01*
X139034541Y-128916881D01*
X139098909Y-128931126D01*
X139153921Y-128929466D01*
X139231835Y-128928245D01*
X139272732Y-128946498D01*
X139297295Y-128994726D01*
X139300392Y-129003820D01*
X139311040Y-129072598D01*
X139282565Y-129114360D01*
X139208344Y-129134263D01*
X139128168Y-129137944D01*
X138983890Y-129110658D01*
X138909203Y-129071690D01*
X138816963Y-128980148D01*
X138768043Y-128867782D01*
X138763654Y-128749051D01*
X138805001Y-128638411D01*
X138867197Y-128569080D01*
X138929294Y-128530265D01*
X139026895Y-128481125D01*
X139140632Y-128431292D01*
X139159590Y-128423677D01*
X139284521Y-128368545D01*
X139356539Y-128319954D01*
X139379700Y-128271647D01*
X139358064Y-128217370D01*
X139320920Y-128174943D01*
X139233127Y-128122702D01*
X139136530Y-128118784D01*
X139047944Y-128159041D01*
X138984186Y-128239326D01*
X138975817Y-128260040D01*
X138927096Y-128336225D01*
X138855965Y-128392785D01*
X138766207Y-128439201D01*
X138766207Y-128307584D01*
X138771490Y-128227168D01*
X138794142Y-128163786D01*
X138844367Y-128096163D01*
X138892582Y-128044076D01*
X138967554Y-127970322D01*
X139025806Y-127930702D01*
X139088372Y-127914810D01*
X139159193Y-127912184D01*
X139314406Y-127935156D01*
X139314406Y-127935156D01*
G37*
X139314406Y-127935156D02*
X139398469Y-127973393D01*
X139464450Y-128019726D01*
X139512794Y-128071532D01*
X139546172Y-128138363D01*
X139567253Y-128229769D01*
X139578707Y-128355301D01*
X139583203Y-128524508D01*
X139583678Y-128635933D01*
X139583678Y-129070627D01*
X139509316Y-129104509D01*
X139450746Y-129129272D01*
X139421730Y-129138391D01*
X139416179Y-129111257D01*
X139411775Y-129038094D01*
X139409078Y-128931263D01*
X139408506Y-128846437D01*
X139406046Y-128723887D01*
X139399412Y-128626668D01*
X139389726Y-128567134D01*
X139382032Y-128554483D01*
X139330311Y-128567402D01*
X139249117Y-128600539D01*
X139155102Y-128645461D01*
X139064917Y-128693735D01*
X138995215Y-128736928D01*
X138962648Y-128766608D01*
X138962519Y-128766929D01*
X138965320Y-128821857D01*
X138990439Y-128874292D01*
X139034541Y-128916881D01*
X139098909Y-128931126D01*
X139153921Y-128929466D01*
X139231835Y-128928245D01*
X139272732Y-128946498D01*
X139297295Y-128994726D01*
X139300392Y-129003820D01*
X139311040Y-129072598D01*
X139282565Y-129114360D01*
X139208344Y-129134263D01*
X139128168Y-129137944D01*
X138983890Y-129110658D01*
X138909203Y-129071690D01*
X138816963Y-128980148D01*
X138768043Y-128867782D01*
X138763654Y-128749051D01*
X138805001Y-128638411D01*
X138867197Y-128569080D01*
X138929294Y-128530265D01*
X139026895Y-128481125D01*
X139140632Y-128431292D01*
X139159590Y-128423677D01*
X139284521Y-128368545D01*
X139356539Y-128319954D01*
X139379700Y-128271647D01*
X139358064Y-128217370D01*
X139320920Y-128174943D01*
X139233127Y-128122702D01*
X139136530Y-128118784D01*
X139047944Y-128159041D01*
X138984186Y-128239326D01*
X138975817Y-128260040D01*
X138927096Y-128336225D01*
X138855965Y-128392785D01*
X138766207Y-128439201D01*
X138766207Y-128307584D01*
X138771490Y-128227168D01*
X138794142Y-128163786D01*
X138844367Y-128096163D01*
X138892582Y-128044076D01*
X138967554Y-127970322D01*
X139025806Y-127930702D01*
X139088372Y-127914810D01*
X139159193Y-127912184D01*
X139314406Y-127935156D01*
G36*
X138580124Y-127939840D02*
G01*
X138584579Y-128016653D01*
X138588071Y-128133391D01*
X138590315Y-128280821D01*
X138591035Y-128435455D01*
X138591035Y-128958727D01*
X138498645Y-129051117D01*
X138434978Y-129108047D01*
X138379089Y-129131107D01*
X138302702Y-129129647D01*
X138272380Y-129125934D01*
X138177610Y-129115126D01*
X138099222Y-129108933D01*
X138080115Y-129108361D01*
X138015699Y-129112102D01*
X137923571Y-129121494D01*
X137887850Y-129125934D01*
X137800114Y-129132801D01*
X137741153Y-129117885D01*
X137682690Y-129071835D01*
X137661585Y-129051117D01*
X137569195Y-128958727D01*
X137569195Y-127979947D01*
X137643558Y-127946066D01*
X137707590Y-127920970D01*
X137745052Y-127912184D01*
X137754657Y-127939950D01*
X137763635Y-128017530D01*
X137771386Y-128136348D01*
X137777314Y-128287828D01*
X137780173Y-128415805D01*
X137788161Y-128919425D01*
X137857848Y-128929278D01*
X137921229Y-128922389D01*
X137952286Y-128900083D01*
X137960967Y-128858379D01*
X137968378Y-128769544D01*
X137973931Y-128644834D01*
X137977036Y-128495507D01*
X137977484Y-128418661D01*
X137977931Y-127976287D01*
X138069874Y-127944235D01*
X138134949Y-127922443D01*
X138170347Y-127912281D01*
X138171368Y-127912184D01*
X138174920Y-127939809D01*
X138178823Y-128016411D01*
X138182751Y-128132579D01*
X138186376Y-128278904D01*
X138188908Y-128415805D01*
X138196897Y-128919425D01*
X138372069Y-128919425D01*
X138380107Y-128459965D01*
X138388146Y-128000505D01*
X138473543Y-127956344D01*
X138536593Y-127926019D01*
X138573910Y-127912258D01*
X138574987Y-127912184D01*
X138580124Y-127939840D01*
X138580124Y-127939840D01*
G37*
X138580124Y-127939840D02*
X138584579Y-128016653D01*
X138588071Y-128133391D01*
X138590315Y-128280821D01*
X138591035Y-128435455D01*
X138591035Y-128958727D01*
X138498645Y-129051117D01*
X138434978Y-129108047D01*
X138379089Y-129131107D01*
X138302702Y-129129647D01*
X138272380Y-129125934D01*
X138177610Y-129115126D01*
X138099222Y-129108933D01*
X138080115Y-129108361D01*
X138015699Y-129112102D01*
X137923571Y-129121494D01*
X137887850Y-129125934D01*
X137800114Y-129132801D01*
X137741153Y-129117885D01*
X137682690Y-129071835D01*
X137661585Y-129051117D01*
X137569195Y-128958727D01*
X137569195Y-127979947D01*
X137643558Y-127946066D01*
X137707590Y-127920970D01*
X137745052Y-127912184D01*
X137754657Y-127939950D01*
X137763635Y-128017530D01*
X137771386Y-128136348D01*
X137777314Y-128287828D01*
X137780173Y-128415805D01*
X137788161Y-128919425D01*
X137857848Y-128929278D01*
X137921229Y-128922389D01*
X137952286Y-128900083D01*
X137960967Y-128858379D01*
X137968378Y-128769544D01*
X137973931Y-128644834D01*
X137977036Y-128495507D01*
X137977484Y-128418661D01*
X137977931Y-127976287D01*
X138069874Y-127944235D01*
X138134949Y-127922443D01*
X138170347Y-127912281D01*
X138171368Y-127912184D01*
X138174920Y-127939809D01*
X138178823Y-128016411D01*
X138182751Y-128132579D01*
X138186376Y-128278904D01*
X138188908Y-128415805D01*
X138196897Y-128919425D01*
X138372069Y-128919425D01*
X138380107Y-128459965D01*
X138388146Y-128000505D01*
X138473543Y-127956344D01*
X138536593Y-127926019D01*
X138573910Y-127912258D01*
X138574987Y-127912184D01*
X138580124Y-127939840D01*
G36*
X137393914Y-128154455D02*
G01*
X137393543Y-128372661D01*
X137392108Y-128540519D01*
X137389002Y-128666070D01*
X137383622Y-128757355D01*
X137375362Y-128822415D01*
X137363616Y-128869291D01*
X137347781Y-128906024D01*
X137335790Y-128926991D01*
X137236490Y-129040694D01*
X137110588Y-129111965D01*
X136971291Y-129137538D01*
X136831805Y-129114150D01*
X136748743Y-129072119D01*
X136661545Y-128999411D01*
X136602117Y-128910612D01*
X136566261Y-128794320D01*
X136549781Y-128639135D01*
X136547447Y-128525287D01*
X136547761Y-128517106D01*
X136751724Y-128517106D01*
X136752970Y-128647657D01*
X136758678Y-128734080D01*
X136771804Y-128790618D01*
X136795306Y-128831514D01*
X136823386Y-128862362D01*
X136917688Y-128921905D01*
X137018940Y-128926992D01*
X137114636Y-128877279D01*
X137122084Y-128870543D01*
X137153874Y-128835502D01*
X137173808Y-128793811D01*
X137184600Y-128731762D01*
X137188965Y-128635644D01*
X137189655Y-128529379D01*
X137188159Y-128395880D01*
X137181964Y-128306822D01*
X137168514Y-128248293D01*
X137145251Y-128206382D01*
X137126175Y-128184123D01*
X137037563Y-128127985D01*
X136935508Y-128121235D01*
X136838095Y-128164114D01*
X136819296Y-128180032D01*
X136787293Y-128215382D01*
X136767318Y-128257502D01*
X136756593Y-128320251D01*
X136752339Y-128417487D01*
X136751724Y-128517106D01*
X136547761Y-128517106D01*
X136554504Y-128341947D01*
X136578472Y-128204195D01*
X136623548Y-128100632D01*
X136693928Y-128019856D01*
X136748743Y-127978455D01*
X136848376Y-127933728D01*
X136963855Y-127912967D01*
X137071199Y-127918525D01*
X137131264Y-127940943D01*
X137154835Y-127947323D01*
X137170477Y-127923535D01*
X137181395Y-127859788D01*
X137189655Y-127762687D01*
X137198699Y-127654541D01*
X137211261Y-127589475D01*
X137234119Y-127552268D01*
X137274051Y-127527699D01*
X137299138Y-127516819D01*
X137394023Y-127477072D01*
X137393914Y-128154455D01*
X137393914Y-128154455D01*
G37*
X137393914Y-128154455D02*
X137393543Y-128372661D01*
X137392108Y-128540519D01*
X137389002Y-128666070D01*
X137383622Y-128757355D01*
X137375362Y-128822415D01*
X137363616Y-128869291D01*
X137347781Y-128906024D01*
X137335790Y-128926991D01*
X137236490Y-129040694D01*
X137110588Y-129111965D01*
X136971291Y-129137538D01*
X136831805Y-129114150D01*
X136748743Y-129072119D01*
X136661545Y-128999411D01*
X136602117Y-128910612D01*
X136566261Y-128794320D01*
X136549781Y-128639135D01*
X136547447Y-128525287D01*
X136547761Y-128517106D01*
X136751724Y-128517106D01*
X136752970Y-128647657D01*
X136758678Y-128734080D01*
X136771804Y-128790618D01*
X136795306Y-128831514D01*
X136823386Y-128862362D01*
X136917688Y-128921905D01*
X137018940Y-128926992D01*
X137114636Y-128877279D01*
X137122084Y-128870543D01*
X137153874Y-128835502D01*
X137173808Y-128793811D01*
X137184600Y-128731762D01*
X137188965Y-128635644D01*
X137189655Y-128529379D01*
X137188159Y-128395880D01*
X137181964Y-128306822D01*
X137168514Y-128248293D01*
X137145251Y-128206382D01*
X137126175Y-128184123D01*
X137037563Y-128127985D01*
X136935508Y-128121235D01*
X136838095Y-128164114D01*
X136819296Y-128180032D01*
X136787293Y-128215382D01*
X136767318Y-128257502D01*
X136756593Y-128320251D01*
X136752339Y-128417487D01*
X136751724Y-128517106D01*
X136547761Y-128517106D01*
X136554504Y-128341947D01*
X136578472Y-128204195D01*
X136623548Y-128100632D01*
X136693928Y-128019856D01*
X136748743Y-127978455D01*
X136848376Y-127933728D01*
X136963855Y-127912967D01*
X137071199Y-127918525D01*
X137131264Y-127940943D01*
X137154835Y-127947323D01*
X137170477Y-127923535D01*
X137181395Y-127859788D01*
X137189655Y-127762687D01*
X137198699Y-127654541D01*
X137211261Y-127589475D01*
X137234119Y-127552268D01*
X137274051Y-127527699D01*
X137299138Y-127516819D01*
X137394023Y-127477072D01*
X137393914Y-128154455D01*
G36*
X136065943Y-127921920D02*
G01*
X136198565Y-127970859D01*
X136306010Y-128057419D01*
X136348032Y-128118352D01*
X136393843Y-128230161D01*
X136392891Y-128311006D01*
X136344808Y-128365378D01*
X136327017Y-128374624D01*
X136250204Y-128403450D01*
X136210976Y-128396065D01*
X136197689Y-128347658D01*
X136197012Y-128320920D01*
X136172686Y-128222548D01*
X136109281Y-128153734D01*
X136021154Y-128120498D01*
X135922663Y-128128861D01*
X135842602Y-128172296D01*
X135815561Y-128197072D01*
X135796394Y-128227129D01*
X135783446Y-128272565D01*
X135775064Y-128343476D01*
X135769593Y-128449960D01*
X135765378Y-128602112D01*
X135764287Y-128650287D01*
X135760307Y-128815095D01*
X135755781Y-128931088D01*
X135748995Y-129007833D01*
X135738231Y-129054893D01*
X135721773Y-129081835D01*
X135697906Y-129098223D01*
X135682626Y-129105463D01*
X135617733Y-129130220D01*
X135579534Y-129138391D01*
X135566912Y-129111103D01*
X135559208Y-129028603D01*
X135556380Y-128889941D01*
X135558386Y-128694162D01*
X135559011Y-128663965D01*
X135563421Y-128485349D01*
X135568635Y-128354923D01*
X135576055Y-128262492D01*
X135587082Y-128197858D01*
X135603117Y-128150825D01*
X135625561Y-128111196D01*
X135637302Y-128094215D01*
X135704619Y-128019080D01*
X135779910Y-127960638D01*
X135789128Y-127955536D01*
X135924133Y-127915260D01*
X136065943Y-127921920D01*
X136065943Y-127921920D01*
G37*
X136065943Y-127921920D02*
X136198565Y-127970859D01*
X136306010Y-128057419D01*
X136348032Y-128118352D01*
X136393843Y-128230161D01*
X136392891Y-128311006D01*
X136344808Y-128365378D01*
X136327017Y-128374624D01*
X136250204Y-128403450D01*
X136210976Y-128396065D01*
X136197689Y-128347658D01*
X136197012Y-128320920D01*
X136172686Y-128222548D01*
X136109281Y-128153734D01*
X136021154Y-128120498D01*
X135922663Y-128128861D01*
X135842602Y-128172296D01*
X135815561Y-128197072D01*
X135796394Y-128227129D01*
X135783446Y-128272565D01*
X135775064Y-128343476D01*
X135769593Y-128449960D01*
X135765378Y-128602112D01*
X135764287Y-128650287D01*
X135760307Y-128815095D01*
X135755781Y-128931088D01*
X135748995Y-129007833D01*
X135738231Y-129054893D01*
X135721773Y-129081835D01*
X135697906Y-129098223D01*
X135682626Y-129105463D01*
X135617733Y-129130220D01*
X135579534Y-129138391D01*
X135566912Y-129111103D01*
X135559208Y-129028603D01*
X135556380Y-128889941D01*
X135558386Y-128694162D01*
X135559011Y-128663965D01*
X135563421Y-128485349D01*
X135568635Y-128354923D01*
X135576055Y-128262492D01*
X135587082Y-128197858D01*
X135603117Y-128150825D01*
X135625561Y-128111196D01*
X135637302Y-128094215D01*
X135704619Y-128019080D01*
X135779910Y-127960638D01*
X135789128Y-127955536D01*
X135924133Y-127915260D01*
X136065943Y-127921920D01*
G36*
X135079944Y-127924360D02*
G01*
X135194343Y-127966842D01*
X135195652Y-127967658D01*
X135266403Y-128019730D01*
X135318636Y-128080584D01*
X135355371Y-128159887D01*
X135379634Y-128267309D01*
X135394445Y-128412517D01*
X135402829Y-128605179D01*
X135403564Y-128632628D01*
X135414120Y-129046521D01*
X135325291Y-129092456D01*
X135261018Y-129123498D01*
X135222210Y-129138206D01*
X135220415Y-129138391D01*
X135213700Y-129111250D01*
X135208365Y-129038041D01*
X135205083Y-128931081D01*
X135204368Y-128844469D01*
X135204351Y-128704162D01*
X135197937Y-128616051D01*
X135175580Y-128574025D01*
X135127732Y-128571975D01*
X135044849Y-128603790D01*
X134919713Y-128662272D01*
X134827697Y-128710845D01*
X134780371Y-128752986D01*
X134766458Y-128798916D01*
X134766437Y-128801189D01*
X134789395Y-128880311D01*
X134857370Y-128923055D01*
X134961398Y-128929246D01*
X135036330Y-128928172D01*
X135075839Y-128949753D01*
X135100478Y-129001591D01*
X135114659Y-129067632D01*
X135094223Y-129105104D01*
X135086528Y-129110467D01*
X135014083Y-129132006D01*
X134912633Y-129135055D01*
X134808157Y-129120778D01*
X134734125Y-129094688D01*
X134631772Y-129007785D01*
X134573591Y-128886816D01*
X134562069Y-128792308D01*
X134570862Y-128707062D01*
X134602680Y-128637476D01*
X134665684Y-128575672D01*
X134768031Y-128513772D01*
X134917882Y-128443897D01*
X134927012Y-128439948D01*
X135061997Y-128377588D01*
X135145294Y-128326446D01*
X135180997Y-128280488D01*
X135173203Y-128233683D01*
X135126007Y-128179998D01*
X135111894Y-128167644D01*
X135017359Y-128119741D01*
X134919406Y-128121758D01*
X134834097Y-128168724D01*
X134777496Y-128255669D01*
X134772237Y-128272734D01*
X134721023Y-128355504D01*
X134656037Y-128395372D01*
X134562069Y-128434882D01*
X134562069Y-128332658D01*
X134590653Y-128184072D01*
X134675495Y-128047784D01*
X134719645Y-128002191D01*
X134820005Y-127943674D01*
X134947635Y-127917184D01*
X135079944Y-127924360D01*
X135079944Y-127924360D01*
G37*
X135079944Y-127924360D02*
X135194343Y-127966842D01*
X135195652Y-127967658D01*
X135266403Y-128019730D01*
X135318636Y-128080584D01*
X135355371Y-128159887D01*
X135379634Y-128267309D01*
X135394445Y-128412517D01*
X135402829Y-128605179D01*
X135403564Y-128632628D01*
X135414120Y-129046521D01*
X135325291Y-129092456D01*
X135261018Y-129123498D01*
X135222210Y-129138206D01*
X135220415Y-129138391D01*
X135213700Y-129111250D01*
X135208365Y-129038041D01*
X135205083Y-128931081D01*
X135204368Y-128844469D01*
X135204351Y-128704162D01*
X135197937Y-128616051D01*
X135175580Y-128574025D01*
X135127732Y-128571975D01*
X135044849Y-128603790D01*
X134919713Y-128662272D01*
X134827697Y-128710845D01*
X134780371Y-128752986D01*
X134766458Y-128798916D01*
X134766437Y-128801189D01*
X134789395Y-128880311D01*
X134857370Y-128923055D01*
X134961398Y-128929246D01*
X135036330Y-128928172D01*
X135075839Y-128949753D01*
X135100478Y-129001591D01*
X135114659Y-129067632D01*
X135094223Y-129105104D01*
X135086528Y-129110467D01*
X135014083Y-129132006D01*
X134912633Y-129135055D01*
X134808157Y-129120778D01*
X134734125Y-129094688D01*
X134631772Y-129007785D01*
X134573591Y-128886816D01*
X134562069Y-128792308D01*
X134570862Y-128707062D01*
X134602680Y-128637476D01*
X134665684Y-128575672D01*
X134768031Y-128513772D01*
X134917882Y-128443897D01*
X134927012Y-128439948D01*
X135061997Y-128377588D01*
X135145294Y-128326446D01*
X135180997Y-128280488D01*
X135173203Y-128233683D01*
X135126007Y-128179998D01*
X135111894Y-128167644D01*
X135017359Y-128119741D01*
X134919406Y-128121758D01*
X134834097Y-128168724D01*
X134777496Y-128255669D01*
X134772237Y-128272734D01*
X134721023Y-128355504D01*
X134656037Y-128395372D01*
X134562069Y-128434882D01*
X134562069Y-128332658D01*
X134590653Y-128184072D01*
X134675495Y-128047784D01*
X134719645Y-128002191D01*
X134820005Y-127943674D01*
X134947635Y-127917184D01*
X135079944Y-127924360D01*
G36*
X133744598Y-127723857D02*
G01*
X133753154Y-127843188D01*
X133762981Y-127913506D01*
X133776599Y-127944179D01*
X133796527Y-127944571D01*
X133802989Y-127940910D01*
X133888940Y-127914398D01*
X134000745Y-127915946D01*
X134114414Y-127943199D01*
X134185510Y-127978455D01*
X134258405Y-128034778D01*
X134311693Y-128098519D01*
X134348275Y-128179510D01*
X134371050Y-128287586D01*
X134382919Y-128432580D01*
X134386782Y-128624326D01*
X134386851Y-128661109D01*
X134386897Y-129074288D01*
X134294954Y-129106339D01*
X134229652Y-129128144D01*
X134193824Y-129138297D01*
X134192770Y-129138391D01*
X134189242Y-129110860D01*
X134186239Y-129034923D01*
X134183990Y-128920565D01*
X134182724Y-128777769D01*
X134182529Y-128690951D01*
X134182123Y-128519773D01*
X134180032Y-128397088D01*
X134174947Y-128313000D01*
X134165560Y-128257614D01*
X134150561Y-128221032D01*
X134128642Y-128193359D01*
X134114957Y-128180032D01*
X134020949Y-128126328D01*
X133918364Y-128122307D01*
X133825290Y-128167725D01*
X133808078Y-128184123D01*
X133782832Y-128214957D01*
X133765320Y-128251531D01*
X133754142Y-128304415D01*
X133747896Y-128384177D01*
X133745182Y-128501385D01*
X133744598Y-128662991D01*
X133744598Y-129074288D01*
X133652655Y-129106339D01*
X133587353Y-129128144D01*
X133551525Y-129138297D01*
X133550471Y-129138391D01*
X133547775Y-129110448D01*
X133545345Y-129031630D01*
X133543278Y-128909453D01*
X133541671Y-128751432D01*
X133540623Y-128565083D01*
X133540231Y-128357920D01*
X133540230Y-128348706D01*
X133540230Y-127559020D01*
X133635115Y-127518997D01*
X133730000Y-127478973D01*
X133744598Y-127723857D01*
X133744598Y-127723857D01*
G37*
X133744598Y-127723857D02*
X133753154Y-127843188D01*
X133762981Y-127913506D01*
X133776599Y-127944179D01*
X133796527Y-127944571D01*
X133802989Y-127940910D01*
X133888940Y-127914398D01*
X134000745Y-127915946D01*
X134114414Y-127943199D01*
X134185510Y-127978455D01*
X134258405Y-128034778D01*
X134311693Y-128098519D01*
X134348275Y-128179510D01*
X134371050Y-128287586D01*
X134382919Y-128432580D01*
X134386782Y-128624326D01*
X134386851Y-128661109D01*
X134386897Y-129074288D01*
X134294954Y-129106339D01*
X134229652Y-129128144D01*
X134193824Y-129138297D01*
X134192770Y-129138391D01*
X134189242Y-129110860D01*
X134186239Y-129034923D01*
X134183990Y-128920565D01*
X134182724Y-128777769D01*
X134182529Y-128690951D01*
X134182123Y-128519773D01*
X134180032Y-128397088D01*
X134174947Y-128313000D01*
X134165560Y-128257614D01*
X134150561Y-128221032D01*
X134128642Y-128193359D01*
X134114957Y-128180032D01*
X134020949Y-128126328D01*
X133918364Y-128122307D01*
X133825290Y-128167725D01*
X133808078Y-128184123D01*
X133782832Y-128214957D01*
X133765320Y-128251531D01*
X133754142Y-128304415D01*
X133747896Y-128384177D01*
X133745182Y-128501385D01*
X133744598Y-128662991D01*
X133744598Y-129074288D01*
X133652655Y-129106339D01*
X133587353Y-129128144D01*
X133551525Y-129138297D01*
X133550471Y-129138391D01*
X133547775Y-129110448D01*
X133545345Y-129031630D01*
X133543278Y-128909453D01*
X133541671Y-128751432D01*
X133540623Y-128565083D01*
X133540231Y-128357920D01*
X133540230Y-128348706D01*
X133540230Y-127559020D01*
X133635115Y-127518997D01*
X133730000Y-127478973D01*
X133744598Y-127723857D01*
G36*
X131315552Y-127884676D02*
G01*
X131430658Y-127962111D01*
X131519611Y-128073949D01*
X131572749Y-128216265D01*
X131583497Y-128321015D01*
X131582276Y-128364726D01*
X131572056Y-128398194D01*
X131543961Y-128428179D01*
X131489116Y-128461440D01*
X131398645Y-128504738D01*
X131263672Y-128564833D01*
X131262989Y-128565134D01*
X131138751Y-128622037D01*
X131036873Y-128672565D01*
X130967767Y-128711280D01*
X130941846Y-128732740D01*
X130941839Y-128732913D01*
X130964685Y-128779644D01*
X131018109Y-128831154D01*
X131079442Y-128868261D01*
X131110515Y-128875632D01*
X131195289Y-128850138D01*
X131268293Y-128786291D01*
X131303913Y-128716094D01*
X131338180Y-128664343D01*
X131405303Y-128605409D01*
X131484208Y-128554496D01*
X131553821Y-128526809D01*
X131568377Y-128525287D01*
X131584763Y-128550321D01*
X131585750Y-128614311D01*
X131573708Y-128700593D01*
X131551007Y-128792501D01*
X131520014Y-128873369D01*
X131518448Y-128876509D01*
X131425181Y-129006734D01*
X131304304Y-129095311D01*
X131167027Y-129138786D01*
X131024560Y-129133706D01*
X130888112Y-129076616D01*
X130882045Y-129072602D01*
X130774710Y-128975326D01*
X130704132Y-128848409D01*
X130665074Y-128681526D01*
X130659832Y-128634639D01*
X130650548Y-128413329D01*
X130661678Y-128310124D01*
X130941839Y-128310124D01*
X130945479Y-128374503D01*
X130965389Y-128393291D01*
X131015026Y-128379235D01*
X131093267Y-128346009D01*
X131180726Y-128304359D01*
X131182899Y-128303256D01*
X131257030Y-128264265D01*
X131286781Y-128238244D01*
X131279445Y-128210965D01*
X131248553Y-128175121D01*
X131169960Y-128123251D01*
X131085323Y-128119439D01*
X131009403Y-128157189D01*
X130956965Y-128230001D01*
X130941839Y-128310124D01*
X130661678Y-128310124D01*
X130669644Y-128236261D01*
X130718634Y-128095829D01*
X130786836Y-127997447D01*
X130909935Y-127898030D01*
X131045528Y-127848711D01*
X131183955Y-127845568D01*
X131315552Y-127884676D01*
X131315552Y-127884676D01*
G37*
X131315552Y-127884676D02*
X131430658Y-127962111D01*
X131519611Y-128073949D01*
X131572749Y-128216265D01*
X131583497Y-128321015D01*
X131582276Y-128364726D01*
X131572056Y-128398194D01*
X131543961Y-128428179D01*
X131489116Y-128461440D01*
X131398645Y-128504738D01*
X131263672Y-128564833D01*
X131262989Y-128565134D01*
X131138751Y-128622037D01*
X131036873Y-128672565D01*
X130967767Y-128711280D01*
X130941846Y-128732740D01*
X130941839Y-128732913D01*
X130964685Y-128779644D01*
X131018109Y-128831154D01*
X131079442Y-128868261D01*
X131110515Y-128875632D01*
X131195289Y-128850138D01*
X131268293Y-128786291D01*
X131303913Y-128716094D01*
X131338180Y-128664343D01*
X131405303Y-128605409D01*
X131484208Y-128554496D01*
X131553821Y-128526809D01*
X131568377Y-128525287D01*
X131584763Y-128550321D01*
X131585750Y-128614311D01*
X131573708Y-128700593D01*
X131551007Y-128792501D01*
X131520014Y-128873369D01*
X131518448Y-128876509D01*
X131425181Y-129006734D01*
X131304304Y-129095311D01*
X131167027Y-129138786D01*
X131024560Y-129133706D01*
X130888112Y-129076616D01*
X130882045Y-129072602D01*
X130774710Y-128975326D01*
X130704132Y-128848409D01*
X130665074Y-128681526D01*
X130659832Y-128634639D01*
X130650548Y-128413329D01*
X130661678Y-128310124D01*
X130941839Y-128310124D01*
X130945479Y-128374503D01*
X130965389Y-128393291D01*
X131015026Y-128379235D01*
X131093267Y-128346009D01*
X131180726Y-128304359D01*
X131182899Y-128303256D01*
X131257030Y-128264265D01*
X131286781Y-128238244D01*
X131279445Y-128210965D01*
X131248553Y-128175121D01*
X131169960Y-128123251D01*
X131085323Y-128119439D01*
X131009403Y-128157189D01*
X130956965Y-128230001D01*
X130941839Y-128310124D01*
X130661678Y-128310124D01*
X130669644Y-128236261D01*
X130718634Y-128095829D01*
X130786836Y-127997447D01*
X130909935Y-127898030D01*
X131045528Y-127848711D01*
X131183955Y-127845568D01*
X131315552Y-127884676D01*
G36*
X129048221Y-127866015D02*
G01*
X129185061Y-127937968D01*
X129286051Y-128053766D01*
X129321925Y-128128213D01*
X129349839Y-128239992D01*
X129364129Y-128381227D01*
X129365484Y-128535371D01*
X129354595Y-128685879D01*
X129332153Y-128816205D01*
X129298850Y-128909803D01*
X129288615Y-128925922D01*
X129167382Y-129046249D01*
X129023387Y-129118317D01*
X128867139Y-129139408D01*
X128709148Y-129106802D01*
X128665180Y-129087253D01*
X128579556Y-129027012D01*
X128504408Y-128947135D01*
X128497306Y-128937004D01*
X128468439Y-128888181D01*
X128449357Y-128835990D01*
X128438084Y-128767285D01*
X128432645Y-128668918D01*
X128431062Y-128527744D01*
X128431035Y-128496092D01*
X128431107Y-128486019D01*
X128722989Y-128486019D01*
X128724687Y-128619256D01*
X128731372Y-128707674D01*
X128745425Y-128764785D01*
X128769229Y-128804102D01*
X128781379Y-128817241D01*
X128851236Y-128867172D01*
X128919059Y-128864895D01*
X128987635Y-128821584D01*
X129028535Y-128775346D01*
X129052758Y-128707857D01*
X129066361Y-128601433D01*
X129067294Y-128589020D01*
X129069616Y-128396147D01*
X129045350Y-128252900D01*
X128994824Y-128160160D01*
X128918368Y-128118807D01*
X128891076Y-128116552D01*
X128819411Y-128127893D01*
X128770390Y-128167184D01*
X128740418Y-128242326D01*
X128725899Y-128361222D01*
X128722989Y-128486019D01*
X128431107Y-128486019D01*
X128432122Y-128345659D01*
X128436688Y-128240549D01*
X128446688Y-128167714D01*
X128464079Y-128114108D01*
X128490816Y-128066681D01*
X128496724Y-128057864D01*
X128596032Y-127939007D01*
X128704242Y-127870008D01*
X128835981Y-127842619D01*
X128880717Y-127841281D01*
X129048221Y-127866015D01*
X129048221Y-127866015D01*
G37*
X129048221Y-127866015D02*
X129185061Y-127937968D01*
X129286051Y-128053766D01*
X129321925Y-128128213D01*
X129349839Y-128239992D01*
X129364129Y-128381227D01*
X129365484Y-128535371D01*
X129354595Y-128685879D01*
X129332153Y-128816205D01*
X129298850Y-128909803D01*
X129288615Y-128925922D01*
X129167382Y-129046249D01*
X129023387Y-129118317D01*
X128867139Y-129139408D01*
X128709148Y-129106802D01*
X128665180Y-129087253D01*
X128579556Y-129027012D01*
X128504408Y-128947135D01*
X128497306Y-128937004D01*
X128468439Y-128888181D01*
X128449357Y-128835990D01*
X128438084Y-128767285D01*
X128432645Y-128668918D01*
X128431062Y-128527744D01*
X128431035Y-128496092D01*
X128431107Y-128486019D01*
X128722989Y-128486019D01*
X128724687Y-128619256D01*
X128731372Y-128707674D01*
X128745425Y-128764785D01*
X128769229Y-128804102D01*
X128781379Y-128817241D01*
X128851236Y-128867172D01*
X128919059Y-128864895D01*
X128987635Y-128821584D01*
X129028535Y-128775346D01*
X129052758Y-128707857D01*
X129066361Y-128601433D01*
X129067294Y-128589020D01*
X129069616Y-128396147D01*
X129045350Y-128252900D01*
X128994824Y-128160160D01*
X128918368Y-128118807D01*
X128891076Y-128116552D01*
X128819411Y-128127893D01*
X128770390Y-128167184D01*
X128740418Y-128242326D01*
X128725899Y-128361222D01*
X128722989Y-128486019D01*
X128431107Y-128486019D01*
X128432122Y-128345659D01*
X128436688Y-128240549D01*
X128446688Y-128167714D01*
X128464079Y-128114108D01*
X128490816Y-128066681D01*
X128496724Y-128057864D01*
X128596032Y-127939007D01*
X128704242Y-127870008D01*
X128835981Y-127842619D01*
X128880717Y-127841281D01*
X129048221Y-127866015D01*
G36*
X132417429Y-127877719D02*
G01*
X132511123Y-127931914D01*
X132576264Y-127985707D01*
X132623907Y-128042066D01*
X132656728Y-128110987D01*
X132677406Y-128202468D01*
X132688620Y-128326506D01*
X132693049Y-128493098D01*
X132693563Y-128612851D01*
X132693563Y-129053659D01*
X132569483Y-129109283D01*
X132445402Y-129164907D01*
X132430805Y-128682095D01*
X132424773Y-128501779D01*
X132418445Y-128370901D01*
X132410606Y-128280511D01*
X132400037Y-128221664D01*
X132385523Y-128185413D01*
X132365848Y-128162810D01*
X132359535Y-128157917D01*
X132263888Y-128119706D01*
X132167207Y-128134827D01*
X132109655Y-128174943D01*
X132086245Y-128203370D01*
X132070039Y-128240672D01*
X132059741Y-128297223D01*
X132054049Y-128383394D01*
X132051664Y-128509558D01*
X132051264Y-128641042D01*
X132051186Y-128805999D01*
X132048361Y-128922761D01*
X132038907Y-129001510D01*
X132018940Y-129052431D01*
X131984576Y-129085706D01*
X131931932Y-129111520D01*
X131861617Y-129138344D01*
X131784820Y-129167542D01*
X131793962Y-128649346D01*
X131797643Y-128462539D01*
X131801950Y-128324490D01*
X131808123Y-128225568D01*
X131817402Y-128156145D01*
X131831027Y-128106590D01*
X131850239Y-128067273D01*
X131873402Y-128032584D01*
X131985152Y-127921770D01*
X132121513Y-127857689D01*
X132269825Y-127842339D01*
X132417429Y-127877719D01*
X132417429Y-127877719D01*
G37*
X132417429Y-127877719D02*
X132511123Y-127931914D01*
X132576264Y-127985707D01*
X132623907Y-128042066D01*
X132656728Y-128110987D01*
X132677406Y-128202468D01*
X132688620Y-128326506D01*
X132693049Y-128493098D01*
X132693563Y-128612851D01*
X132693563Y-129053659D01*
X132569483Y-129109283D01*
X132445402Y-129164907D01*
X132430805Y-128682095D01*
X132424773Y-128501779D01*
X132418445Y-128370901D01*
X132410606Y-128280511D01*
X132400037Y-128221664D01*
X132385523Y-128185413D01*
X132365848Y-128162810D01*
X132359535Y-128157917D01*
X132263888Y-128119706D01*
X132167207Y-128134827D01*
X132109655Y-128174943D01*
X132086245Y-128203370D01*
X132070039Y-128240672D01*
X132059741Y-128297223D01*
X132054049Y-128383394D01*
X132051664Y-128509558D01*
X132051264Y-128641042D01*
X132051186Y-128805999D01*
X132048361Y-128922761D01*
X132038907Y-129001510D01*
X132018940Y-129052431D01*
X131984576Y-129085706D01*
X131931932Y-129111520D01*
X131861617Y-129138344D01*
X131784820Y-129167542D01*
X131793962Y-128649346D01*
X131797643Y-128462539D01*
X131801950Y-128324490D01*
X131808123Y-128225568D01*
X131817402Y-128156145D01*
X131831027Y-128106590D01*
X131850239Y-128067273D01*
X131873402Y-128032584D01*
X131985152Y-127921770D01*
X132121513Y-127857689D01*
X132269825Y-127842339D01*
X132417429Y-127877719D01*
G36*
X130171900Y-127861903D02*
G01*
X130283450Y-127917522D01*
X130381908Y-128019931D01*
X130409023Y-128057864D01*
X130438562Y-128107500D01*
X130457728Y-128161412D01*
X130468693Y-128233364D01*
X130473629Y-128337122D01*
X130474713Y-128474101D01*
X130469818Y-128661815D01*
X130452804Y-128802758D01*
X130420177Y-128907908D01*
X130368442Y-128988243D01*
X130294104Y-129054741D01*
X130288642Y-129058678D01*
X130215380Y-129098953D01*
X130127160Y-129118880D01*
X130014962Y-129123793D01*
X129832567Y-129123793D01*
X129832491Y-129300857D01*
X129830793Y-129399470D01*
X129820450Y-129457314D01*
X129793422Y-129492006D01*
X129741668Y-129521164D01*
X129729239Y-129527121D01*
X129671077Y-129555039D01*
X129626044Y-129572672D01*
X129592559Y-129574194D01*
X129569038Y-129553781D01*
X129553900Y-129505607D01*
X129545563Y-129423846D01*
X129542444Y-129302672D01*
X129542960Y-129136260D01*
X129545529Y-128918785D01*
X129546332Y-128853736D01*
X129549222Y-128629502D01*
X129551812Y-128482821D01*
X129832414Y-128482821D01*
X129833991Y-128607326D01*
X129841000Y-128688787D01*
X129856858Y-128742515D01*
X129884981Y-128783823D01*
X129904075Y-128803971D01*
X129982135Y-128862921D01*
X130051247Y-128867720D01*
X130122560Y-128819038D01*
X130124368Y-128817241D01*
X130153383Y-128779618D01*
X130171033Y-128728484D01*
X130179936Y-128649738D01*
X130182709Y-128529276D01*
X130182759Y-128502588D01*
X130176058Y-128336583D01*
X130154248Y-128221505D01*
X130114765Y-128151254D01*
X130055044Y-128119729D01*
X130020528Y-128116552D01*
X129938611Y-128131460D01*
X129882421Y-128180548D01*
X129848598Y-128270362D01*
X129833780Y-128407445D01*
X129832414Y-128482821D01*
X129551812Y-128482821D01*
X129552287Y-128455952D01*
X129556247Y-128325382D01*
X129561826Y-128230087D01*
X129569746Y-128162364D01*
X129580731Y-128114507D01*
X129595501Y-128078813D01*
X129614782Y-128047578D01*
X129623049Y-128035824D01*
X129732712Y-127924797D01*
X129871365Y-127861847D01*
X130031754Y-127844297D01*
X130171900Y-127861903D01*
X130171900Y-127861903D01*
G37*
X130171900Y-127861903D02*
X130283450Y-127917522D01*
X130381908Y-128019931D01*
X130409023Y-128057864D01*
X130438562Y-128107500D01*
X130457728Y-128161412D01*
X130468693Y-128233364D01*
X130473629Y-128337122D01*
X130474713Y-128474101D01*
X130469818Y-128661815D01*
X130452804Y-128802758D01*
X130420177Y-128907908D01*
X130368442Y-128988243D01*
X130294104Y-129054741D01*
X130288642Y-129058678D01*
X130215380Y-129098953D01*
X130127160Y-129118880D01*
X130014962Y-129123793D01*
X129832567Y-129123793D01*
X129832491Y-129300857D01*
X129830793Y-129399470D01*
X129820450Y-129457314D01*
X129793422Y-129492006D01*
X129741668Y-129521164D01*
X129729239Y-129527121D01*
X129671077Y-129555039D01*
X129626044Y-129572672D01*
X129592559Y-129574194D01*
X129569038Y-129553781D01*
X129553900Y-129505607D01*
X129545563Y-129423846D01*
X129542444Y-129302672D01*
X129542960Y-129136260D01*
X129545529Y-128918785D01*
X129546332Y-128853736D01*
X129549222Y-128629502D01*
X129551812Y-128482821D01*
X129832414Y-128482821D01*
X129833991Y-128607326D01*
X129841000Y-128688787D01*
X129856858Y-128742515D01*
X129884981Y-128783823D01*
X129904075Y-128803971D01*
X129982135Y-128862921D01*
X130051247Y-128867720D01*
X130122560Y-128819038D01*
X130124368Y-128817241D01*
X130153383Y-128779618D01*
X130171033Y-128728484D01*
X130179936Y-128649738D01*
X130182709Y-128529276D01*
X130182759Y-128502588D01*
X130176058Y-128336583D01*
X130154248Y-128221505D01*
X130114765Y-128151254D01*
X130055044Y-128119729D01*
X130020528Y-128116552D01*
X129938611Y-128131460D01*
X129882421Y-128180548D01*
X129848598Y-128270362D01*
X129833780Y-128407445D01*
X129832414Y-128482821D01*
X129551812Y-128482821D01*
X129552287Y-128455952D01*
X129556247Y-128325382D01*
X129561826Y-128230087D01*
X129569746Y-128162364D01*
X129580731Y-128114507D01*
X129595501Y-128078813D01*
X129614782Y-128047578D01*
X129623049Y-128035824D01*
X129732712Y-127924797D01*
X129871365Y-127861847D01*
X130031754Y-127844297D01*
X130171900Y-127861903D01*
D12*
X151185000Y-80235000D02*
X151185000Y-76150000D01*
X149315000Y-80235000D02*
X151185000Y-80235000D01*
X149315000Y-76150000D02*
X149315000Y-80235000D01*
X149185000Y-107235000D02*
X149185000Y-103150000D01*
X147315000Y-107235000D02*
X149185000Y-107235000D01*
X147315000Y-103150000D02*
X147315000Y-107235000D01*
D10*
X106750000Y-78250000D02*
X106750000Y-73750000D01*
X106750000Y-78250000D02*
X100250000Y-78250000D01*
X106750000Y-73750000D02*
X100250000Y-73750000D01*
X106750000Y-70750000D02*
X106750000Y-66250000D01*
X106750000Y-70750000D02*
X100250000Y-70750000D01*
X106750000Y-66250000D02*
X100250000Y-66250000D01*
D12*
X202712500Y-69700000D02*
X203162500Y-69700000D01*
X202712500Y-69700000D02*
X202712500Y-69250000D01*
X203262500Y-64100000D02*
X203262500Y-64550000D01*
X205112500Y-64100000D02*
X203262500Y-64100000D01*
X207662500Y-71900000D02*
X207412500Y-71900000D01*
X207662500Y-64100000D02*
X207412500Y-64100000D01*
X205112500Y-71900000D02*
X203262500Y-71900000D01*
X203262500Y-71900000D02*
X203262500Y-71450000D01*
X146510000Y-85171267D02*
X146510000Y-84828733D01*
X145490000Y-85171267D02*
X145490000Y-84828733D01*
X148510000Y-84828733D02*
X148510000Y-85171267D01*
X147490000Y-84828733D02*
X147490000Y-85171267D01*
D11*
X196980000Y-132415000D02*
X207930000Y-132415000D01*
X196980000Y-95585000D02*
X207930000Y-95585000D01*
X196980000Y-132415000D02*
X196980000Y-95585000D01*
D12*
X181140000Y-107140000D02*
X181140000Y-109990000D01*
X181140000Y-115860000D02*
X181140000Y-113010000D01*
X188795563Y-115860000D02*
X181140000Y-115860000D01*
X188795563Y-107140000D02*
X181140000Y-107140000D01*
X189860000Y-108204437D02*
X189860000Y-109990000D01*
X189860000Y-114795563D02*
X189860000Y-113010000D01*
X189860000Y-114795563D02*
X188795563Y-115860000D01*
X189860000Y-108204437D02*
X188795563Y-107140000D01*
X191100000Y-114010000D02*
X190100000Y-114010000D01*
X190600000Y-114510000D02*
X190600000Y-113510000D01*
X190600000Y-103010000D02*
X190600000Y-102010000D01*
X191100000Y-102510000D02*
X190100000Y-102510000D01*
X189860000Y-96704437D02*
X188795563Y-95640000D01*
X189860000Y-103295563D02*
X188795563Y-104360000D01*
X189860000Y-103295563D02*
X189860000Y-101510000D01*
X189860000Y-96704437D02*
X189860000Y-98490000D01*
X188795563Y-95640000D02*
X181140000Y-95640000D01*
X188795563Y-104360000D02*
X181140000Y-104360000D01*
X181140000Y-104360000D02*
X181140000Y-101510000D01*
X181140000Y-95640000D02*
X181140000Y-98490000D01*
X181140000Y-118640000D02*
X181140000Y-121490000D01*
X181140000Y-127360000D02*
X181140000Y-124510000D01*
X188795563Y-127360000D02*
X181140000Y-127360000D01*
X188795563Y-118640000D02*
X181140000Y-118640000D01*
X189860000Y-119704437D02*
X189860000Y-121490000D01*
X189860000Y-126295563D02*
X189860000Y-124510000D01*
X189860000Y-126295563D02*
X188795563Y-127360000D01*
X189860000Y-119704437D02*
X188795563Y-118640000D01*
X191100000Y-125510000D02*
X190100000Y-125510000D01*
X190600000Y-126010000D02*
X190600000Y-125010000D01*
X158328733Y-83510000D02*
X158671267Y-83510000D01*
X158328733Y-82490000D02*
X158671267Y-82490000D01*
X151990000Y-78671267D02*
X151990000Y-78328733D01*
X153010000Y-78671267D02*
X153010000Y-78328733D01*
X164671267Y-107510000D02*
X164328733Y-107510000D01*
X164671267Y-106490000D02*
X164328733Y-106490000D01*
X123171267Y-65490000D02*
X122828733Y-65490000D01*
X123171267Y-66510000D02*
X122828733Y-66510000D01*
X123171267Y-71010000D02*
X122828733Y-71010000D01*
X123171267Y-69990000D02*
X122828733Y-69990000D01*
X151010000Y-105671267D02*
X151010000Y-105328733D01*
X149990000Y-105671267D02*
X149990000Y-105328733D01*
X151990000Y-105671267D02*
X151990000Y-105328733D01*
X153010000Y-105671267D02*
X153010000Y-105328733D01*
X153990000Y-78671267D02*
X153990000Y-78328733D01*
X155010000Y-78671267D02*
X155010000Y-78328733D01*
X150671267Y-111990000D02*
X150328733Y-111990000D01*
X150671267Y-113010000D02*
X150328733Y-113010000D01*
X150671267Y-111010000D02*
X150328733Y-111010000D01*
X150671267Y-109990000D02*
X150328733Y-109990000D01*
X150671267Y-107990000D02*
X150328733Y-107990000D01*
X150671267Y-109010000D02*
X150328733Y-109010000D01*
X197328733Y-69490000D02*
X197671267Y-69490000D01*
X197328733Y-70510000D02*
X197671267Y-70510000D01*
X162340000Y-71235000D02*
X164800000Y-71235000D01*
X162340000Y-69765000D02*
X162340000Y-71235000D01*
X164800000Y-69765000D02*
X162340000Y-69765000D01*
X143265000Y-84200000D02*
X143265000Y-86660000D01*
X143265000Y-86660000D02*
X144735000Y-86660000D01*
X144735000Y-86660000D02*
X144735000Y-84200000D01*
D10*
X156875000Y-78375000D02*
X156875000Y-78550000D01*
X160125000Y-78375000D02*
X160125000Y-78650000D01*
X160125000Y-81625000D02*
X160125000Y-81350000D01*
X156875000Y-81625000D02*
X156875000Y-81350000D01*
X156875000Y-78375000D02*
X160125000Y-78375000D01*
X156875000Y-81625000D02*
X160125000Y-81625000D01*
X156875000Y-78550000D02*
X155800000Y-78550000D01*
X155275000Y-109925000D02*
X159725000Y-109925000D01*
X153750000Y-103025000D02*
X159725000Y-103025000D01*
D12*
X154260000Y-86580000D02*
X152800000Y-86580000D01*
X154260000Y-83420000D02*
X152100000Y-83420000D01*
X154260000Y-83420000D02*
X154260000Y-84350000D01*
X154260000Y-86580000D02*
X154260000Y-85650000D01*
X159240000Y-72920000D02*
X159240000Y-73850000D01*
X159240000Y-76080000D02*
X159240000Y-75150000D01*
X159240000Y-76080000D02*
X161400000Y-76080000D01*
X159240000Y-72920000D02*
X160700000Y-72920000D01*
X164671267Y-111510000D02*
X164328733Y-111510000D01*
X164671267Y-110490000D02*
X164328733Y-110490000D01*
X150510000Y-84828733D02*
X150510000Y-85171267D01*
X149490000Y-84828733D02*
X149490000Y-85171267D01*
X163828733Y-73010000D02*
X164171267Y-73010000D01*
X163828733Y-71990000D02*
X164171267Y-71990000D01*
X164171267Y-75010000D02*
X163828733Y-75010000D01*
X164171267Y-73990000D02*
X163828733Y-73990000D01*
X153328733Y-82010000D02*
X153671267Y-82010000D01*
X153328733Y-80990000D02*
X153671267Y-80990000D01*
X164171267Y-77010000D02*
X163828733Y-77010000D01*
X164171267Y-75990000D02*
X163828733Y-75990000D01*
X164171267Y-81990000D02*
X163828733Y-81990000D01*
X164171267Y-83010000D02*
X163828733Y-83010000D01*
X164171267Y-81010000D02*
X163828733Y-81010000D01*
X164171267Y-79990000D02*
X163828733Y-79990000D01*
X157010000Y-76171267D02*
X157010000Y-75828733D01*
X155990000Y-76171267D02*
X155990000Y-75828733D01*
X164671267Y-109510000D02*
X164328733Y-109510000D01*
X164671267Y-108490000D02*
X164328733Y-108490000D01*
X125490000Y-113828733D02*
X125490000Y-114171267D01*
X126510000Y-113828733D02*
X126510000Y-114171267D01*
X126510000Y-106828733D02*
X126510000Y-107171267D01*
X125490000Y-106828733D02*
X125490000Y-107171267D01*
X125490000Y-99828733D02*
X125490000Y-100171267D01*
X126510000Y-99828733D02*
X126510000Y-100171267D01*
X164171267Y-77990000D02*
X163828733Y-77990000D01*
X164171267Y-79010000D02*
X163828733Y-79010000D01*
D10*
X164333333Y-106882380D02*
X164000000Y-106406190D01*
X163761904Y-106882380D02*
X163761904Y-105882380D01*
X164142857Y-105882380D01*
X164238095Y-105930000D01*
X164285714Y-105977619D01*
X164333333Y-106072857D01*
X164333333Y-106215714D01*
X164285714Y-106310952D01*
X164238095Y-106358571D01*
X164142857Y-106406190D01*
X163761904Y-106406190D01*
X164666666Y-105882380D02*
X165285714Y-105882380D01*
X164952380Y-106263333D01*
X165095238Y-106263333D01*
X165190476Y-106310952D01*
X165238095Y-106358571D01*
X165285714Y-106453809D01*
X165285714Y-106691904D01*
X165238095Y-106787142D01*
X165190476Y-106834761D01*
X165095238Y-106882380D01*
X164809523Y-106882380D01*
X164714285Y-106834761D01*
X164666666Y-106787142D01*
X154333333Y-114382380D02*
X154000000Y-113906190D01*
X153761904Y-114382380D02*
X153761904Y-113382380D01*
X154142857Y-113382380D01*
X154238095Y-113430000D01*
X154285714Y-113477619D01*
X154333333Y-113572857D01*
X154333333Y-113715714D01*
X154285714Y-113810952D01*
X154238095Y-113858571D01*
X154142857Y-113906190D01*
X153761904Y-113906190D01*
X154714285Y-113477619D02*
X154761904Y-113430000D01*
X154857142Y-113382380D01*
X155095238Y-113382380D01*
X155190476Y-113430000D01*
X155238095Y-113477619D01*
X155285714Y-113572857D01*
X155285714Y-113668095D01*
X155238095Y-113810952D01*
X154666666Y-114382380D01*
X155285714Y-114382380D01*
X158333333Y-114452380D02*
X158000000Y-113976190D01*
X157761904Y-114452380D02*
X157761904Y-113452380D01*
X158142857Y-113452380D01*
X158238095Y-113500000D01*
X158285714Y-113547619D01*
X158333333Y-113642857D01*
X158333333Y-113785714D01*
X158285714Y-113880952D01*
X158238095Y-113928571D01*
X158142857Y-113976190D01*
X157761904Y-113976190D01*
X159285714Y-114452380D02*
X158714285Y-114452380D01*
X159000000Y-114452380D02*
X159000000Y-113452380D01*
X158904761Y-113595238D01*
X158809523Y-113690476D01*
X158714285Y-113738095D01*
X107666666Y-127452380D02*
X107666666Y-128166666D01*
X107619047Y-128309523D01*
X107523809Y-128404761D01*
X107380952Y-128452380D01*
X107285714Y-128452380D01*
X108095238Y-127547619D02*
X108142857Y-127500000D01*
X108238095Y-127452380D01*
X108476190Y-127452380D01*
X108571428Y-127500000D01*
X108619047Y-127547619D01*
X108666666Y-127642857D01*
X108666666Y-127738095D01*
X108619047Y-127880952D01*
X108047619Y-128452380D01*
X108666666Y-128452380D01*
X100928571Y-123309523D02*
X100976190Y-123166666D01*
X101023809Y-123119047D01*
X101119047Y-123071428D01*
X101261904Y-123071428D01*
X101357142Y-123119047D01*
X101404761Y-123166666D01*
X101452380Y-123261904D01*
X101452380Y-123642857D01*
X100452380Y-123642857D01*
X100452380Y-123309523D01*
X100500000Y-123214285D01*
X100547619Y-123166666D01*
X100642857Y-123119047D01*
X100738095Y-123119047D01*
X100833333Y-123166666D01*
X100880952Y-123214285D01*
X100928571Y-123309523D01*
X100928571Y-123642857D01*
X101452380Y-122166666D02*
X101452380Y-122642857D01*
X100452380Y-122642857D01*
X100452380Y-121833333D02*
X101261904Y-121833333D01*
X101357142Y-121785714D01*
X101404761Y-121738095D01*
X101452380Y-121642857D01*
X101452380Y-121452380D01*
X101404761Y-121357142D01*
X101357142Y-121309523D01*
X101261904Y-121261904D01*
X100452380Y-121261904D01*
X100928571Y-120785714D02*
X100928571Y-120452380D01*
X101452380Y-120309523D02*
X101452380Y-120785714D01*
X100452380Y-120785714D01*
X100452380Y-120309523D01*
X107666666Y-113452380D02*
X107666666Y-114166666D01*
X107619047Y-114309523D01*
X107523809Y-114404761D01*
X107380952Y-114452380D01*
X107285714Y-114452380D01*
X108571428Y-113452380D02*
X108380952Y-113452380D01*
X108285714Y-113500000D01*
X108238095Y-113547619D01*
X108142857Y-113690476D01*
X108095238Y-113880952D01*
X108095238Y-114261904D01*
X108142857Y-114357142D01*
X108190476Y-114404761D01*
X108285714Y-114452380D01*
X108476190Y-114452380D01*
X108571428Y-114404761D01*
X108619047Y-114357142D01*
X108666666Y-114261904D01*
X108666666Y-114023809D01*
X108619047Y-113928571D01*
X108571428Y-113880952D01*
X108476190Y-113833333D01*
X108285714Y-113833333D01*
X108190476Y-113880952D01*
X108142857Y-113928571D01*
X108095238Y-114023809D01*
X101452380Y-108642857D02*
X100976190Y-108976190D01*
X101452380Y-109214285D02*
X100452380Y-109214285D01*
X100452380Y-108833333D01*
X100500000Y-108738095D01*
X100547619Y-108690476D01*
X100642857Y-108642857D01*
X100785714Y-108642857D01*
X100880952Y-108690476D01*
X100928571Y-108738095D01*
X100976190Y-108833333D01*
X100976190Y-109214285D01*
X100928571Y-108214285D02*
X100928571Y-107880952D01*
X101452380Y-107738095D02*
X101452380Y-108214285D01*
X100452380Y-108214285D01*
X100452380Y-107738095D01*
X101452380Y-107309523D02*
X100452380Y-107309523D01*
X100452380Y-107071428D01*
X100500000Y-106928571D01*
X100595238Y-106833333D01*
X100690476Y-106785714D01*
X100880952Y-106738095D01*
X101023809Y-106738095D01*
X101214285Y-106785714D01*
X101309523Y-106833333D01*
X101404761Y-106928571D01*
X101452380Y-107071428D01*
X101452380Y-107309523D01*
X107666666Y-99452380D02*
X107666666Y-100166666D01*
X107619047Y-100309523D01*
X107523809Y-100404761D01*
X107380952Y-100452380D01*
X107285714Y-100452380D01*
X108619047Y-99452380D02*
X108142857Y-99452380D01*
X108095238Y-99928571D01*
X108142857Y-99880952D01*
X108238095Y-99833333D01*
X108476190Y-99833333D01*
X108571428Y-99880952D01*
X108619047Y-99928571D01*
X108666666Y-100023809D01*
X108666666Y-100261904D01*
X108619047Y-100357142D01*
X108571428Y-100404761D01*
X108476190Y-100452380D01*
X108238095Y-100452380D01*
X108142857Y-100404761D01*
X108095238Y-100357142D01*
X100500000Y-95666666D02*
X100452380Y-95761904D01*
X100452380Y-95904761D01*
X100500000Y-96047619D01*
X100595238Y-96142857D01*
X100690476Y-96190476D01*
X100880952Y-96238095D01*
X101023809Y-96238095D01*
X101214285Y-96190476D01*
X101309523Y-96142857D01*
X101404761Y-96047619D01*
X101452380Y-95904761D01*
X101452380Y-95809523D01*
X101404761Y-95666666D01*
X101357142Y-95619047D01*
X101023809Y-95619047D01*
X101023809Y-95809523D01*
X101452380Y-94619047D02*
X100976190Y-94952380D01*
X101452380Y-95190476D02*
X100452380Y-95190476D01*
X100452380Y-94809523D01*
X100500000Y-94714285D01*
X100547619Y-94666666D01*
X100642857Y-94619047D01*
X100785714Y-94619047D01*
X100880952Y-94666666D01*
X100928571Y-94714285D01*
X100976190Y-94809523D01*
X100976190Y-95190476D01*
X100928571Y-94190476D02*
X100928571Y-93857142D01*
X101452380Y-93714285D02*
X101452380Y-94190476D01*
X100452380Y-94190476D01*
X100452380Y-93714285D01*
X100928571Y-93285714D02*
X100928571Y-92952380D01*
X101452380Y-92809523D02*
X101452380Y-93285714D01*
X100452380Y-93285714D01*
X100452380Y-92809523D01*
X101452380Y-92380952D02*
X100452380Y-92380952D01*
X101452380Y-91809523D01*
X100452380Y-91809523D01*
X200428571Y-59928571D02*
X200095238Y-59928571D01*
X200095238Y-60452380D02*
X200095238Y-59452380D01*
X200571428Y-59452380D01*
X200952380Y-60452380D02*
X200952380Y-59452380D01*
X201428571Y-60452380D02*
X201428571Y-59452380D01*
X201666666Y-59452380D01*
X201809523Y-59500000D01*
X201904761Y-59595238D01*
X201952380Y-59690476D01*
X202000000Y-59880952D01*
X202000000Y-60023809D01*
X201952380Y-60214285D01*
X201904761Y-60309523D01*
X201809523Y-60404761D01*
X201666666Y-60452380D01*
X201428571Y-60452380D01*
X202380952Y-59547619D02*
X202428571Y-59500000D01*
X202523809Y-59452380D01*
X202761904Y-59452380D01*
X202857142Y-59500000D01*
X202904761Y-59547619D01*
X202952380Y-59642857D01*
X202952380Y-59738095D01*
X202904761Y-59880952D01*
X202333333Y-60452380D01*
X202952380Y-60452380D01*
X103928571Y-132928571D02*
X103595238Y-132928571D01*
X103595238Y-133452380D02*
X103595238Y-132452380D01*
X104071428Y-132452380D01*
X104452380Y-133452380D02*
X104452380Y-132452380D01*
X104928571Y-133452380D02*
X104928571Y-132452380D01*
X105166666Y-132452380D01*
X105309523Y-132500000D01*
X105404761Y-132595238D01*
X105452380Y-132690476D01*
X105500000Y-132880952D01*
X105500000Y-133023809D01*
X105452380Y-133214285D01*
X105404761Y-133309523D01*
X105309523Y-133404761D01*
X105166666Y-133452380D01*
X104928571Y-133452380D01*
X106452380Y-133452380D02*
X105880952Y-133452380D01*
X106166666Y-133452380D02*
X106166666Y-132452380D01*
X106071428Y-132595238D01*
X105976190Y-132690476D01*
X105880952Y-132738095D01*
X150607142Y-74142857D02*
X150654761Y-74190476D01*
X150702380Y-74333333D01*
X150702380Y-74428571D01*
X150654761Y-74571428D01*
X150559523Y-74666666D01*
X150464285Y-74714285D01*
X150273809Y-74761904D01*
X150130952Y-74761904D01*
X149940476Y-74714285D01*
X149845238Y-74666666D01*
X149750000Y-74571428D01*
X149702380Y-74428571D01*
X149702380Y-74333333D01*
X149750000Y-74190476D01*
X149797619Y-74142857D01*
X150702380Y-73190476D02*
X150702380Y-73761904D01*
X150702380Y-73476190D02*
X149702380Y-73476190D01*
X149845238Y-73571428D01*
X149940476Y-73666666D01*
X149988095Y-73761904D01*
X149797619Y-72809523D02*
X149750000Y-72761904D01*
X149702380Y-72666666D01*
X149702380Y-72428571D01*
X149750000Y-72333333D01*
X149797619Y-72285714D01*
X149892857Y-72238095D01*
X149988095Y-72238095D01*
X150130952Y-72285714D01*
X150702380Y-72857142D01*
X150702380Y-72238095D01*
X146857142Y-104916666D02*
X146904761Y-104964285D01*
X146952380Y-105107142D01*
X146952380Y-105202380D01*
X146904761Y-105345238D01*
X146809523Y-105440476D01*
X146714285Y-105488095D01*
X146523809Y-105535714D01*
X146380952Y-105535714D01*
X146190476Y-105488095D01*
X146095238Y-105440476D01*
X146000000Y-105345238D01*
X145952380Y-105202380D01*
X145952380Y-105107142D01*
X146000000Y-104964285D01*
X146047619Y-104916666D01*
X145952380Y-104011904D02*
X145952380Y-104488095D01*
X146428571Y-104535714D01*
X146380952Y-104488095D01*
X146333333Y-104392857D01*
X146333333Y-104154761D01*
X146380952Y-104059523D01*
X146428571Y-104011904D01*
X146523809Y-103964285D01*
X146761904Y-103964285D01*
X146857142Y-104011904D01*
X146904761Y-104059523D01*
X146952380Y-104154761D01*
X146952380Y-104392857D01*
X146904761Y-104488095D01*
X146857142Y-104535714D01*
X109166666Y-77404761D02*
X109309523Y-77452380D01*
X109547619Y-77452380D01*
X109642857Y-77404761D01*
X109690476Y-77357142D01*
X109738095Y-77261904D01*
X109738095Y-77166666D01*
X109690476Y-77071428D01*
X109642857Y-77023809D01*
X109547619Y-76976190D01*
X109357142Y-76928571D01*
X109261904Y-76880952D01*
X109214285Y-76833333D01*
X109166666Y-76738095D01*
X109166666Y-76642857D01*
X109214285Y-76547619D01*
X109261904Y-76500000D01*
X109357142Y-76452380D01*
X109595238Y-76452380D01*
X109738095Y-76500000D01*
X110071428Y-76452380D02*
X110309523Y-77452380D01*
X110500000Y-76738095D01*
X110690476Y-77452380D01*
X110928571Y-76452380D01*
X111261904Y-76547619D02*
X111309523Y-76500000D01*
X111404761Y-76452380D01*
X111642857Y-76452380D01*
X111738095Y-76500000D01*
X111785714Y-76547619D01*
X111833333Y-76642857D01*
X111833333Y-76738095D01*
X111785714Y-76880952D01*
X111214285Y-77452380D01*
X111833333Y-77452380D01*
X108666666Y-69904761D02*
X108809523Y-69952380D01*
X109047619Y-69952380D01*
X109142857Y-69904761D01*
X109190476Y-69857142D01*
X109238095Y-69761904D01*
X109238095Y-69666666D01*
X109190476Y-69571428D01*
X109142857Y-69523809D01*
X109047619Y-69476190D01*
X108857142Y-69428571D01*
X108761904Y-69380952D01*
X108714285Y-69333333D01*
X108666666Y-69238095D01*
X108666666Y-69142857D01*
X108714285Y-69047619D01*
X108761904Y-69000000D01*
X108857142Y-68952380D01*
X109095238Y-68952380D01*
X109238095Y-69000000D01*
X109571428Y-68952380D02*
X109809523Y-69952380D01*
X110000000Y-69238095D01*
X110190476Y-69952380D01*
X110428571Y-68952380D01*
X111333333Y-69952380D02*
X110761904Y-69952380D01*
X111047619Y-69952380D02*
X111047619Y-68952380D01*
X110952380Y-69095238D01*
X110857142Y-69190476D01*
X110761904Y-69238095D01*
D14*
X199833333Y-62904761D02*
X199833333Y-64333333D01*
X199738095Y-64619047D01*
X199547619Y-64809523D01*
X199261904Y-64904761D01*
X199071428Y-64904761D01*
X201833333Y-64904761D02*
X200690476Y-64904761D01*
X201261904Y-64904761D02*
X201261904Y-62904761D01*
X201071428Y-63190476D01*
X200880952Y-63380952D01*
X200690476Y-63476190D01*
D10*
X146452380Y-89142857D02*
X145976190Y-89476190D01*
X146452380Y-89714285D02*
X145452380Y-89714285D01*
X145452380Y-89333333D01*
X145500000Y-89238095D01*
X145547619Y-89190476D01*
X145642857Y-89142857D01*
X145785714Y-89142857D01*
X145880952Y-89190476D01*
X145928571Y-89238095D01*
X145976190Y-89333333D01*
X145976190Y-89714285D01*
X145547619Y-88761904D02*
X145500000Y-88714285D01*
X145452380Y-88619047D01*
X145452380Y-88380952D01*
X145500000Y-88285714D01*
X145547619Y-88238095D01*
X145642857Y-88190476D01*
X145738095Y-88190476D01*
X145880952Y-88238095D01*
X146452380Y-88809523D01*
X146452380Y-88190476D01*
X145785714Y-87333333D02*
X146452380Y-87333333D01*
X145404761Y-87571428D02*
X146119047Y-87809523D01*
X146119047Y-87190476D01*
X148452380Y-89142857D02*
X147976190Y-89476190D01*
X148452380Y-89714285D02*
X147452380Y-89714285D01*
X147452380Y-89333333D01*
X147500000Y-89238095D01*
X147547619Y-89190476D01*
X147642857Y-89142857D01*
X147785714Y-89142857D01*
X147880952Y-89190476D01*
X147928571Y-89238095D01*
X147976190Y-89333333D01*
X147976190Y-89714285D01*
X147547619Y-88761904D02*
X147500000Y-88714285D01*
X147452380Y-88619047D01*
X147452380Y-88380952D01*
X147500000Y-88285714D01*
X147547619Y-88238095D01*
X147642857Y-88190476D01*
X147738095Y-88190476D01*
X147880952Y-88238095D01*
X148452380Y-88809523D01*
X148452380Y-88190476D01*
X147452380Y-87857142D02*
X147452380Y-87238095D01*
X147833333Y-87571428D01*
X147833333Y-87428571D01*
X147880952Y-87333333D01*
X147928571Y-87285714D01*
X148023809Y-87238095D01*
X148261904Y-87238095D01*
X148357142Y-87285714D01*
X148404761Y-87333333D01*
X148452380Y-87428571D01*
X148452380Y-87714285D01*
X148404761Y-87809523D01*
X148357142Y-87857142D01*
D14*
X193904761Y-129666666D02*
X195333333Y-129666666D01*
X195619047Y-129761904D01*
X195809523Y-129952380D01*
X195904761Y-130238095D01*
X195904761Y-130428571D01*
X194571428Y-127857142D02*
X195904761Y-127857142D01*
X193809523Y-128333333D02*
X195238095Y-128809523D01*
X195238095Y-127571428D01*
X177666666Y-109214285D02*
X177571428Y-109309523D01*
X177285714Y-109404761D01*
X177095238Y-109404761D01*
X176809523Y-109309523D01*
X176619047Y-109119047D01*
X176523809Y-108928571D01*
X176428571Y-108547619D01*
X176428571Y-108261904D01*
X176523809Y-107880952D01*
X176619047Y-107690476D01*
X176809523Y-107500000D01*
X177095238Y-107404761D01*
X177285714Y-107404761D01*
X177571428Y-107500000D01*
X177666666Y-107595238D01*
X178619047Y-109404761D02*
X179000000Y-109404761D01*
X179190476Y-109309523D01*
X179285714Y-109214285D01*
X179476190Y-108928571D01*
X179571428Y-108547619D01*
X179571428Y-107785714D01*
X179476190Y-107595238D01*
X179380952Y-107500000D01*
X179190476Y-107404761D01*
X178809523Y-107404761D01*
X178619047Y-107500000D01*
X178523809Y-107595238D01*
X178428571Y-107785714D01*
X178428571Y-108261904D01*
X178523809Y-108452380D01*
X178619047Y-108547619D01*
X178809523Y-108642857D01*
X179190476Y-108642857D01*
X179380952Y-108547619D01*
X179476190Y-108452380D01*
X179571428Y-108261904D01*
X177666666Y-97714285D02*
X177571428Y-97809523D01*
X177285714Y-97904761D01*
X177095238Y-97904761D01*
X176809523Y-97809523D01*
X176619047Y-97619047D01*
X176523809Y-97428571D01*
X176428571Y-97047619D01*
X176428571Y-96761904D01*
X176523809Y-96380952D01*
X176619047Y-96190476D01*
X176809523Y-96000000D01*
X177095238Y-95904761D01*
X177285714Y-95904761D01*
X177571428Y-96000000D01*
X177666666Y-96095238D01*
X178809523Y-96761904D02*
X178619047Y-96666666D01*
X178523809Y-96571428D01*
X178428571Y-96380952D01*
X178428571Y-96285714D01*
X178523809Y-96095238D01*
X178619047Y-96000000D01*
X178809523Y-95904761D01*
X179190476Y-95904761D01*
X179380952Y-96000000D01*
X179476190Y-96095238D01*
X179571428Y-96285714D01*
X179571428Y-96380952D01*
X179476190Y-96571428D01*
X179380952Y-96666666D01*
X179190476Y-96761904D01*
X178809523Y-96761904D01*
X178619047Y-96857142D01*
X178523809Y-96952380D01*
X178428571Y-97142857D01*
X178428571Y-97523809D01*
X178523809Y-97714285D01*
X178619047Y-97809523D01*
X178809523Y-97904761D01*
X179190476Y-97904761D01*
X179380952Y-97809523D01*
X179476190Y-97714285D01*
X179571428Y-97523809D01*
X179571428Y-97142857D01*
X179476190Y-96952380D01*
X179380952Y-96857142D01*
X179190476Y-96761904D01*
X176214285Y-120214285D02*
X176119047Y-120309523D01*
X175833333Y-120404761D01*
X175642857Y-120404761D01*
X175357142Y-120309523D01*
X175166666Y-120119047D01*
X175071428Y-119928571D01*
X174976190Y-119547619D01*
X174976190Y-119261904D01*
X175071428Y-118880952D01*
X175166666Y-118690476D01*
X175357142Y-118500000D01*
X175642857Y-118404761D01*
X175833333Y-118404761D01*
X176119047Y-118500000D01*
X176214285Y-118595238D01*
X178119047Y-120404761D02*
X176976190Y-120404761D01*
X177547619Y-120404761D02*
X177547619Y-118404761D01*
X177357142Y-118690476D01*
X177166666Y-118880952D01*
X176976190Y-118976190D01*
X179357142Y-118404761D02*
X179547619Y-118404761D01*
X179738095Y-118500000D01*
X179833333Y-118595238D01*
X179928571Y-118785714D01*
X180023809Y-119166666D01*
X180023809Y-119642857D01*
X179928571Y-120023809D01*
X179833333Y-120214285D01*
X179738095Y-120309523D01*
X179547619Y-120404761D01*
X179357142Y-120404761D01*
X179166666Y-120309523D01*
X179071428Y-120214285D01*
X178976190Y-120023809D01*
X178880952Y-119642857D01*
X178880952Y-119166666D01*
X178976190Y-118785714D01*
X179071428Y-118595238D01*
X179166666Y-118500000D01*
X179357142Y-118404761D01*
D10*
X157857142Y-84857142D02*
X157809523Y-84904761D01*
X157666666Y-84952380D01*
X157571428Y-84952380D01*
X157428571Y-84904761D01*
X157333333Y-84809523D01*
X157285714Y-84714285D01*
X157238095Y-84523809D01*
X157238095Y-84380952D01*
X157285714Y-84190476D01*
X157333333Y-84095238D01*
X157428571Y-84000000D01*
X157571428Y-83952380D01*
X157666666Y-83952380D01*
X157809523Y-84000000D01*
X157857142Y-84047619D01*
X158809523Y-84952380D02*
X158238095Y-84952380D01*
X158523809Y-84952380D02*
X158523809Y-83952380D01*
X158428571Y-84095238D01*
X158333333Y-84190476D01*
X158238095Y-84238095D01*
X159761904Y-84952380D02*
X159190476Y-84952380D01*
X159476190Y-84952380D02*
X159476190Y-83952380D01*
X159380952Y-84095238D01*
X159285714Y-84190476D01*
X159190476Y-84238095D01*
X152857142Y-75642857D02*
X152904761Y-75690476D01*
X152952380Y-75833333D01*
X152952380Y-75928571D01*
X152904761Y-76071428D01*
X152809523Y-76166666D01*
X152714285Y-76214285D01*
X152523809Y-76261904D01*
X152380952Y-76261904D01*
X152190476Y-76214285D01*
X152095238Y-76166666D01*
X152000000Y-76071428D01*
X151952380Y-75928571D01*
X151952380Y-75833333D01*
X152000000Y-75690476D01*
X152047619Y-75642857D01*
X152952380Y-74690476D02*
X152952380Y-75261904D01*
X152952380Y-74976190D02*
X151952380Y-74976190D01*
X152095238Y-75071428D01*
X152190476Y-75166666D01*
X152238095Y-75261904D01*
X151952380Y-74357142D02*
X151952380Y-73738095D01*
X152333333Y-74071428D01*
X152333333Y-73928571D01*
X152380952Y-73833333D01*
X152428571Y-73785714D01*
X152523809Y-73738095D01*
X152761904Y-73738095D01*
X152857142Y-73785714D01*
X152904761Y-73833333D01*
X152952380Y-73928571D01*
X152952380Y-74214285D01*
X152904761Y-74309523D01*
X152857142Y-74357142D01*
X167357142Y-107452380D02*
X167023809Y-106976190D01*
X166785714Y-107452380D02*
X166785714Y-106452380D01*
X167166666Y-106452380D01*
X167261904Y-106500000D01*
X167309523Y-106547619D01*
X167357142Y-106642857D01*
X167357142Y-106785714D01*
X167309523Y-106880952D01*
X167261904Y-106928571D01*
X167166666Y-106976190D01*
X166785714Y-106976190D01*
X168309523Y-107452380D02*
X167738095Y-107452380D01*
X168023809Y-107452380D02*
X168023809Y-106452380D01*
X167928571Y-106595238D01*
X167833333Y-106690476D01*
X167738095Y-106738095D01*
X169261904Y-107452380D02*
X168690476Y-107452380D01*
X168976190Y-107452380D02*
X168976190Y-106452380D01*
X168880952Y-106595238D01*
X168785714Y-106690476D01*
X168690476Y-106738095D01*
X125833333Y-66452380D02*
X125500000Y-65976190D01*
X125261904Y-66452380D02*
X125261904Y-65452380D01*
X125642857Y-65452380D01*
X125738095Y-65500000D01*
X125785714Y-65547619D01*
X125833333Y-65642857D01*
X125833333Y-65785714D01*
X125785714Y-65880952D01*
X125738095Y-65928571D01*
X125642857Y-65976190D01*
X125261904Y-65976190D01*
X126309523Y-66452380D02*
X126500000Y-66452380D01*
X126595238Y-66404761D01*
X126642857Y-66357142D01*
X126738095Y-66214285D01*
X126785714Y-66023809D01*
X126785714Y-65642857D01*
X126738095Y-65547619D01*
X126690476Y-65500000D01*
X126595238Y-65452380D01*
X126404761Y-65452380D01*
X126309523Y-65500000D01*
X126261904Y-65547619D01*
X126214285Y-65642857D01*
X126214285Y-65880952D01*
X126261904Y-65976190D01*
X126309523Y-66023809D01*
X126404761Y-66071428D01*
X126595238Y-66071428D01*
X126690476Y-66023809D01*
X126738095Y-65976190D01*
X126785714Y-65880952D01*
X125857142Y-70952380D02*
X125523809Y-70476190D01*
X125285714Y-70952380D02*
X125285714Y-69952380D01*
X125666666Y-69952380D01*
X125761904Y-70000000D01*
X125809523Y-70047619D01*
X125857142Y-70142857D01*
X125857142Y-70285714D01*
X125809523Y-70380952D01*
X125761904Y-70428571D01*
X125666666Y-70476190D01*
X125285714Y-70476190D01*
X126809523Y-70952380D02*
X126238095Y-70952380D01*
X126523809Y-70952380D02*
X126523809Y-69952380D01*
X126428571Y-70095238D01*
X126333333Y-70190476D01*
X126238095Y-70238095D01*
X127428571Y-69952380D02*
X127523809Y-69952380D01*
X127619047Y-70000000D01*
X127666666Y-70047619D01*
X127714285Y-70142857D01*
X127761904Y-70333333D01*
X127761904Y-70571428D01*
X127714285Y-70761904D01*
X127666666Y-70857142D01*
X127619047Y-70904761D01*
X127523809Y-70952380D01*
X127428571Y-70952380D01*
X127333333Y-70904761D01*
X127285714Y-70857142D01*
X127238095Y-70761904D01*
X127190476Y-70571428D01*
X127190476Y-70333333D01*
X127238095Y-70142857D01*
X127285714Y-70047619D01*
X127333333Y-70000000D01*
X127428571Y-69952380D01*
X150857142Y-103166666D02*
X150904761Y-103214285D01*
X150952380Y-103357142D01*
X150952380Y-103452380D01*
X150904761Y-103595238D01*
X150809523Y-103690476D01*
X150714285Y-103738095D01*
X150523809Y-103785714D01*
X150380952Y-103785714D01*
X150190476Y-103738095D01*
X150095238Y-103690476D01*
X150000000Y-103595238D01*
X149952380Y-103452380D01*
X149952380Y-103357142D01*
X150000000Y-103214285D01*
X150047619Y-103166666D01*
X149952380Y-102309523D02*
X149952380Y-102500000D01*
X150000000Y-102595238D01*
X150047619Y-102642857D01*
X150190476Y-102738095D01*
X150380952Y-102785714D01*
X150761904Y-102785714D01*
X150857142Y-102738095D01*
X150904761Y-102690476D01*
X150952380Y-102595238D01*
X150952380Y-102404761D01*
X150904761Y-102309523D01*
X150857142Y-102261904D01*
X150761904Y-102214285D01*
X150523809Y-102214285D01*
X150428571Y-102261904D01*
X150380952Y-102309523D01*
X150333333Y-102404761D01*
X150333333Y-102595238D01*
X150380952Y-102690476D01*
X150428571Y-102738095D01*
X150523809Y-102785714D01*
X152857142Y-103166666D02*
X152904761Y-103214285D01*
X152952380Y-103357142D01*
X152952380Y-103452380D01*
X152904761Y-103595238D01*
X152809523Y-103690476D01*
X152714285Y-103738095D01*
X152523809Y-103785714D01*
X152380952Y-103785714D01*
X152190476Y-103738095D01*
X152095238Y-103690476D01*
X152000000Y-103595238D01*
X151952380Y-103452380D01*
X151952380Y-103357142D01*
X152000000Y-103214285D01*
X152047619Y-103166666D01*
X151952380Y-102833333D02*
X151952380Y-102166666D01*
X152952380Y-102595238D01*
X154857142Y-75642857D02*
X154904761Y-75690476D01*
X154952380Y-75833333D01*
X154952380Y-75928571D01*
X154904761Y-76071428D01*
X154809523Y-76166666D01*
X154714285Y-76214285D01*
X154523809Y-76261904D01*
X154380952Y-76261904D01*
X154190476Y-76214285D01*
X154095238Y-76166666D01*
X154000000Y-76071428D01*
X153952380Y-75928571D01*
X153952380Y-75833333D01*
X154000000Y-75690476D01*
X154047619Y-75642857D01*
X154952380Y-74690476D02*
X154952380Y-75261904D01*
X154952380Y-74976190D02*
X153952380Y-74976190D01*
X154095238Y-75071428D01*
X154190476Y-75166666D01*
X154238095Y-75261904D01*
X154285714Y-73833333D02*
X154952380Y-73833333D01*
X153904761Y-74071428D02*
X154619047Y-74309523D01*
X154619047Y-73690476D01*
X147333333Y-112857142D02*
X147285714Y-112904761D01*
X147142857Y-112952380D01*
X147047619Y-112952380D01*
X146904761Y-112904761D01*
X146809523Y-112809523D01*
X146761904Y-112714285D01*
X146714285Y-112523809D01*
X146714285Y-112380952D01*
X146761904Y-112190476D01*
X146809523Y-112095238D01*
X146904761Y-112000000D01*
X147047619Y-111952380D01*
X147142857Y-111952380D01*
X147285714Y-112000000D01*
X147333333Y-112047619D01*
X148190476Y-112285714D02*
X148190476Y-112952380D01*
X147952380Y-111904761D02*
X147714285Y-112619047D01*
X148333333Y-112619047D01*
X147333333Y-110857142D02*
X147285714Y-110904761D01*
X147142857Y-110952380D01*
X147047619Y-110952380D01*
X146904761Y-110904761D01*
X146809523Y-110809523D01*
X146761904Y-110714285D01*
X146714285Y-110523809D01*
X146714285Y-110380952D01*
X146761904Y-110190476D01*
X146809523Y-110095238D01*
X146904761Y-110000000D01*
X147047619Y-109952380D01*
X147142857Y-109952380D01*
X147285714Y-110000000D01*
X147333333Y-110047619D01*
X147666666Y-109952380D02*
X148285714Y-109952380D01*
X147952380Y-110333333D01*
X148095238Y-110333333D01*
X148190476Y-110380952D01*
X148238095Y-110428571D01*
X148285714Y-110523809D01*
X148285714Y-110761904D01*
X148238095Y-110857142D01*
X148190476Y-110904761D01*
X148095238Y-110952380D01*
X147809523Y-110952380D01*
X147714285Y-110904761D01*
X147666666Y-110857142D01*
X147333333Y-108857142D02*
X147285714Y-108904761D01*
X147142857Y-108952380D01*
X147047619Y-108952380D01*
X146904761Y-108904761D01*
X146809523Y-108809523D01*
X146761904Y-108714285D01*
X146714285Y-108523809D01*
X146714285Y-108380952D01*
X146761904Y-108190476D01*
X146809523Y-108095238D01*
X146904761Y-108000000D01*
X147047619Y-107952380D01*
X147142857Y-107952380D01*
X147285714Y-108000000D01*
X147333333Y-108047619D01*
X147714285Y-108047619D02*
X147761904Y-108000000D01*
X147857142Y-107952380D01*
X148095238Y-107952380D01*
X148190476Y-108000000D01*
X148238095Y-108047619D01*
X148285714Y-108142857D01*
X148285714Y-108238095D01*
X148238095Y-108380952D01*
X147666666Y-108952380D01*
X148285714Y-108952380D01*
X196666666Y-68498571D02*
X196333333Y-68498571D01*
X196333333Y-69022380D02*
X196333333Y-68022380D01*
X196809523Y-68022380D01*
X197523809Y-68498571D02*
X197666666Y-68546190D01*
X197714285Y-68593809D01*
X197761904Y-68689047D01*
X197761904Y-68831904D01*
X197714285Y-68927142D01*
X197666666Y-68974761D01*
X197571428Y-69022380D01*
X197190476Y-69022380D01*
X197190476Y-68022380D01*
X197523809Y-68022380D01*
X197619047Y-68070000D01*
X197666666Y-68117619D01*
X197714285Y-68212857D01*
X197714285Y-68308095D01*
X197666666Y-68403333D01*
X197619047Y-68450952D01*
X197523809Y-68498571D01*
X197190476Y-68498571D01*
X198714285Y-69022380D02*
X198142857Y-69022380D01*
X198428571Y-69022380D02*
X198428571Y-68022380D01*
X198333333Y-68165238D01*
X198238095Y-68260476D01*
X198142857Y-68308095D01*
X166261904Y-70952380D02*
X166261904Y-69952380D01*
X166500000Y-69952380D01*
X166642857Y-70000000D01*
X166738095Y-70095238D01*
X166785714Y-70190476D01*
X166833333Y-70380952D01*
X166833333Y-70523809D01*
X166785714Y-70714285D01*
X166738095Y-70809523D01*
X166642857Y-70904761D01*
X166500000Y-70952380D01*
X166261904Y-70952380D01*
X167785714Y-70952380D02*
X167214285Y-70952380D01*
X167500000Y-70952380D02*
X167500000Y-69952380D01*
X167404761Y-70095238D01*
X167309523Y-70190476D01*
X167214285Y-70238095D01*
X144452380Y-89738095D02*
X143452380Y-89738095D01*
X143452380Y-89500000D01*
X143500000Y-89357142D01*
X143595238Y-89261904D01*
X143690476Y-89214285D01*
X143880952Y-89166666D01*
X144023809Y-89166666D01*
X144214285Y-89214285D01*
X144309523Y-89261904D01*
X144404761Y-89357142D01*
X144452380Y-89500000D01*
X144452380Y-89738095D01*
X143547619Y-88785714D02*
X143500000Y-88738095D01*
X143452380Y-88642857D01*
X143452380Y-88404761D01*
X143500000Y-88309523D01*
X143547619Y-88261904D01*
X143642857Y-88214285D01*
X143738095Y-88214285D01*
X143880952Y-88261904D01*
X144452380Y-88833333D01*
X144452380Y-88214285D01*
X157738095Y-76902380D02*
X157738095Y-77711904D01*
X157785714Y-77807142D01*
X157833333Y-77854761D01*
X157928571Y-77902380D01*
X158119047Y-77902380D01*
X158214285Y-77854761D01*
X158261904Y-77807142D01*
X158309523Y-77711904D01*
X158309523Y-76902380D01*
X158738095Y-76997619D02*
X158785714Y-76950000D01*
X158880952Y-76902380D01*
X159119047Y-76902380D01*
X159214285Y-76950000D01*
X159261904Y-76997619D01*
X159309523Y-77092857D01*
X159309523Y-77188095D01*
X159261904Y-77330952D01*
X158690476Y-77902380D01*
X159309523Y-77902380D01*
D14*
X155976190Y-100404761D02*
X155976190Y-102023809D01*
X156071428Y-102214285D01*
X156166666Y-102309523D01*
X156357142Y-102404761D01*
X156738095Y-102404761D01*
X156928571Y-102309523D01*
X157023809Y-102214285D01*
X157119047Y-102023809D01*
X157119047Y-100404761D01*
X159119047Y-102404761D02*
X157976190Y-102404761D01*
X158547619Y-102404761D02*
X158547619Y-100404761D01*
X158357142Y-100690476D01*
X158166666Y-100880952D01*
X157976190Y-100976190D01*
D10*
X153404761Y-88547619D02*
X153309523Y-88500000D01*
X153214285Y-88404761D01*
X153071428Y-88261904D01*
X152976190Y-88214285D01*
X152880952Y-88214285D01*
X152928571Y-88452380D02*
X152833333Y-88404761D01*
X152738095Y-88309523D01*
X152690476Y-88119047D01*
X152690476Y-87785714D01*
X152738095Y-87595238D01*
X152833333Y-87500000D01*
X152928571Y-87452380D01*
X153119047Y-87452380D01*
X153214285Y-87500000D01*
X153309523Y-87595238D01*
X153357142Y-87785714D01*
X153357142Y-88119047D01*
X153309523Y-88309523D01*
X153214285Y-88404761D01*
X153119047Y-88452380D01*
X152928571Y-88452380D01*
X153738095Y-87547619D02*
X153785714Y-87500000D01*
X153880952Y-87452380D01*
X154119047Y-87452380D01*
X154214285Y-87500000D01*
X154261904Y-87547619D01*
X154309523Y-87642857D01*
X154309523Y-87738095D01*
X154261904Y-87880952D01*
X153690476Y-88452380D01*
X154309523Y-88452380D01*
X159904761Y-72547619D02*
X159809523Y-72500000D01*
X159714285Y-72404761D01*
X159571428Y-72261904D01*
X159476190Y-72214285D01*
X159380952Y-72214285D01*
X159428571Y-72452380D02*
X159333333Y-72404761D01*
X159238095Y-72309523D01*
X159190476Y-72119047D01*
X159190476Y-71785714D01*
X159238095Y-71595238D01*
X159333333Y-71500000D01*
X159428571Y-71452380D01*
X159619047Y-71452380D01*
X159714285Y-71500000D01*
X159809523Y-71595238D01*
X159857142Y-71785714D01*
X159857142Y-72119047D01*
X159809523Y-72309523D01*
X159714285Y-72404761D01*
X159619047Y-72452380D01*
X159428571Y-72452380D01*
X160809523Y-72452380D02*
X160238095Y-72452380D01*
X160523809Y-72452380D02*
X160523809Y-71452380D01*
X160428571Y-71595238D01*
X160333333Y-71690476D01*
X160238095Y-71738095D01*
X167357142Y-111452380D02*
X167023809Y-110976190D01*
X166785714Y-111452380D02*
X166785714Y-110452380D01*
X167166666Y-110452380D01*
X167261904Y-110500000D01*
X167309523Y-110547619D01*
X167357142Y-110642857D01*
X167357142Y-110785714D01*
X167309523Y-110880952D01*
X167261904Y-110928571D01*
X167166666Y-110976190D01*
X166785714Y-110976190D01*
X168309523Y-111452380D02*
X167738095Y-111452380D01*
X168023809Y-111452380D02*
X168023809Y-110452380D01*
X167928571Y-110595238D01*
X167833333Y-110690476D01*
X167738095Y-110738095D01*
X168642857Y-110452380D02*
X169261904Y-110452380D01*
X168928571Y-110833333D01*
X169071428Y-110833333D01*
X169166666Y-110880952D01*
X169214285Y-110928571D01*
X169261904Y-111023809D01*
X169261904Y-111261904D01*
X169214285Y-111357142D01*
X169166666Y-111404761D01*
X169071428Y-111452380D01*
X168785714Y-111452380D01*
X168690476Y-111404761D01*
X168642857Y-111357142D01*
X150452380Y-89142857D02*
X149976190Y-89476190D01*
X150452380Y-89714285D02*
X149452380Y-89714285D01*
X149452380Y-89333333D01*
X149500000Y-89238095D01*
X149547619Y-89190476D01*
X149642857Y-89142857D01*
X149785714Y-89142857D01*
X149880952Y-89190476D01*
X149928571Y-89238095D01*
X149976190Y-89333333D01*
X149976190Y-89714285D01*
X149547619Y-88761904D02*
X149500000Y-88714285D01*
X149452380Y-88619047D01*
X149452380Y-88380952D01*
X149500000Y-88285714D01*
X149547619Y-88238095D01*
X149642857Y-88190476D01*
X149738095Y-88190476D01*
X149880952Y-88238095D01*
X150452380Y-88809523D01*
X150452380Y-88190476D01*
X149547619Y-87809523D02*
X149500000Y-87761904D01*
X149452380Y-87666666D01*
X149452380Y-87428571D01*
X149500000Y-87333333D01*
X149547619Y-87285714D01*
X149642857Y-87238095D01*
X149738095Y-87238095D01*
X149880952Y-87285714D01*
X150452380Y-87857142D01*
X150452380Y-87238095D01*
X166857142Y-72952380D02*
X166523809Y-72476190D01*
X166285714Y-72952380D02*
X166285714Y-71952380D01*
X166666666Y-71952380D01*
X166761904Y-72000000D01*
X166809523Y-72047619D01*
X166857142Y-72142857D01*
X166857142Y-72285714D01*
X166809523Y-72380952D01*
X166761904Y-72428571D01*
X166666666Y-72476190D01*
X166285714Y-72476190D01*
X167238095Y-72047619D02*
X167285714Y-72000000D01*
X167380952Y-71952380D01*
X167619047Y-71952380D01*
X167714285Y-72000000D01*
X167761904Y-72047619D01*
X167809523Y-72142857D01*
X167809523Y-72238095D01*
X167761904Y-72380952D01*
X167190476Y-72952380D01*
X167809523Y-72952380D01*
X168761904Y-72952380D02*
X168190476Y-72952380D01*
X168476190Y-72952380D02*
X168476190Y-71952380D01*
X168380952Y-72095238D01*
X168285714Y-72190476D01*
X168190476Y-72238095D01*
X166857142Y-74952380D02*
X166523809Y-74476190D01*
X166285714Y-74952380D02*
X166285714Y-73952380D01*
X166666666Y-73952380D01*
X166761904Y-74000000D01*
X166809523Y-74047619D01*
X166857142Y-74142857D01*
X166857142Y-74285714D01*
X166809523Y-74380952D01*
X166761904Y-74428571D01*
X166666666Y-74476190D01*
X166285714Y-74476190D01*
X167238095Y-74047619D02*
X167285714Y-74000000D01*
X167380952Y-73952380D01*
X167619047Y-73952380D01*
X167714285Y-74000000D01*
X167761904Y-74047619D01*
X167809523Y-74142857D01*
X167809523Y-74238095D01*
X167761904Y-74380952D01*
X167190476Y-74952380D01*
X167809523Y-74952380D01*
X168428571Y-73952380D02*
X168523809Y-73952380D01*
X168619047Y-74000000D01*
X168666666Y-74047619D01*
X168714285Y-74142857D01*
X168761904Y-74333333D01*
X168761904Y-74571428D01*
X168714285Y-74761904D01*
X168666666Y-74857142D01*
X168619047Y-74904761D01*
X168523809Y-74952380D01*
X168428571Y-74952380D01*
X168333333Y-74904761D01*
X168285714Y-74857142D01*
X168238095Y-74761904D01*
X168190476Y-74571428D01*
X168190476Y-74333333D01*
X168238095Y-74142857D01*
X168285714Y-74047619D01*
X168333333Y-74000000D01*
X168428571Y-73952380D01*
X149357142Y-81952380D02*
X149023809Y-81476190D01*
X148785714Y-81952380D02*
X148785714Y-80952380D01*
X149166666Y-80952380D01*
X149261904Y-81000000D01*
X149309523Y-81047619D01*
X149357142Y-81142857D01*
X149357142Y-81285714D01*
X149309523Y-81380952D01*
X149261904Y-81428571D01*
X149166666Y-81476190D01*
X148785714Y-81476190D01*
X150309523Y-81952380D02*
X149738095Y-81952380D01*
X150023809Y-81952380D02*
X150023809Y-80952380D01*
X149928571Y-81095238D01*
X149833333Y-81190476D01*
X149738095Y-81238095D01*
X150785714Y-81952380D02*
X150976190Y-81952380D01*
X151071428Y-81904761D01*
X151119047Y-81857142D01*
X151214285Y-81714285D01*
X151261904Y-81523809D01*
X151261904Y-81142857D01*
X151214285Y-81047619D01*
X151166666Y-81000000D01*
X151071428Y-80952380D01*
X150880952Y-80952380D01*
X150785714Y-81000000D01*
X150738095Y-81047619D01*
X150690476Y-81142857D01*
X150690476Y-81380952D01*
X150738095Y-81476190D01*
X150785714Y-81523809D01*
X150880952Y-81571428D01*
X151071428Y-81571428D01*
X151166666Y-81523809D01*
X151214285Y-81476190D01*
X151261904Y-81380952D01*
X166857142Y-76952380D02*
X166523809Y-76476190D01*
X166285714Y-76952380D02*
X166285714Y-75952380D01*
X166666666Y-75952380D01*
X166761904Y-76000000D01*
X166809523Y-76047619D01*
X166857142Y-76142857D01*
X166857142Y-76285714D01*
X166809523Y-76380952D01*
X166761904Y-76428571D01*
X166666666Y-76476190D01*
X166285714Y-76476190D01*
X167809523Y-76952380D02*
X167238095Y-76952380D01*
X167523809Y-76952380D02*
X167523809Y-75952380D01*
X167428571Y-76095238D01*
X167333333Y-76190476D01*
X167238095Y-76238095D01*
X168380952Y-76380952D02*
X168285714Y-76333333D01*
X168238095Y-76285714D01*
X168190476Y-76190476D01*
X168190476Y-76142857D01*
X168238095Y-76047619D01*
X168285714Y-76000000D01*
X168380952Y-75952380D01*
X168571428Y-75952380D01*
X168666666Y-76000000D01*
X168714285Y-76047619D01*
X168761904Y-76142857D01*
X168761904Y-76190476D01*
X168714285Y-76285714D01*
X168666666Y-76333333D01*
X168571428Y-76380952D01*
X168380952Y-76380952D01*
X168285714Y-76428571D01*
X168238095Y-76476190D01*
X168190476Y-76571428D01*
X168190476Y-76761904D01*
X168238095Y-76857142D01*
X168285714Y-76904761D01*
X168380952Y-76952380D01*
X168571428Y-76952380D01*
X168666666Y-76904761D01*
X168714285Y-76857142D01*
X168761904Y-76761904D01*
X168761904Y-76571428D01*
X168714285Y-76476190D01*
X168666666Y-76428571D01*
X168571428Y-76380952D01*
X166857142Y-82952380D02*
X166523809Y-82476190D01*
X166285714Y-82952380D02*
X166285714Y-81952380D01*
X166666666Y-81952380D01*
X166761904Y-82000000D01*
X166809523Y-82047619D01*
X166857142Y-82142857D01*
X166857142Y-82285714D01*
X166809523Y-82380952D01*
X166761904Y-82428571D01*
X166666666Y-82476190D01*
X166285714Y-82476190D01*
X167809523Y-82952380D02*
X167238095Y-82952380D01*
X167523809Y-82952380D02*
X167523809Y-81952380D01*
X167428571Y-82095238D01*
X167333333Y-82190476D01*
X167238095Y-82238095D01*
X168142857Y-81952380D02*
X168809523Y-81952380D01*
X168380952Y-82952380D01*
X166857142Y-80952380D02*
X166523809Y-80476190D01*
X166285714Y-80952380D02*
X166285714Y-79952380D01*
X166666666Y-79952380D01*
X166761904Y-80000000D01*
X166809523Y-80047619D01*
X166857142Y-80142857D01*
X166857142Y-80285714D01*
X166809523Y-80380952D01*
X166761904Y-80428571D01*
X166666666Y-80476190D01*
X166285714Y-80476190D01*
X167809523Y-80952380D02*
X167238095Y-80952380D01*
X167523809Y-80952380D02*
X167523809Y-79952380D01*
X167428571Y-80095238D01*
X167333333Y-80190476D01*
X167238095Y-80238095D01*
X168666666Y-79952380D02*
X168476190Y-79952380D01*
X168380952Y-80000000D01*
X168333333Y-80047619D01*
X168238095Y-80190476D01*
X168190476Y-80380952D01*
X168190476Y-80761904D01*
X168238095Y-80857142D01*
X168285714Y-80904761D01*
X168380952Y-80952380D01*
X168571428Y-80952380D01*
X168666666Y-80904761D01*
X168714285Y-80857142D01*
X168761904Y-80761904D01*
X168761904Y-80523809D01*
X168714285Y-80428571D01*
X168666666Y-80380952D01*
X168571428Y-80333333D01*
X168380952Y-80333333D01*
X168285714Y-80380952D01*
X168238095Y-80428571D01*
X168190476Y-80523809D01*
X156952380Y-73142857D02*
X156476190Y-73476190D01*
X156952380Y-73714285D02*
X155952380Y-73714285D01*
X155952380Y-73333333D01*
X156000000Y-73238095D01*
X156047619Y-73190476D01*
X156142857Y-73142857D01*
X156285714Y-73142857D01*
X156380952Y-73190476D01*
X156428571Y-73238095D01*
X156476190Y-73333333D01*
X156476190Y-73714285D01*
X156952380Y-72190476D02*
X156952380Y-72761904D01*
X156952380Y-72476190D02*
X155952380Y-72476190D01*
X156095238Y-72571428D01*
X156190476Y-72666666D01*
X156238095Y-72761904D01*
X156285714Y-71333333D02*
X156952380Y-71333333D01*
X155904761Y-71571428D02*
X156619047Y-71809523D01*
X156619047Y-71190476D01*
X167357142Y-109452380D02*
X167023809Y-108976190D01*
X166785714Y-109452380D02*
X166785714Y-108452380D01*
X167166666Y-108452380D01*
X167261904Y-108500000D01*
X167309523Y-108547619D01*
X167357142Y-108642857D01*
X167357142Y-108785714D01*
X167309523Y-108880952D01*
X167261904Y-108928571D01*
X167166666Y-108976190D01*
X166785714Y-108976190D01*
X168309523Y-109452380D02*
X167738095Y-109452380D01*
X168023809Y-109452380D02*
X168023809Y-108452380D01*
X167928571Y-108595238D01*
X167833333Y-108690476D01*
X167738095Y-108738095D01*
X168690476Y-108547619D02*
X168738095Y-108500000D01*
X168833333Y-108452380D01*
X169071428Y-108452380D01*
X169166666Y-108500000D01*
X169214285Y-108547619D01*
X169261904Y-108642857D01*
X169261904Y-108738095D01*
X169214285Y-108880952D01*
X168642857Y-109452380D01*
X169261904Y-109452380D01*
X128452380Y-114166666D02*
X127976190Y-114500000D01*
X128452380Y-114738095D02*
X127452380Y-114738095D01*
X127452380Y-114357142D01*
X127500000Y-114261904D01*
X127547619Y-114214285D01*
X127642857Y-114166666D01*
X127785714Y-114166666D01*
X127880952Y-114214285D01*
X127928571Y-114261904D01*
X127976190Y-114357142D01*
X127976190Y-114738095D01*
X127880952Y-113595238D02*
X127833333Y-113690476D01*
X127785714Y-113738095D01*
X127690476Y-113785714D01*
X127642857Y-113785714D01*
X127547619Y-113738095D01*
X127500000Y-113690476D01*
X127452380Y-113595238D01*
X127452380Y-113404761D01*
X127500000Y-113309523D01*
X127547619Y-113261904D01*
X127642857Y-113214285D01*
X127690476Y-113214285D01*
X127785714Y-113261904D01*
X127833333Y-113309523D01*
X127880952Y-113404761D01*
X127880952Y-113595238D01*
X127928571Y-113690476D01*
X127976190Y-113738095D01*
X128071428Y-113785714D01*
X128261904Y-113785714D01*
X128357142Y-113738095D01*
X128404761Y-113690476D01*
X128452380Y-113595238D01*
X128452380Y-113404761D01*
X128404761Y-113309523D01*
X128357142Y-113261904D01*
X128261904Y-113214285D01*
X128071428Y-113214285D01*
X127976190Y-113261904D01*
X127928571Y-113309523D01*
X127880952Y-113404761D01*
X128452380Y-107166666D02*
X127976190Y-107500000D01*
X128452380Y-107738095D02*
X127452380Y-107738095D01*
X127452380Y-107357142D01*
X127500000Y-107261904D01*
X127547619Y-107214285D01*
X127642857Y-107166666D01*
X127785714Y-107166666D01*
X127880952Y-107214285D01*
X127928571Y-107261904D01*
X127976190Y-107357142D01*
X127976190Y-107738095D01*
X127452380Y-106833333D02*
X127452380Y-106166666D01*
X128452380Y-106595238D01*
X128452380Y-100166666D02*
X127976190Y-100500000D01*
X128452380Y-100738095D02*
X127452380Y-100738095D01*
X127452380Y-100357142D01*
X127500000Y-100261904D01*
X127547619Y-100214285D01*
X127642857Y-100166666D01*
X127785714Y-100166666D01*
X127880952Y-100214285D01*
X127928571Y-100261904D01*
X127976190Y-100357142D01*
X127976190Y-100738095D01*
X127452380Y-99309523D02*
X127452380Y-99500000D01*
X127500000Y-99595238D01*
X127547619Y-99642857D01*
X127690476Y-99738095D01*
X127880952Y-99785714D01*
X128261904Y-99785714D01*
X128357142Y-99738095D01*
X128404761Y-99690476D01*
X128452380Y-99595238D01*
X128452380Y-99404761D01*
X128404761Y-99309523D01*
X128357142Y-99261904D01*
X128261904Y-99214285D01*
X128023809Y-99214285D01*
X127928571Y-99261904D01*
X127880952Y-99309523D01*
X127833333Y-99404761D01*
X127833333Y-99595238D01*
X127880952Y-99690476D01*
X127928571Y-99738095D01*
X128023809Y-99785714D01*
X166857142Y-78952380D02*
X166523809Y-78476190D01*
X166285714Y-78952380D02*
X166285714Y-77952380D01*
X166666666Y-77952380D01*
X166761904Y-78000000D01*
X166809523Y-78047619D01*
X166857142Y-78142857D01*
X166857142Y-78285714D01*
X166809523Y-78380952D01*
X166761904Y-78428571D01*
X166666666Y-78476190D01*
X166285714Y-78476190D01*
X167809523Y-78952380D02*
X167238095Y-78952380D01*
X167523809Y-78952380D02*
X167523809Y-77952380D01*
X167428571Y-78095238D01*
X167333333Y-78190476D01*
X167238095Y-78238095D01*
X168714285Y-77952380D02*
X168238095Y-77952380D01*
X168190476Y-78428571D01*
X168238095Y-78380952D01*
X168333333Y-78333333D01*
X168571428Y-78333333D01*
X168666666Y-78380952D01*
X168714285Y-78428571D01*
X168761904Y-78523809D01*
X168761904Y-78761904D01*
X168714285Y-78857142D01*
X168666666Y-78904761D01*
X168571428Y-78952380D01*
X168333333Y-78952380D01*
X168238095Y-78904761D01*
X168190476Y-78857142D01*
M02*
